<svg xmlns="http://www.w3.org/2000/svg" xmlns:xlink="http://www.w3.org/1999/xlink" viewBox="0 0 189 254"><defs><style>.cls-1{stroke-miterlimit:10;fill:url(#Безымянный_градиент_48);stroke:url(#Безымянный_градиент_31);}.cls-2{fill:#252525;}.cls-3{fill:#fff;}</style><linearGradient id="Безымянный_градиент_48" x1="-1519.83" y1="540.34" x2="400.17" y2="540.34" gradientUnits="userSpaceOnUse"><stop offset="0" stop-color="#5b2e83"/><stop offset="1" stop-color="#e07f32"/></linearGradient><linearGradient id="Безымянный_градиент_31" x1="-1520.33" y1="540.34" x2="400.67" y2="540.34" gradientUnits="userSpaceOnUse"><stop offset="0" stop-color="#5a2e84"/><stop offset="1" stop-color="#e07f32"/></linearGradient></defs><g id="Слой_4" data-name="Слой 4"><rect class="cls-1" x="-1519.83" y="0.34" width="1920" height="1080"/></g><g id="Слой_5" data-name="Слой 5"><path class="cls-2" d="M-1520.44,0V1081.15H401V0ZM218.17,73.76c7.81,0,14.83,6.92,19.74,17.94a37.53,37.53,0,0,0,34.45,22.42h.35c.61,0,1.23,0,1.84,0a36.89,36.89,0,0,0,34.16-22.28c4.89-11.12,12-18.1,19.79-18.1,14.79,0,26.79,24.85,26.79,55.5,0,18.2-4.24,34.35-10.77,44.47a39.34,39.34,0,0,0-2.29,4.05c-9.57,19.42-37.07,33.45-69.52,33.45-34.68,0-63.72-16-71.24-37.55a38.19,38.19,0,0,0-1.9-4.52c-5-10.08-8.19-24.25-8.19-39.9C191.38,98.61,203.38,73.76,218.17,73.76Zm-17.29,290a41.37,41.37,0,0,0,2.3-4.18c9.58-20,37.12-34.41,69.61-34.41,34.73,0,63.81,16.48,71.34,38.64a38.89,38.89,0,0,0,1.89,4.64c5.05,10.37,8.19,24.95,8.19,41.08,0,31.54-12,57.11-26.82,57.11-7.82,0-14.85-7.11-19.75-18.46a37.54,37.54,0,0,0-34.51-23.08h-2.19c-14.85-.25-28.21,8.95-34.19,22.93-4.92,11.44-12,18.62-19.82,18.62-14.82,0-26.83-25.57-26.83-57.11C190.1,390.84,194.34,374.2,200.88,363.8ZM40.6,73.76c7.81,0,14.83,6.92,19.73,17.94a37.55,37.55,0,0,0,34.46,22.42h.35c.61,0,1.23,0,1.83,0a36.92,36.92,0,0,0,34.17-22.28c4.89-11.12,12-18.1,19.78-18.1,14.79,0,26.79,24.85,26.79,55.49,0,18.21-4.23,34.36-10.77,44.48a39.34,39.34,0,0,0-2.29,4.05c-9.56,19.42-37.06,33.45-69.51,33.45-34.69,0-63.73-16-71.24-37.55a38.19,38.19,0,0,0-1.9-4.52c-5.05-10.08-8.19-24.25-8.19-39.91C13.81,98.61,25.81,73.76,40.6,73.76Zm-18.66,289a41.37,41.37,0,0,0,2.3-4.18c9.57-20,37.12-34.41,69.6-34.41,34.74,0,63.82,16.48,71.33,38.64a40.69,40.69,0,0,0,1.9,4.64c5.06,10.37,8.2,24.95,8.2,41.08,0,31.54-12,57.11-26.83,57.11-7.82,0-14.84-7.11-19.74-18.46a37.57,37.57,0,0,0-34.51-23.08H92c-14.85-.25-28.21,8.95-34.21,22.93-4.9,11.44-12,18.62-19.81,18.62-14.82,0-26.82-25.57-26.82-57.11C11.16,389.84,15.39,373.2,21.94,362.8Zm-159.73-289c7.8,0,14.83,6.92,19.72,17.94A37.58,37.58,0,0,0-83.6,114.12h.34c.62,0,1.23,0,1.84,0A36.89,36.89,0,0,0-47.26,91.86c4.9-11.12,11.95-18.1,19.79-18.1,14.79,0,26.79,24.85,26.79,55.49,0,18.21-4.23,34.36-10.77,44.48a37.64,37.64,0,0,0-2.3,4.05c-9.56,19.42-37.07,33.45-69.51,33.45-34.69,0-63.72-16-71.24-37.55a38.19,38.19,0,0,0-1.9-4.52c-5-10.08-8.18-24.25-8.18-39.91C-164.58,98.61-152.58,73.76-137.79,73.76Zm-19.13,289a41.37,41.37,0,0,0,2.3-4.18c9.58-20,37.12-34.41,69.62-34.41,34.72,0,63.8,16.48,71.32,38.64a40.69,40.69,0,0,0,1.9,4.64c5,10.37,8.2,24.95,8.2,41.08,0,31.54-12,57.11-26.83,57.11-7.82,0-14.84-7.11-19.75-18.46a37.56,37.56,0,0,0-34.5-23.08h-2.2c-14.86-.25-28.21,8.95-34.2,22.93-4.91,11.44-12,18.62-19.82,18.62-14.81,0-26.83-25.57-26.83-57.11C-167.71,389.84-163.46,373.2-156.92,362.8Zm-159.27-289c7.81,0,14.83,6.92,19.73,17.94A37.54,37.54,0,0,0-262,114.12h.34c.62,0,1.23,0,1.84,0a36.87,36.87,0,0,0,34.16-22.28c4.89-11.12,11.95-18.1,19.8-18.1,14.79,0,26.79,24.85,26.79,55.49,0,18.21-4.24,34.36-10.78,44.48a39.34,39.34,0,0,0-2.29,4.05c-9.56,19.42-37.08,33.45-69.52,33.45-34.69,0-63.72-16-71.23-37.55a38.19,38.19,0,0,0-1.9-4.52c-5.06-10.08-8.19-24.25-8.19-39.91C-343,98.61-331,73.76-316.19,73.76Zm-19.36,289a43.44,43.44,0,0,0,2.3-4.18c9.57-20,37.12-34.41,69.6-34.41,34.74,0,63.81,16.48,71.33,38.64a40.75,40.75,0,0,0,1.91,4.64c5,10.37,8.19,24.95,8.19,41.08,0,31.54-12,57.11-26.83,57.11-7.81,0-14.85-7.11-19.75-18.46a37.57,37.57,0,0,0-34.5-23.08h-2.2c-14.86-.25-28.2,8.95-34.2,22.93-4.9,11.44-12,18.62-19.81,18.62-14.82,0-26.84-25.57-26.84-57.11C-346.35,389.84-342.11,373.2-335.55,362.8Zm-159.25-289c7.8,0,14.83,6.92,19.72,17.94a37.57,37.57,0,0,0,34.46,22.42h.35c.62,0,1.23,0,1.84,0a36.89,36.89,0,0,0,34.16-22.28c4.9-11.12,12-18.1,19.79-18.1,14.79,0,26.79,24.85,26.79,55.49,0,18.21-4.23,34.36-10.78,44.48a41.29,41.29,0,0,0-2.29,4.05c-9.56,19.42-37.07,33.45-69.51,33.45-34.69,0-63.72-16-71.23-37.55a38.25,38.25,0,0,0-1.91-4.52c-5-10.08-8.18-24.25-8.18-39.91C-521.59,98.61-509.59,73.76-494.8,73.76Zm-19.4,289a43.44,43.44,0,0,0,2.3-4.18c9.57-20,37.12-34.41,69.61-34.41,34.73,0,63.81,16.48,71.33,38.64a40.69,40.69,0,0,0,1.9,4.64c5.06,10.37,8.2,24.95,8.2,41.08,0,31.54-12,57.11-26.83,57.11-7.82,0-14.85-7.11-19.75-18.46a37.56,37.56,0,0,0-34.5-23.08h-2.19c-14.86-.25-28.21,8.95-34.21,22.93-4.9,11.44-12,18.62-19.81,18.62-14.82,0-26.83-25.57-26.83-57.11C-525,389.84-520.74,373.2-514.2,362.8Zm-933.75-289c7.81,0,14.83,6.92,19.73,17.94a37.54,37.54,0,0,0,34.45,22.42h.35c.62,0,1.23,0,1.85,0a36.87,36.87,0,0,0,34.15-22.28c4.9-11.12,12-18.1,19.8-18.1,14.79,0,26.79,24.85,26.79,55.49,0,18.21-4.24,34.36-10.78,44.48a37.56,37.56,0,0,0-2.29,4.05c-9.56,19.42-37.08,33.45-69.52,33.45-34.69,0-63.72-16-71.23-37.55a38.19,38.19,0,0,0-1.9-4.52c-5-10.08-8.19-24.25-8.19-39.91C-1474.74,98.61-1462.74,73.76-1447.95,73.76Zm110.55,933.92c-7.82,0-14.85-7.1-19.75-18.46a37.56,37.56,0,0,0-34.5-23.07h-2.2c-14.86-.25-28.21,9-34.2,22.92-4.91,11.45-12,18.62-19.82,18.62-14.81,0-26.83-25.56-26.83-57.11,0-18.73,4.25-35.36,10.79-45.77a41.13,41.13,0,0,0,2.29-4.17c9.58-20,37.13-34.42,69.62-34.42,34.73,0,63.8,16.49,71.33,38.64a40.1,40.1,0,0,0,1.9,4.65c5,10.37,8.2,25,8.2,41.07C-1310.57,982.12-1322.59,1007.68-1337.4,1007.68Zm16.28-295.75a37.42,37.42,0,0,0-2.29,4c-9.56,19.43-37.08,33.46-69.52,33.46-34.69,0-63.72-16-71.23-37.55a39.65,39.65,0,0,0-1.9-4.52c-5-10.08-8.19-24.24-8.19-39.91,0-30.64,12-55.49,26.79-55.49,7.81,0,14.84,6.91,19.73,17.94a37.55,37.55,0,0,0,34.45,22.43h2.2a36.83,36.83,0,0,0,34.15-22.29c4.9-11.11,12-18.09,19.8-18.09,14.79,0,26.79,24.85,26.79,55.49C-1310.34,685.66-1314.58,701.82-1321.12,711.93ZM-1336.63,465c-7.82,0-14.85-7.12-19.76-18.47a37.56,37.56,0,0,0-34.49-23.08h-2.21c-14.85-.25-28.2,8.95-34.19,22.93-4.9,11.44-12,18.63-19.83,18.63-14.81,0-26.83-25.58-26.83-57.13,0-18.73,4.25-35.35,10.8-45.76a42.24,42.24,0,0,0,2.29-4.17c9.58-20,37.13-34.43,69.61-34.43,34.74,0,63.81,16.5,71.33,38.65a40,40,0,0,0,1.91,4.64c5,10.38,8.2,25,8.2,41.07C-1309.8,439.42-1321.82,465-1336.63,465Zm67.3-391.24c7.8,0,14.83,6.92,19.71,17.94a37.58,37.58,0,0,0,34.47,22.42h.35c.61,0,1.23,0,1.83,0a36.92,36.92,0,0,0,34.17-22.28c4.89-11.12,11.94-18.1,19.78-18.1,14.79,0,26.79,24.85,26.79,55.49,0,18.21-4.23,34.36-10.77,44.48a39.34,39.34,0,0,0-2.29,4.05c-9.57,19.42-37.08,33.45-69.51,33.45-34.7,0-63.73-16-71.24-37.55a40,40,0,0,0-1.91-4.52c-5-10.08-8.17-24.25-8.17-39.91C-1296.12,98.61-1284.12,73.76-1269.33,73.76Zm110.57,933.92c-7.82,0-14.85-7.1-19.75-18.46a37.58,37.58,0,0,0-34.5-23.07h-2.2c-14.86-.25-28.2,9-34.2,22.92-4.9,11.45-12,18.62-19.81,18.62-14.82,0-26.84-25.56-26.84-57.11,0-18.73,4.24-35.36,10.8-45.77a43.28,43.28,0,0,0,2.3-4.17c9.56-20,37.12-34.42,69.6-34.42,34.74,0,63.81,16.49,71.32,38.64a40.16,40.16,0,0,0,1.91,4.65c5.06,10.37,8.2,25,8.2,41.07C-1131.93,982.12-1143.95,1007.68-1158.76,1007.68Zm16.24-295.75a41.05,41.05,0,0,0-2.28,4c-9.57,19.43-37.08,33.46-69.51,33.46-34.7,0-63.73-16-71.23-37.55a43.76,43.76,0,0,0-1.92-4.52c-5-10.08-8.17-24.24-8.17-39.91,0-30.64,12-55.49,26.79-55.49,7.8,0,14.83,6.91,19.71,17.94a37.59,37.59,0,0,0,34.47,22.43h2.18a36.88,36.88,0,0,0,34.17-22.29c4.89-11.11,11.94-18.09,19.78-18.09,14.79,0,26.79,24.85,26.79,55.49C-1131.74,685.66-1136,701.82-1142.52,711.93ZM-1158,465c-7.81,0-14.85-7.12-19.74-18.47a37.6,37.6,0,0,0-34.51-23.08h-2.19c-14.86-.25-28.21,8.95-34.2,22.93-4.91,11.44-12,18.63-19.82,18.63-14.81,0-26.83-25.58-26.83-57.13,0-18.73,4.24-35.35,10.79-45.76a42.33,42.33,0,0,0,2.3-4.17c9.57-20,37.12-34.43,69.61-34.43,34.73,0,63.8,16.5,71.32,38.65a40,40,0,0,0,1.9,4.64c5.06,10.38,8.2,25,8.2,41.07C-1131.17,439.42-1143.19,465-1158,465Zm67.06-391.24c7.81,0,14.83,6.92,19.73,17.94a37.54,37.54,0,0,0,34.46,22.42h.34c.62,0,1.23,0,1.84,0a36.89,36.89,0,0,0,34.16-22.28c4.9-11.12,11.95-18.1,19.79-18.1,14.8,0,26.79,24.85,26.79,55.49,0,18.21-4.24,34.36-10.76,44.48a37.73,37.73,0,0,0-2.31,4.05c-9.56,19.42-37.07,33.45-69.51,33.45-34.68,0-63.73-16-71.23-37.55a38.19,38.19,0,0,0-1.9-4.52c-5.06-10.08-8.19-24.25-8.19-39.91C-1117.73,98.61-1105.73,73.76-1090.94,73.76Zm110.81,933.92c-7.81,0-14.84-7.1-19.74-18.46a37.59,37.59,0,0,0-34.51-23.07h-2.19c-14.86-.25-28.21,9-34.2,22.92-4.91,11.45-12,18.62-19.82,18.62-14.81,0-26.83-25.56-26.83-57.11,0-18.73,4.24-35.36,10.79-45.77a41.22,41.22,0,0,0,2.3-4.17c9.58-20,37.12-34.42,69.61-34.42,34.73,0,63.81,16.49,71.33,38.64a40.1,40.1,0,0,0,1.9,4.65c5,10.37,8.19,25,8.19,41.07C-953.3,982.12-965.3,1007.68-980.13,1007.68Zm-137.11-340.23c0-30.64,12-55.49,26.79-55.49,7.81,0,14.83,6.91,19.73,17.94a37.55,37.55,0,0,0,34.46,22.43h2.18a36.85,36.85,0,0,0,34.16-22.29C-995,618.94-988,612-980.13,612c14.8,0,26.79,24.85,26.79,55.49,0,18.21-4.24,34.37-10.76,44.48a39.36,39.36,0,0,0-2.31,4c-9.56,19.43-37.07,33.46-69.51,33.46-34.68,0-63.73-16-71.23-37.55a39.72,39.72,0,0,0-1.91-4.52C-1114.11,697.28-1117.24,683.12-1117.24,667.45ZM-979.36,465c-7.81,0-14.84-7.12-19.75-18.47a37.56,37.56,0,0,0-34.5-23.08h-2.2c-14.85-.25-28.2,8.95-34.19,22.93-4.91,11.44-12,18.63-19.82,18.63-14.82,0-26.84-25.58-26.84-57.13,0-18.73,4.25-35.35,10.8-45.76a44.5,44.5,0,0,0,2.3-4.17c9.58-20,37.12-34.43,69.6-34.43,34.74,0,63.82,16.5,71.33,38.65a40,40,0,0,0,1.91,4.64c5.05,10.38,8.2,25,8.2,41.07C-952.52,439.42-964.53,465-979.36,465Zm66.82-391.24c7.8,0,14.83,6.92,19.73,17.94a37.52,37.52,0,0,0,34.46,22.42h.34c.62,0,1.23,0,1.84,0A36.89,36.89,0,0,0-822,91.86c4.9-11.12,12-18.1,19.79-18.1,14.79,0,26.79,24.85,26.79,55.49,0,18.21-4.24,34.36-10.77,44.48a39.42,39.42,0,0,0-2.3,4.05c-9.56,19.42-37.07,33.45-69.51,33.45-34.69,0-63.72-16-71.24-37.55a38.19,38.19,0,0,0-1.9-4.52c-5.05-10.08-8.19-24.25-8.19-39.91C-939.34,98.61-927.34,73.76-912.54,73.76Zm111.27,933.92c-7.82,0-14.84-7.1-19.75-18.46a37.55,37.55,0,0,0-34.5-23.07h-2.19c-14.85-.25-28.22,9-34.21,22.92-4.9,11.45-12,18.62-19.81,18.62-14.83,0-26.82-25.56-26.82-57.11,0-18.73,4.23-35.36,10.77-45.77a43.36,43.36,0,0,0,2.31-4.17c9.57-20,37.11-34.42,69.6-34.42,34.73,0,63.82,16.49,71.33,38.64a40.1,40.1,0,0,0,1.9,4.65c5.06,10.37,8.2,25,8.2,41.07C-774.44,982.12-786.45,1007.68-801.27,1007.68ZM-938.84,667.45c0-30.64,12-55.49,26.79-55.49,7.8,0,14.83,6.91,19.73,17.94a37.53,37.53,0,0,0,34.46,22.43h2.18a36.83,36.83,0,0,0,34.15-22.29c4.91-11.11,12-18.09,19.8-18.09,14.79,0,26.79,24.85,26.79,55.49,0,18.21-4.23,34.37-10.77,44.48a39.28,39.28,0,0,0-2.3,4c-9.56,19.43-37.07,33.46-69.51,33.46-34.69,0-63.73-16-71.24-37.55a39.65,39.65,0,0,0-1.9-4.52C-935.71,697.28-938.84,683.12-938.84,667.45ZM-800.5,465c-7.82,0-14.84-7.12-19.76-18.47a37.55,37.55,0,0,0-34.49-23.08h-2.2c-14.85-.25-28.2,8.95-34.2,22.93C-896,457.81-903.12,465-911,465c-14.82,0-26.83-25.58-26.83-57.13,0-18.73,4.23-35.35,10.78-45.76a44.6,44.6,0,0,0,2.31-4.17c9.56-20,37.11-34.43,69.6-34.43,34.73,0,63.81,16.5,71.33,38.65a38.27,38.27,0,0,0,1.9,4.64c5.06,10.38,8.19,25,8.19,41.07C-773.68,439.42-785.68,465-800.5,465ZM-735,73.76c7.8,0,14.83,6.92,19.73,17.94a37.54,37.54,0,0,0,34.46,22.42h.34c.62,0,1.23,0,1.84,0a36.89,36.89,0,0,0,34.16-22.28c4.9-11.12,12-18.1,19.79-18.1,14.79,0,26.79,24.85,26.79,55.5,0,18.2-4.23,34.35-10.77,44.47a39.42,39.42,0,0,0-2.3,4.05c-9.56,19.42-37.07,33.45-69.51,33.45-34.69,0-63.72-16-71.23-37.55a38.25,38.25,0,0,0-1.91-4.52c-5-10.08-8.18-24.25-8.18-39.9C-761.76,98.61-749.76,73.76-735,73.76Zm112.65,934.93c-7.82,0-14.85-7.11-19.75-18.46a37.56,37.56,0,0,0-34.51-23.08h-2.19c-14.85-.25-28.21,9-34.2,22.93-4.91,11.44-12,18.62-19.81,18.62-14.82,0-26.83-25.57-26.83-57.12,0-18.73,4.23-35.36,10.78-45.76a42.48,42.48,0,0,0,2.3-4.18c9.58-20,37.12-34.42,69.61-34.42,34.73,0,63.81,16.49,71.34,38.65a38.89,38.89,0,0,0,1.89,4.64c5.05,10.37,8.19,25,8.19,41.07C-595.5,983.12-607.51,1008.69-622.32,1008.69ZM-761.27,675.84c0-30.65,12-55.5,26.79-55.5,7.8,0,14.83,6.92,19.73,17.94a37.54,37.54,0,0,0,34.46,22.42h.34c.62,0,1.23,0,1.84,0a36.89,36.89,0,0,0,34.16-22.28c4.9-11.12,12-18.1,19.79-18.1,14.79,0,26.79,24.85,26.79,55.5,0,18.2-4.23,34.36-10.77,44.47a39.42,39.42,0,0,0-2.3,4.05c-9.56,19.42-37.07,33.45-69.51,33.45-34.69,0-63.73-16-71.23-37.55a37.31,37.31,0,0,0-1.91-4.52C-758.14,705.66-761.27,691.5-761.27,675.84ZM-621.56,466c-7.81,0-14.84-7.12-19.74-18.47a37.59,37.59,0,0,0-34.51-23.08H-678c-14.85-.25-28.21,8.95-34.2,22.93-4.91,11.44-12,18.63-19.82,18.63-14.82,0-26.83-25.58-26.83-57.12,0-18.73,4.23-35.36,10.79-45.77a41.22,41.22,0,0,0,2.3-4.17c9.58-20,37.12-34.42,69.6-34.42,34.74,0,63.82,16.49,71.34,38.64a40,40,0,0,0,1.9,4.64c5,10.38,8.19,25,8.19,41.08C-594.73,440.42-606.74,466-621.56,466Zm233.11,542.37c-7.82,0-14.85-7.11-19.76-18.45a37.57,37.57,0,0,0-34.5-23.09h-2.19c-14.87-.26-28.21,8.94-34.2,22.92-4.9,11.44-12,18.62-19.82,18.62-14.82,0-26.83-25.56-26.83-57.11,0-18.74,4.24-35.36,10.79-45.77a43.19,43.19,0,0,0,2.29-4.17c9.58-20,37.12-34.43,69.61-34.43,34.74,0,63.82,16.5,71.33,38.65a40.9,40.9,0,0,0,1.91,4.65c5.06,10.37,8.19,24.95,8.19,41.07C-361.63,982.81-373.64,1008.37-388.45,1008.37ZM-368,712.3a39.34,39.34,0,0,0-2.29,4.05c-9.56,19.42-37.07,33.45-69.51,33.45-34.69,0-63.72-16-71.23-37.55a38,38,0,0,0-1.91-4.52c-5-10.08-8.18-24.24-8.18-39.9,0-30.65,12-55.5,26.79-55.5,7.8,0,14.83,6.92,19.72,17.94a37.57,37.57,0,0,0,34.46,22.43h.35c.62,0,1.23,0,1.84,0a36.89,36.89,0,0,0,34.16-22.29c4.89-11.12,12-18.1,19.79-18.1,14.79,0,26.79,24.85,26.79,55.5C-357.2,686-361.43,702.19-368,712.3Zm158.16,296.07c-7.81,0-14.85-7.11-19.74-18.45a37.59,37.59,0,0,0-34.51-23.09h-2.19c-14.86-.26-28.21,8.94-34.21,22.92-4.9,11.44-12,18.62-19.81,18.62-14.81,0-26.83-25.56-26.83-57.11,0-18.74,4.24-35.36,10.79-45.77a41.22,41.22,0,0,0,2.3-4.17c9.57-20,37.12-34.43,69.61-34.43,34.73,0,63.8,16.5,71.32,38.65a40.9,40.9,0,0,0,1.91,4.65c5.05,10.37,8.19,24.95,8.19,41.07C-183,982.81-195,1008.37-209.82,1008.37Zm20.46-296.44a39.19,39.19,0,0,0-2.29,4c-9.57,19.43-37.08,33.46-69.52,33.46-34.69,0-63.72-16-71.23-37.55a39.65,39.65,0,0,0-1.9-4.52c-5.06-10.08-8.19-24.24-8.19-39.91,0-30.64,12-55.49,26.79-55.49,7.81,0,14.83,6.91,19.73,17.94a37.55,37.55,0,0,0,34.46,22.43h2.18a36.84,36.84,0,0,0,34.16-22.29c4.89-11.11,11.95-18.09,19.8-18.09,14.79,0,26.79,24.85,26.79,55.49C-178.58,685.66-182.83,701.82-189.36,711.93Zm158.19,296.44c-7.82,0-14.85-7.11-19.76-18.45a37.57,37.57,0,0,0-34.5-23.09h-2.2c-14.86-.26-28.2,8.94-34.19,22.92-4.91,11.44-12,18.62-19.82,18.62-14.82,0-26.84-25.56-26.84-57.11,0-18.74,4.25-35.36,10.8-45.77a43.28,43.28,0,0,0,2.3-4.17c9.57-20,37.11-34.43,69.61-34.43,34.73,0,63.8,16.5,71.32,38.65a40.9,40.9,0,0,0,1.91,4.65c5,10.37,8.19,24.95,8.19,41.07C-4.35,982.81-16.35,1008.37-31.17,1008.37ZM-11,711.93a37.5,37.5,0,0,0-2.3,4c-9.56,19.43-37.07,33.46-69.51,33.46-34.69,0-63.72-16-71.24-37.55a39.65,39.65,0,0,0-1.9-4.52c-5.05-10.08-8.18-24.24-8.18-39.91,0-30.64,12-55.49,26.79-55.49,7.8,0,14.83,6.91,19.72,17.94a37.58,37.58,0,0,0,34.47,22.43h2.18a36.86,36.86,0,0,0,34.16-22.29C-41.87,618.94-34.82,612-27,612c14.79,0,26.79,24.85,26.79,55.49C-.19,685.66-4.42,701.82-11,711.93Zm158.64,296.44c-7.82,0-14.85-7.11-19.75-18.45a37.57,37.57,0,0,0-34.51-23.09H91.23C76.38,966.57,63,975.77,57,989.75c-4.91,11.44-12,18.62-19.81,18.62-14.82,0-26.83-25.56-26.83-57.11,0-18.74,4.23-35.36,10.78-45.77a41.22,41.22,0,0,0,2.3-4.17c9.57-20,37.11-34.43,69.61-34.43,34.74,0,63.81,16.5,71.33,38.65a39,39,0,0,0,1.89,4.65c5.07,10.37,8.2,24.95,8.2,41.07C174.5,982.81,162.49,1008.37,147.68,1008.37Zm19.75-296.44a39.19,39.19,0,0,0-2.29,4c-9.56,19.43-37.06,33.46-69.51,33.46-34.68,0-63.73-16-71.24-37.55a39.65,39.65,0,0,0-1.9-4.52c-5-10.08-8.19-24.24-8.19-39.91,0-30.64,12-55.49,26.79-55.49,7.81,0,14.83,6.91,19.74,17.94a37.54,37.54,0,0,0,34.45,22.43h2.18a36.88,36.88,0,0,0,34.17-22.29c4.89-11.11,12-18.09,19.78-18.09,14.79,0,26.79,24.85,26.79,55.49C178.2,685.66,174,701.82,167.43,711.93Zm159.19,297.45c-7.81,0-14.84-7.12-19.75-18.46a37.57,37.57,0,0,0-34.5-23.09h-2.2c-14.85-.26-28.2,8.94-34.19,22.93-4.91,11.43-12,18.62-19.82,18.62-14.82,0-26.83-25.57-26.83-57.12,0-18.74,4.23-35.36,10.79-45.77a43.28,43.28,0,0,0,2.3-4.17c9.58-20,37.12-34.42,69.6-34.42,34.74,0,63.82,16.49,71.34,38.64a39.09,39.09,0,0,0,1.9,4.65c5.05,10.37,8.19,24.95,8.19,41.07C353.45,983.81,341.45,1009.38,326.62,1009.38ZM345,711.93a42.42,42.42,0,0,0-2.3,4c-9.56,19.43-37.06,33.46-69.51,33.46-34.69,0-63.72-16-71.24-37.55a39.65,39.65,0,0,0-1.9-4.52c-5-10.08-8.19-24.24-8.19-39.91,0-30.64,12-55.49,26.79-55.49,7.81,0,14.83,6.91,19.74,17.94a37.54,37.54,0,0,0,34.45,22.43H275a36.86,36.86,0,0,0,34.16-22.29C314.09,618.94,321.15,612,329,612c14.79,0,26.79,24.85,26.79,55.49C355.78,685.66,351.54,701.82,345,711.93Z"/></g><g id="Слой_2" data-name="Слой 2"><path class="cls-3" d="M65.82,138.76H81.15V172H73.48V146.43H65.82Z"/><path class="cls-3" d="M84.51,138.76h7.67v12.76h8.94V147.7h7.66v3.82h8.94v7.67h-8.94V172h-7.66V159.19H84.51Z"/></g></svg>