<svg xmlns="http://www.w3.org/2000/svg" xmlns:xlink="http://www.w3.org/1999/xlink" viewBox="0 0 217 238"><defs><style>.cls-1{stroke-miterlimit:10;fill:url(#Безымянный_градиент_48);stroke:url(#Безымянный_градиент_31);}.cls-2{fill:#252525;}.cls-3{fill:#fff;}</style><linearGradient id="Безымянный_градиент_48" x1="-955.83" y1="286.34" x2="964.17" y2="286.34" gradientUnits="userSpaceOnUse"><stop offset="0" stop-color="#5b2e83"/><stop offset="1" stop-color="#e07f32"/></linearGradient><linearGradient id="Безымянный_градиент_31" x1="-956.33" y1="286.34" x2="964.67" y2="286.34" gradientUnits="userSpaceOnUse"><stop offset="0" stop-color="#5a2e84"/><stop offset="1" stop-color="#e07f32"/></linearGradient></defs><g id="Слой_4" data-name="Слой 4"><rect class="cls-1" x="-955.83" y="-253.66" width="1920" height="1080"/></g><g id="Слой_5" data-name="Слой 5"><path class="cls-2" d="M-956.44-254V827.15H965V-254ZM782.17-180.24c7.81,0,14.83,6.92,19.74,17.94a37.53,37.53,0,0,0,34.45,22.42h.35c.61,0,1.23,0,1.84,0a36.89,36.89,0,0,0,34.16-22.28c4.89-11.12,11.95-18.1,19.79-18.1,14.79,0,26.79,24.85,26.79,55.5,0,18.2-4.24,34.35-10.77,44.47a39.34,39.34,0,0,0-2.29,4c-9.57,19.42-37.07,33.45-69.52,33.45-34.68,0-63.72-16-71.24-37.55a38.19,38.19,0,0,0-1.9-4.52c-5-10.08-8.19-24.25-8.19-39.9C755.38-155.39,767.38-180.24,782.17-180.24Zm-17.29,290a41.37,41.37,0,0,0,2.3-4.18c9.58-20,37.12-34.41,69.61-34.41,34.73,0,63.81,16.48,71.34,38.64a38.89,38.89,0,0,0,1.89,4.64c5.05,10.37,8.19,25,8.19,41.08,0,31.54-12,57.11-26.82,57.11-7.82,0-14.85-7.11-19.75-18.46a37.54,37.54,0,0,0-34.51-23.08h-2.19c-14.85-.25-28.21,9-34.19,22.93-4.92,11.44-12,18.62-19.82,18.62-14.82,0-26.83-25.57-26.83-57.11C754.1,136.84,758.34,120.2,764.88,109.8Zm-160.28-290c7.81,0,14.83,6.92,19.73,17.94a37.55,37.55,0,0,0,34.46,22.42h.35c.61,0,1.23,0,1.83,0a36.92,36.92,0,0,0,34.17-22.28c4.89-11.12,12-18.1,19.78-18.1,14.79,0,26.79,24.85,26.79,55.49,0,18.21-4.23,34.36-10.77,44.48a39.34,39.34,0,0,0-2.29,4c-9.56,19.42-37.06,33.45-69.51,33.45-34.69,0-63.73-16-71.24-37.55a38.19,38.19,0,0,0-1.9-4.52c-5-10.08-8.19-24.25-8.19-39.91C577.81-155.39,589.81-180.24,604.6-180.24Zm-18.66,289a41.37,41.37,0,0,0,2.3-4.18c9.57-20,37.12-34.41,69.6-34.41,34.74,0,63.82,16.48,71.33,38.64a40.69,40.69,0,0,0,1.9,4.64c5.06,10.37,8.2,25,8.2,41.08,0,31.54-12,57.11-26.83,57.11-7.82,0-14.84-7.11-19.74-18.46a37.57,37.57,0,0,0-34.51-23.08H656c-14.85-.25-28.21,9-34.21,22.93-4.9,11.44-12,18.62-19.81,18.62-14.82,0-26.82-25.57-26.82-57.11C575.16,135.84,579.39,119.2,585.94,108.8Zm-159.73-289c7.8,0,14.83,6.92,19.72,17.94a37.58,37.58,0,0,0,34.47,22.42h.34c.62,0,1.23,0,1.84,0a36.89,36.89,0,0,0,34.16-22.28c4.9-11.12,12-18.1,19.79-18.1,14.79,0,26.79,24.85,26.79,55.49,0,18.21-4.23,34.36-10.77,44.48a37.64,37.64,0,0,0-2.3,4c-9.56,19.42-37.07,33.45-69.51,33.45-34.69,0-63.72-16-71.24-37.55a38.19,38.19,0,0,0-1.9-4.52c-5.05-10.08-8.18-24.25-8.18-39.91C399.42-155.39,411.42-180.24,426.21-180.24Zm-19.13,289a41.37,41.37,0,0,0,2.3-4.18C419,84.63,446.5,70.21,479,70.21c34.72,0,63.8,16.48,71.32,38.64a40.69,40.69,0,0,0,1.9,4.64c5,10.37,8.2,25,8.2,41.08,0,31.54-12,57.11-26.83,57.11-7.82,0-14.84-7.11-19.75-18.46a37.56,37.56,0,0,0-34.5-23.08h-2.2c-14.86-.25-28.21,9-34.2,22.93-4.91,11.44-12,18.62-19.82,18.62-14.81,0-26.83-25.57-26.83-57.11C396.29,135.84,400.54,119.2,407.08,108.8Zm-159.27-289c7.81,0,14.83,6.92,19.73,17.94A37.54,37.54,0,0,0,302-139.88h.34c.62,0,1.23,0,1.84,0a36.87,36.87,0,0,0,34.16-22.28c4.89-11.12,12-18.1,19.8-18.1,14.79,0,26.79,24.85,26.79,55.49,0,18.21-4.24,34.36-10.78,44.48a39.34,39.34,0,0,0-2.29,4c-9.56,19.42-37.08,33.45-69.52,33.45-34.69,0-63.72-16-71.23-37.55a38.19,38.19,0,0,0-1.9-4.52c-5.06-10.08-8.19-24.25-8.19-39.91C221-155.39,233-180.24,247.81-180.24Zm-19.36,289a43.44,43.44,0,0,0,2.3-4.18c9.57-20,37.12-34.41,69.6-34.41,34.74,0,63.81,16.48,71.33,38.64a40.75,40.75,0,0,0,1.91,4.64c5.05,10.37,8.19,25,8.19,41.08,0,31.54-12,57.11-26.83,57.11-7.81,0-14.85-7.11-19.75-18.46a37.57,37.57,0,0,0-34.5-23.08h-2.2c-14.86-.25-28.2,9-34.2,22.93-4.9,11.44-12,18.62-19.81,18.62-14.82,0-26.84-25.57-26.84-57.11C217.65,135.84,221.89,119.2,228.45,108.8ZM69.2-180.24c7.8,0,14.83,6.92,19.72,17.94a37.57,37.57,0,0,0,34.46,22.42h.35c.62,0,1.23,0,1.84,0a36.89,36.89,0,0,0,34.16-22.28c4.9-11.12,12-18.1,19.79-18.1,14.79,0,26.79,24.85,26.79,55.49,0,18.21-4.23,34.36-10.78,44.48a41.29,41.29,0,0,0-2.29,4c-9.56,19.42-37.07,33.45-69.51,33.45C89-42.77,60-58.8,52.5-80.32a38.25,38.25,0,0,0-1.91-4.52c-5-10.08-8.18-24.25-8.18-39.91C42.41-155.39,54.41-180.24,69.2-180.24Zm-19.4,289a43.44,43.44,0,0,0,2.3-4.18c9.57-20,37.12-34.41,69.61-34.41,34.73,0,63.81,16.48,71.33,38.64a40.69,40.69,0,0,0,1.9,4.64c5.06,10.37,8.2,25,8.2,41.08,0,31.54-12,57.11-26.83,57.11-7.82,0-14.85-7.11-19.75-18.46a37.56,37.56,0,0,0-34.5-23.08h-2.19c-14.86-.25-28.21,9-34.21,22.93-4.9,11.44-12,18.62-19.81,18.62C51,211.68,39,186.11,39,154.57,39,135.84,43.26,119.2,49.8,108.8Zm-933.75-289c7.81,0,14.83,6.92,19.73,17.94a37.54,37.54,0,0,0,34.45,22.42h.35c.62,0,1.23,0,1.85,0a36.87,36.87,0,0,0,34.15-22.28c4.9-11.12,12-18.1,19.8-18.1,14.79,0,26.79,24.85,26.79,55.49,0,18.21-4.24,34.36-10.78,44.48a37.56,37.56,0,0,0-2.29,4C-769.46-56.8-797-42.77-829.42-42.77c-34.69,0-63.72-16-71.23-37.55a38.19,38.19,0,0,0-1.9-4.52c-5.05-10.08-8.19-24.25-8.19-39.91C-910.74-155.39-898.74-180.24-883.95-180.24ZM-773.4,753.68c-7.82,0-14.85-7.1-19.75-18.46a37.56,37.56,0,0,0-34.5-23.07h-2.2c-14.86-.25-28.21,9-34.2,22.92-4.91,11.45-12,18.62-19.82,18.62-14.81,0-26.83-25.56-26.83-57.11,0-18.73,4.25-35.36,10.79-45.77a41.13,41.13,0,0,0,2.29-4.17c9.58-20,37.13-34.42,69.62-34.42,34.73,0,63.8,16.49,71.33,38.64a40.1,40.1,0,0,0,1.9,4.65c5,10.37,8.2,25,8.2,41.07C-746.57,728.12-758.59,753.68-773.4,753.68Zm16.28-295.75a37.42,37.42,0,0,0-2.29,4c-9.56,19.43-37.08,33.46-69.52,33.46-34.69,0-63.72-16-71.23-37.55a39.65,39.65,0,0,0-1.9-4.52c-5.05-10.08-8.19-24.24-8.19-39.91,0-30.64,12-55.49,26.79-55.49,7.81,0,14.84,6.91,19.73,17.94a37.55,37.55,0,0,0,34.45,22.43h2.2a36.83,36.83,0,0,0,34.15-22.29c4.9-11.11,12-18.09,19.8-18.09,14.79,0,26.79,24.85,26.79,55.49C-746.34,431.66-750.58,447.82-757.12,457.93ZM-772.63,211c-7.82,0-14.85-7.12-19.76-18.47a37.56,37.56,0,0,0-34.49-23.08h-2.21c-14.85-.25-28.2,8.95-34.19,22.93-4.9,11.44-12,18.63-19.83,18.63-14.81,0-26.83-25.58-26.83-57.13,0-18.73,4.25-35.35,10.8-45.76a42.24,42.24,0,0,0,2.29-4.17c9.58-20,37.13-34.43,69.61-34.43,34.74,0,63.81,16.5,71.33,38.65A40,40,0,0,0-754,112.8c5,10.38,8.2,25,8.2,41.07C-745.8,185.42-757.82,211-772.63,211Zm67.3-391.24c7.8,0,14.83,6.92,19.71,17.94a37.58,37.58,0,0,0,34.47,22.42h.35c.61,0,1.23,0,1.83,0a36.92,36.92,0,0,0,34.17-22.28c4.89-11.12,11.94-18.1,19.78-18.1,14.79,0,26.79,24.85,26.79,55.49,0,18.21-4.23,34.36-10.77,44.48a39.34,39.34,0,0,0-2.29,4c-9.57,19.42-37.08,33.45-69.51,33.45-34.7,0-63.73-16-71.24-37.55a40,40,0,0,0-1.91-4.52c-5-10.08-8.17-24.25-8.17-39.91C-732.12-155.39-720.12-180.24-705.33-180.24Zm110.57,933.92c-7.82,0-14.85-7.1-19.75-18.46A37.58,37.58,0,0,0-649,712.15h-2.2c-14.86-.25-28.2,9-34.2,22.92-4.9,11.45-12,18.62-19.81,18.62-14.82,0-26.84-25.56-26.84-57.11,0-18.73,4.24-35.36,10.8-45.77a43.28,43.28,0,0,0,2.3-4.17c9.56-20,37.12-34.42,69.6-34.42,34.74,0,63.81,16.49,71.32,38.64a40.16,40.16,0,0,0,1.91,4.65c5.06,10.37,8.2,25,8.2,41.07C-567.93,728.12-579.95,753.68-594.76,753.68Zm16.24-295.75a41.05,41.05,0,0,0-2.28,4c-9.57,19.43-37.08,33.46-69.51,33.46-34.7,0-63.73-16-71.23-37.55a43.76,43.76,0,0,0-1.92-4.52c-5-10.08-8.17-24.24-8.17-39.91,0-30.64,12-55.49,26.79-55.49,7.8,0,14.83,6.91,19.71,17.94a37.59,37.59,0,0,0,34.47,22.43h2.18a36.88,36.88,0,0,0,34.17-22.29c4.89-11.11,11.94-18.09,19.78-18.09,14.79,0,26.79,24.85,26.79,55.49C-567.74,431.66-572,447.82-578.52,457.93ZM-594,211c-7.81,0-14.85-7.12-19.74-18.47a37.6,37.6,0,0,0-34.51-23.08h-2.19c-14.86-.25-28.21,8.95-34.2,22.93-4.91,11.44-12,18.63-19.82,18.63-14.81,0-26.83-25.58-26.83-57.13,0-18.73,4.24-35.35,10.79-45.76a42.33,42.33,0,0,0,2.3-4.17c9.57-20,37.12-34.43,69.61-34.43,34.73,0,63.8,16.5,71.32,38.65a40,40,0,0,0,1.9,4.64c5.06,10.38,8.2,25,8.2,41.07C-567.17,185.42-579.19,211-594,211Zm67.06-391.24c7.81,0,14.83,6.92,19.73,17.94a37.54,37.54,0,0,0,34.46,22.42h.34c.62,0,1.23,0,1.84,0a36.89,36.89,0,0,0,34.16-22.28c4.9-11.12,12-18.1,19.79-18.1,14.8,0,26.79,24.85,26.79,55.49,0,18.21-4.24,34.36-10.76,44.48a37.73,37.73,0,0,0-2.31,4C-412.46-56.8-440-42.77-472.41-42.77c-34.68,0-63.73-16-71.23-37.55a38.19,38.19,0,0,0-1.9-4.52c-5.06-10.08-8.19-24.25-8.19-39.91C-553.73-155.39-541.73-180.24-526.94-180.24Zm110.81,933.92c-7.81,0-14.84-7.1-19.74-18.46a37.59,37.59,0,0,0-34.51-23.07h-2.19c-14.86-.25-28.21,9-34.2,22.92-4.91,11.45-12,18.62-19.82,18.62-14.81,0-26.83-25.56-26.83-57.11,0-18.73,4.24-35.36,10.79-45.77a41.22,41.22,0,0,0,2.3-4.17c9.58-20,37.12-34.42,69.61-34.42,34.73,0,63.81,16.49,71.33,38.64a40.1,40.1,0,0,0,1.9,4.65c5.05,10.37,8.19,25,8.19,41.07C-389.3,728.12-401.3,753.68-416.13,753.68ZM-553.24,413.45c0-30.64,12-55.49,26.79-55.49,7.81,0,14.83,6.91,19.73,17.94a37.55,37.55,0,0,0,34.46,22.43h2.18a36.85,36.85,0,0,0,34.16-22.29C-431,364.94-424,358-416.13,358c14.8,0,26.79,24.85,26.79,55.49,0,18.21-4.24,34.37-10.76,44.48a39.36,39.36,0,0,0-2.31,4c-9.56,19.43-37.07,33.46-69.51,33.46-34.68,0-63.73-16-71.23-37.55a39.72,39.72,0,0,0-1.91-4.52C-550.11,443.28-553.24,429.12-553.24,413.45ZM-415.36,211c-7.81,0-14.84-7.12-19.75-18.47a37.56,37.56,0,0,0-34.5-23.08h-2.2c-14.85-.25-28.2,8.95-34.19,22.93-4.91,11.44-12,18.63-19.82,18.63-14.82,0-26.84-25.58-26.84-57.13,0-18.73,4.25-35.35,10.8-45.76a44.5,44.5,0,0,0,2.3-4.17C-530,84-502.44,69.51-470,69.51c34.74,0,63.82,16.5,71.33,38.65a40,40,0,0,0,1.91,4.64c5.05,10.38,8.2,25,8.2,41.07C-388.52,185.42-400.53,211-415.36,211Zm66.82-391.24c7.8,0,14.83,6.92,19.73,17.94a37.52,37.52,0,0,0,34.46,22.42h.34c.62,0,1.23,0,1.84,0A36.89,36.89,0,0,0-258-162.14c4.9-11.12,11.95-18.1,19.79-18.1,14.79,0,26.79,24.85,26.79,55.49,0,18.21-4.24,34.36-10.77,44.48a39.42,39.42,0,0,0-2.3,4C-234.06-56.8-261.57-42.77-294-42.77c-34.69,0-63.72-16-71.24-37.55a38.19,38.19,0,0,0-1.9-4.52c-5.05-10.08-8.19-24.25-8.19-39.91C-375.34-155.39-363.34-180.24-348.54-180.24Zm111.27,933.92c-7.82,0-14.84-7.1-19.75-18.46a37.55,37.55,0,0,0-34.5-23.07h-2.19c-14.85-.25-28.22,9-34.21,22.92-4.9,11.45-12,18.62-19.81,18.62-14.83,0-26.82-25.56-26.82-57.11,0-18.73,4.23-35.36,10.77-45.77a43.36,43.36,0,0,0,2.31-4.17c9.57-20,37.11-34.42,69.6-34.42,34.73,0,63.82,16.49,71.33,38.64a40.1,40.1,0,0,0,1.9,4.65c5.06,10.37,8.2,25,8.2,41.07C-210.44,728.12-222.45,753.68-237.27,753.68ZM-374.84,413.45c0-30.64,12-55.49,26.79-55.49,7.8,0,14.83,6.91,19.73,17.94a37.53,37.53,0,0,0,34.46,22.43h2.18a36.83,36.83,0,0,0,34.15-22.29c4.91-11.11,12-18.09,19.8-18.09,14.79,0,26.79,24.85,26.79,55.49,0,18.21-4.23,34.37-10.77,44.48a39.28,39.28,0,0,0-2.3,4c-9.56,19.43-37.07,33.46-69.51,33.46-34.69,0-63.73-16-71.24-37.55a39.65,39.65,0,0,0-1.9-4.52C-371.71,443.28-374.84,429.12-374.84,413.45ZM-236.5,211c-7.82,0-14.84-7.12-19.76-18.47a37.55,37.55,0,0,0-34.49-23.08h-2.2c-14.85-.25-28.2,8.95-34.2,22.93C-332,203.81-339.12,211-347,211c-14.82,0-26.83-25.58-26.83-57.13,0-18.73,4.23-35.35,10.78-45.76a44.6,44.6,0,0,0,2.31-4.17c9.56-20,37.11-34.43,69.6-34.43,34.73,0,63.81,16.5,71.33,38.65a38.27,38.27,0,0,0,1.9,4.64c5.06,10.38,8.19,25,8.19,41.07C-209.68,185.42-221.68,211-236.5,211ZM-171-180.24c7.8,0,14.83,6.92,19.73,17.94a37.54,37.54,0,0,0,34.46,22.42h.34c.62,0,1.23,0,1.84,0a36.89,36.89,0,0,0,34.16-22.28c4.9-11.12,12-18.1,19.79-18.1,14.79,0,26.79,24.85,26.79,55.5,0,18.2-4.23,34.35-10.77,44.47a39.42,39.42,0,0,0-2.3,4C-56.49-56.8-84-42.77-116.44-42.77c-34.69,0-63.72-16-71.23-37.55a38.25,38.25,0,0,0-1.91-4.52c-5-10.08-8.18-24.25-8.18-39.9C-197.76-155.39-185.76-180.24-171-180.24ZM-58.32,754.69c-7.82,0-14.85-7.11-19.75-18.46a37.56,37.56,0,0,0-34.51-23.08h-2.19c-14.85-.25-28.21,9-34.2,22.93-4.91,11.44-12,18.62-19.81,18.62-14.82,0-26.83-25.57-26.83-57.12,0-18.73,4.23-35.36,10.78-45.76a42.48,42.48,0,0,0,2.3-4.18c9.58-20,37.12-34.42,69.61-34.42,34.73,0,63.81,16.49,71.34,38.65a38.89,38.89,0,0,0,1.89,4.64c5,10.37,8.19,25,8.19,41.07C-31.5,729.12-43.51,754.69-58.32,754.69Zm-139-332.85c0-30.65,12-55.5,26.79-55.5,7.8,0,14.83,6.92,19.73,17.94a37.54,37.54,0,0,0,34.46,22.42h.34c.62,0,1.23,0,1.84,0a36.89,36.89,0,0,0,34.16-22.28c4.9-11.12,12-18.1,19.79-18.1,14.79,0,26.79,24.85,26.79,55.5,0,18.2-4.23,34.36-10.77,44.47a39.42,39.42,0,0,0-2.3,4.05c-9.56,19.42-37.07,33.45-69.51,33.45-34.69,0-63.73-16-71.23-37.55a37.31,37.31,0,0,0-1.91-4.52C-194.14,451.66-197.27,437.5-197.27,421.84ZM-57.56,212c-7.81,0-14.84-7.12-19.74-18.47a37.59,37.59,0,0,0-34.51-23.08H-114c-14.85-.25-28.21,8.95-34.2,22.93-4.91,11.44-12,18.63-19.82,18.63-14.82,0-26.83-25.58-26.83-57.12,0-18.73,4.23-35.36,10.79-45.77a41.22,41.22,0,0,0,2.3-4.17c9.58-20,37.12-34.42,69.6-34.42,34.74,0,63.82,16.49,71.34,38.64a40,40,0,0,0,1.9,4.64c5.05,10.38,8.19,25,8.19,41.08C-30.73,186.42-42.74,212-57.56,212ZM175.55,754.37c-7.82,0-14.85-7.11-19.76-18.45a37.57,37.57,0,0,0-34.5-23.09H119.1c-14.87-.26-28.21,8.94-34.2,22.92-4.9,11.44-12,18.62-19.82,18.62-14.82,0-26.83-25.56-26.83-57.11,0-18.74,4.24-35.36,10.79-45.77a43.19,43.19,0,0,0,2.29-4.17c9.58-20,37.12-34.43,69.61-34.43,34.74,0,63.82,16.5,71.33,38.65a40.9,40.9,0,0,0,1.91,4.65c5.06,10.37,8.19,24.95,8.19,41.07C202.37,728.81,190.36,754.37,175.55,754.37ZM196,458.3a39.34,39.34,0,0,0-2.29,4.05c-9.56,19.42-37.07,33.45-69.51,33.45-34.69,0-63.72-16-71.23-37.55a38,38,0,0,0-1.91-4.52c-5-10.08-8.18-24.24-8.18-39.9,0-30.65,12-55.5,26.79-55.5,7.8,0,14.83,6.92,19.72,17.94a37.57,37.57,0,0,0,34.46,22.43h.35c.62,0,1.23,0,1.84,0a36.89,36.89,0,0,0,34.16-22.29c4.89-11.12,12-18.1,19.79-18.1,14.79,0,26.79,24.85,26.79,55.5C206.8,432,202.57,448.19,196,458.3ZM354.18,754.37c-7.81,0-14.85-7.11-19.74-18.45a37.59,37.59,0,0,0-34.51-23.09h-2.19c-14.86-.26-28.21,8.94-34.21,22.92-4.9,11.44-12,18.62-19.81,18.62-14.81,0-26.83-25.56-26.83-57.11,0-18.74,4.24-35.36,10.79-45.77a41.22,41.22,0,0,0,2.3-4.17c9.57-20,37.12-34.43,69.61-34.43,34.73,0,63.8,16.5,71.32,38.65a40.9,40.9,0,0,0,1.91,4.65c5.05,10.37,8.19,24.95,8.19,41.07C381,728.81,369,754.37,354.18,754.37Zm20.46-296.44a39.19,39.19,0,0,0-2.29,4c-9.57,19.43-37.08,33.46-69.52,33.46-34.69,0-63.72-16-71.23-37.55a39.65,39.65,0,0,0-1.9-4.52c-5.06-10.08-8.19-24.24-8.19-39.91,0-30.64,12-55.49,26.79-55.49,7.81,0,14.83,6.91,19.73,17.94a37.55,37.55,0,0,0,34.46,22.43h2.18a36.84,36.84,0,0,0,34.16-22.29c4.89-11.11,11.95-18.09,19.8-18.09,14.79,0,26.79,24.85,26.79,55.49C385.42,431.66,381.17,447.82,374.64,457.93ZM532.83,754.37c-7.82,0-14.85-7.11-19.76-18.45a37.57,37.57,0,0,0-34.5-23.09h-2.2c-14.86-.26-28.2,8.94-34.19,22.92-4.91,11.44-12,18.62-19.82,18.62-14.82,0-26.84-25.56-26.84-57.11,0-18.74,4.25-35.36,10.8-45.77a43.28,43.28,0,0,0,2.3-4.17c9.57-20,37.11-34.43,69.61-34.43,34.73,0,63.8,16.5,71.32,38.65a40.9,40.9,0,0,0,1.91,4.65c5,10.37,8.19,24.95,8.19,41.07C559.65,728.81,547.65,754.37,532.83,754.37ZM553,457.93a37.5,37.5,0,0,0-2.3,4c-9.56,19.43-37.07,33.46-69.51,33.46-34.69,0-63.72-16-71.24-37.55a39.65,39.65,0,0,0-1.9-4.52c-5-10.08-8.18-24.24-8.18-39.91,0-30.64,12-55.49,26.79-55.49,7.8,0,14.83,6.91,19.72,17.94a37.58,37.58,0,0,0,34.47,22.43h2.18a36.86,36.86,0,0,0,34.16-22.29C522.13,364.94,529.18,358,537,358c14.79,0,26.79,24.85,26.79,55.49C563.81,431.66,559.58,447.82,553,457.93ZM711.68,754.37c-7.82,0-14.85-7.11-19.75-18.45a37.57,37.57,0,0,0-34.51-23.09h-2.19c-14.85-.26-28.21,8.94-34.2,22.92-4.91,11.44-12,18.62-19.81,18.62-14.82,0-26.83-25.56-26.83-57.11,0-18.74,4.23-35.36,10.78-45.77a41.22,41.22,0,0,0,2.3-4.17c9.57-20,37.11-34.43,69.61-34.43,34.74,0,63.81,16.5,71.33,38.65a39,39,0,0,0,1.89,4.65c5.07,10.37,8.2,24.95,8.2,41.07C738.5,728.81,726.49,754.37,711.68,754.37Zm19.75-296.44a39.19,39.19,0,0,0-2.29,4c-9.56,19.43-37.06,33.46-69.51,33.46-34.68,0-63.73-16-71.24-37.55a39.65,39.65,0,0,0-1.9-4.52c-5-10.08-8.19-24.24-8.19-39.91,0-30.64,12-55.49,26.79-55.49,7.81,0,14.83,6.91,19.74,17.94a37.54,37.54,0,0,0,34.45,22.43h2.18a36.88,36.88,0,0,0,34.17-22.29c4.89-11.11,12-18.09,19.78-18.09,14.79,0,26.79,24.85,26.79,55.49C742.2,431.66,738,447.82,731.43,457.93ZM890.62,755.38c-7.81,0-14.84-7.12-19.75-18.46a37.57,37.57,0,0,0-34.5-23.09h-2.2c-14.85-.26-28.2,8.94-34.19,22.93-4.91,11.43-12,18.62-19.82,18.62-14.82,0-26.83-25.57-26.83-57.12,0-18.74,4.23-35.36,10.79-45.77a43.28,43.28,0,0,0,2.3-4.17c9.58-20,37.12-34.42,69.6-34.42,34.74,0,63.82,16.49,71.34,38.64a39.09,39.09,0,0,0,1.9,4.65c5,10.37,8.19,24.95,8.19,41.07C917.45,729.81,905.45,755.38,890.62,755.38ZM909,457.93a42.42,42.42,0,0,0-2.3,4c-9.56,19.43-37.06,33.46-69.51,33.46-34.69,0-63.72-16-71.24-37.55a39.65,39.65,0,0,0-1.9-4.52c-5-10.08-8.19-24.24-8.19-39.91,0-30.64,12-55.49,26.79-55.49,7.81,0,14.83,6.91,19.74,17.94a37.54,37.54,0,0,0,34.45,22.43H839a36.86,36.86,0,0,0,34.16-22.29C878.09,364.94,885.15,358,893,358c14.79,0,26.79,24.85,26.79,55.49C919.78,431.66,915.54,447.82,909,457.93Z"/></g><g id="Слой_2" data-name="Слой 2"><path class="cls-3" d="M94.41,106.34h15.35v34.17h-7.68V114.23H94.41Z"/><path class="cls-3" d="M113.13,106.34h33.25v7.89H120.8v5.24h25.58v21H113.13Zm7.67,21v5.27h17.91v-5.27Z"/></g></svg>