<svg xmlns="http://www.w3.org/2000/svg" xmlns:xlink="http://www.w3.org/1999/xlink" viewBox="0 0 222 238"><defs><style>.cls-1{stroke-miterlimit:10;fill:url(#Безымянный_градиент_48);stroke:url(#Безымянный_градиент_31);}.cls-2{fill:#252525;}.cls-3{font-size:49.21px;fill:#fff;font-family:PhageRegularKG, Phage Regular KG;}</style><linearGradient id="Безымянный_градиент_48" x1="-1698.39" y1="-43.81" x2="221.61" y2="-43.81" gradientUnits="userSpaceOnUse"><stop offset="0" stop-color="#5b2e83"/><stop offset="1" stop-color="#e07f32"/></linearGradient><linearGradient id="Безымянный_градиент_31" x1="-1698.89" y1="-43.81" x2="222.11" y2="-43.81" gradientUnits="userSpaceOnUse"><stop offset="0" stop-color="#5a2e84"/><stop offset="1" stop-color="#e07f32"/></linearGradient></defs><g id="Слой_4" data-name="Слой 4"><rect class="cls-1" x="-1698.39" y="-583.81" width="1920" height="1080"/></g><g id="Слой_5" data-name="Слой 5"><path class="cls-2" d="M-1699-584.15V497H222.44V-584.15ZM39.61-510.39c7.81,0,14.83,6.91,19.74,17.94A37.53,37.53,0,0,0,93.8-470h.35c.62,0,1.24,0,1.84,0a36.89,36.89,0,0,0,34.16-22.28c4.9-11.13,11.95-18.1,19.79-18.1,14.79,0,26.79,24.84,26.79,55.5,0,18.19-4.24,34.35-10.77,44.46a39.49,39.49,0,0,0-2.29,4.06c-9.57,19.42-37.07,33.44-69.52,33.44-34.68,0-63.72-16-71.24-37.55A38.76,38.76,0,0,0,21-415c-5-10.08-8.19-24.25-8.19-39.9C12.82-485.55,24.82-510.39,39.61-510.39Zm-17.29,290a42.48,42.48,0,0,0,2.3-4.18c9.58-20,37.12-34.42,69.61-34.42,34.73,0,63.81,16.49,71.34,38.65a38.89,38.89,0,0,0,1.89,4.64c5,10.37,8.2,24.95,8.2,41.07,0,31.55-12,57.12-26.82,57.12-7.83,0-14.86-7.11-19.76-18.46A37.54,37.54,0,0,0,94.57-159H92.38c-14.85-.25-28.21,9-34.19,22.93-4.92,11.44-12,18.62-19.82,18.62-14.82,0-26.83-25.57-26.83-57.12C11.54-193.32,15.78-209.95,22.32-220.35ZM-138-510.39c7.81,0,14.83,6.91,19.74,17.94A37.53,37.53,0,0,0-83.77-470h.35c.61,0,1.23,0,1.83,0a36.92,36.92,0,0,0,34.17-22.28c4.89-11.13,12-18.1,19.78-18.1,14.79,0,26.79,24.84,26.79,55.49,0,18.2-4.23,34.36-10.76,44.47a37.78,37.78,0,0,0-2.3,4.06c-9.56,19.42-37.06,33.44-69.51,33.44-34.68,0-63.73-16-71.24-37.55a38.76,38.76,0,0,0-1.9-4.51c-5.05-10.08-8.19-24.25-8.19-39.91C-164.75-485.55-152.75-510.39-138-510.39Zm-18.66,289a41.22,41.22,0,0,0,2.3-4.17c9.58-20,37.12-34.42,69.6-34.42,34.74,0,63.82,16.49,71.33,38.64a38.47,38.47,0,0,0,1.91,4.65c5.05,10.37,8.19,24.95,8.19,41.07,0,31.55-12,57.11-26.83,57.11-7.81,0-14.84-7.1-19.74-18.46A37.58,37.58,0,0,0-84.37-160h-2.19c-14.85-.25-28.21,9-34.21,22.92-4.9,11.45-12,18.62-19.81,18.62-14.82,0-26.82-25.56-26.82-57.11C-167.4-194.32-163.17-210.95-156.62-221.36Zm-159.73-289c7.8,0,14.83,6.91,19.72,17.94A37.58,37.58,0,0,0-262.16-470h.34c.62,0,1.23,0,1.84,0a36.89,36.89,0,0,0,34.16-22.28c4.9-11.13,11.95-18.1,19.79-18.1,14.79,0,26.79,24.84,26.79,55.49,0,18.2-4.23,34.36-10.77,44.47a37.78,37.78,0,0,0-2.3,4.06c-9.56,19.42-37.07,33.44-69.51,33.44-34.69,0-63.72-16-71.24-37.55A38.76,38.76,0,0,0-335-415c-5.05-10.08-8.18-24.25-8.18-39.91C-343.14-485.55-331.14-510.39-316.35-510.39Zm-19.13,289a41.22,41.22,0,0,0,2.3-4.17c9.58-20,37.12-34.42,69.62-34.42,34.72,0,63.8,16.49,71.32,38.64a40.1,40.1,0,0,0,1.9,4.65c5.06,10.37,8.2,24.95,8.2,41.07,0,31.55-12,57.11-26.83,57.11-7.82,0-14.84-7.1-19.75-18.46A37.56,37.56,0,0,0-263.22-160h-2.19c-14.87-.25-28.22,9-34.21,22.92-4.9,11.45-12,18.62-19.82,18.62-14.81,0-26.83-25.56-26.83-57.11C-346.27-194.32-342-210.95-335.48-221.36Zm-159.27-289c7.81,0,14.83,6.91,19.73,17.94A37.54,37.54,0,0,0-440.56-470h.34c.62,0,1.23,0,1.85,0a36.87,36.87,0,0,0,34.15-22.28c4.89-11.13,12-18.1,19.8-18.1,14.79,0,26.79,24.84,26.79,55.49,0,18.2-4.24,34.36-10.78,44.47a39.49,39.49,0,0,0-2.29,4.06c-9.56,19.42-37.08,33.44-69.52,33.44-34.69,0-63.72-16-71.23-37.55a38.76,38.76,0,0,0-1.9-4.51c-5-10.08-8.19-24.25-8.19-39.91C-521.54-485.55-509.54-510.39-494.75-510.39Zm-19.36,289a43.28,43.28,0,0,0,2.3-4.17c9.57-20,37.12-34.42,69.6-34.42,34.74,0,63.81,16.49,71.33,38.64a40.16,40.16,0,0,0,1.91,4.65c5.05,10.37,8.19,24.95,8.19,41.07,0,31.55-12,57.11-26.83,57.11-7.81,0-14.85-7.1-19.75-18.46A37.58,37.58,0,0,0-441.86-160h-2.2c-14.86-.25-28.2,9-34.19,22.92-4.91,11.45-12,18.62-19.82,18.62-14.82,0-26.84-25.56-26.84-57.11C-524.91-194.32-520.67-210.95-514.11-221.36Zm-159.25-289c7.8,0,14.83,6.91,19.72,17.94A37.57,37.57,0,0,0-619.18-470h.35c.62,0,1.23,0,1.84,0a36.89,36.89,0,0,0,34.16-22.28c4.9-11.13,12-18.1,19.79-18.1,14.79,0,26.79,24.84,26.79,55.49,0,18.2-4.23,34.36-10.78,44.47a41.45,41.45,0,0,0-2.29,4.06c-9.56,19.42-37.07,33.44-69.51,33.44-34.69,0-63.72-16-71.23-37.55A38.76,38.76,0,0,0-692-415c-5-10.08-8.19-24.25-8.19-39.91C-700.15-485.55-688.15-510.39-673.36-510.39Zm-19.4,289a39.34,39.34,0,0,0,2.3-4.17c9.57-20,37.12-34.42,69.61-34.42,34.73,0,63.81,16.49,71.33,38.64a40.1,40.1,0,0,0,1.9,4.65c5.06,10.37,8.2,24.95,8.2,41.07,0,31.55-12,57.11-26.83,57.11-7.82,0-14.85-7.1-19.75-18.46A37.56,37.56,0,0,0-620.5-160h-2.19c-14.86-.25-28.21,9-34.21,22.92-4.9,11.45-12,18.62-19.81,18.62-14.81,0-26.83-25.56-26.83-57.11C-703.54-194.32-699.3-210.95-692.76-221.36Zm-933.75-289c7.81,0,14.84,6.91,19.73,17.94A37.54,37.54,0,0,0-1572.32-470h.35c.62,0,1.22,0,1.84,0A36.87,36.87,0,0,0-1536-492.29c4.9-11.13,12-18.1,19.8-18.1,14.79,0,26.79,24.84,26.79,55.49,0,18.2-4.24,34.36-10.78,44.47a37.7,37.7,0,0,0-2.29,4.06c-9.56,19.42-37.08,33.44-69.51,33.44-34.7,0-63.73-16-71.24-37.55a38.76,38.76,0,0,0-1.9-4.51c-5.05-10.08-8.19-24.25-8.19-39.91C-1653.3-485.55-1641.3-510.39-1626.51-510.39ZM-1516,423.53c-7.82,0-14.85-7.11-19.75-18.46a37.56,37.56,0,0,0-34.5-23.07h-2.2c-14.86-.25-28.21,8.95-34.2,22.92-4.9,11.44-12,18.62-19.82,18.62-14.81,0-26.83-25.57-26.83-57.11,0-18.73,4.25-35.37,10.79-45.77a41.13,41.13,0,0,0,2.29-4.17c9.58-20,37.13-34.42,69.62-34.42,34.73,0,63.8,16.49,71.33,38.64a40.84,40.84,0,0,0,1.9,4.65c5.06,10.37,8.2,24.94,8.2,41.07C-1489.13,398-1501.15,423.53-1516,423.53Zm16.28-295.75a37.42,37.42,0,0,0-2.29,4c-9.56,19.43-37.08,33.46-69.51,33.46-34.7,0-63.73-16-71.24-37.55a38.19,38.19,0,0,0-1.9-4.52c-5.05-10.08-8.19-24.24-8.19-39.91,0-30.64,12-55.49,26.79-55.49,7.81,0,14.84,6.91,19.73,17.94a37.56,37.56,0,0,0,34.46,22.42h2.19a36.84,36.84,0,0,0,34.15-22.28c4.9-11.11,12-18.09,19.8-18.09,14.79,0,26.79,24.85,26.79,55.49C-1488.9,101.51-1493.14,117.67-1499.68,127.78Zm-15.51-246.94c-7.82,0-14.85-7.11-19.76-18.47a37.57,37.57,0,0,0-34.49-23.07h-2.2c-14.86-.25-28.21,9-34.2,22.92-4.9,11.45-12,18.63-19.82,18.63-14.82,0-26.84-25.57-26.84-57.12,0-18.73,4.25-35.36,10.8-45.77a41,41,0,0,0,2.29-4.16c9.58-20,37.13-34.43,69.61-34.43,34.74,0,63.81,16.5,71.33,38.64a39.45,39.45,0,0,0,1.91,4.65c5.06,10.38,8.2,25,8.2,41.07C-1488.36-144.73-1500.38-119.16-1515.19-119.16Zm67.3-391.23c7.8,0,14.83,6.91,19.71,17.94A37.58,37.58,0,0,0-1393.71-470h.35c.61,0,1.23,0,1.83,0a36.92,36.92,0,0,0,34.17-22.28c4.89-11.13,11.95-18.1,19.78-18.1,14.79,0,26.79,24.84,26.79,55.49,0,18.2-4.23,34.36-10.77,44.47a39.49,39.49,0,0,0-2.29,4.06c-9.57,19.42-37.08,33.44-69.51,33.44-34.7,0-63.73-16-71.23-37.55a40.7,40.7,0,0,0-1.92-4.51c-5-10.08-8.17-24.25-8.17-39.91C-1474.68-485.55-1462.68-510.39-1447.89-510.39Zm110.57,933.92c-7.81,0-14.85-7.11-19.75-18.46a37.58,37.58,0,0,0-34.5-23.07h-2.2c-14.86-.25-28.2,8.95-34.2,22.92-4.9,11.44-12,18.62-19.81,18.62-14.82,0-26.84-25.57-26.84-57.11,0-18.73,4.24-35.37,10.8-45.77a43.28,43.28,0,0,0,2.3-4.17c9.57-20,37.12-34.42,69.6-34.42,34.74,0,63.81,16.49,71.32,38.64a39.21,39.21,0,0,0,1.92,4.65c5,10.37,8.19,24.94,8.19,41.07C-1310.49,398-1322.51,423.53-1337.32,423.53Zm16.24-295.75a41.05,41.05,0,0,0-2.28,4c-9.57,19.43-37.08,33.46-69.51,33.46-34.7,0-63.73-16-71.23-37.55a38.31,38.31,0,0,0-1.92-4.52c-5-10.08-8.17-24.24-8.17-39.91,0-30.64,12-55.49,26.79-55.49,7.8,0,14.83,6.91,19.71,17.94a37.59,37.59,0,0,0,34.47,22.42h2.18a36.89,36.89,0,0,0,34.17-22.28c4.89-11.11,11.95-18.09,19.78-18.09,14.79,0,26.79,24.85,26.79,55.49C-1310.3,101.51-1314.53,117.67-1321.08,127.78Zm-15.48-246.94c-7.81,0-14.85-7.11-19.74-18.47a37.6,37.6,0,0,0-34.51-23.07H-1393c-14.86-.25-28.21,9-34.2,22.92-4.91,11.45-12,18.63-19.82,18.63-14.81,0-26.83-25.57-26.83-57.12,0-18.73,4.24-35.36,10.79-45.77a41.06,41.06,0,0,0,2.3-4.16c9.57-20,37.12-34.43,69.61-34.43,34.73,0,63.8,16.5,71.32,38.64a39.45,39.45,0,0,0,1.91,4.65c5.05,10.38,8.19,25,8.19,41.07C-1309.73-144.73-1321.75-119.16-1336.56-119.16Zm67.06-391.23c7.81,0,14.83,6.91,19.73,17.94A37.54,37.54,0,0,0-1215.31-470h.34c.62,0,1.23,0,1.84,0A36.87,36.87,0,0,0-1179-492.29c4.9-11.13,12-18.1,19.79-18.1,14.8,0,26.79,24.84,26.79,55.49,0,18.2-4.24,34.36-10.76,44.47a37.78,37.78,0,0,0-2.3,4.06c-9.57,19.42-37.08,33.44-69.52,33.44-34.68,0-63.72-16-71.23-37.55a38.76,38.76,0,0,0-1.9-4.51c-5.06-10.08-8.19-24.25-8.19-39.91C-1296.29-485.55-1284.29-510.39-1269.5-510.39Zm110.82,933.92c-7.82,0-14.85-7.11-19.75-18.46A37.57,37.57,0,0,0-1212.94,382h-2.19c-14.86-.25-28.21,8.95-34.2,22.92-4.91,11.44-12,18.62-19.82,18.62-14.81,0-26.83-25.57-26.83-57.11,0-18.73,4.25-35.37,10.79-45.77a41.22,41.22,0,0,0,2.3-4.17c9.58-20,37.12-34.42,69.61-34.42,34.73,0,63.81,16.49,71.33,38.64a40.84,40.84,0,0,0,1.9,4.65c5,10.37,8.2,24.94,8.2,41.07C-1131.85,398-1143.86,423.53-1158.68,423.53ZM-1295.8,83.3c0-30.64,12-55.49,26.79-55.49,7.81,0,14.83,6.91,19.73,17.94a37.56,37.56,0,0,0,34.46,22.42h2.18a36.85,36.85,0,0,0,34.16-22.28c4.9-11.11,12-18.09,19.8-18.09,14.79,0,26.79,24.85,26.79,55.49,0,18.21-4.25,34.37-10.77,44.48a37.5,37.5,0,0,0-2.3,4c-9.57,19.43-37.08,33.46-69.52,33.46-34.68,0-63.72-16-71.23-37.55a38.25,38.25,0,0,0-1.91-4.52C-1292.67,113.13-1295.8,99-1295.8,83.3Zm137.89-202.46c-7.82,0-14.85-7.11-19.76-18.47a37.57,37.57,0,0,0-34.49-23.07h-2.21c-14.85-.25-28.2,9-34.19,22.92-4.91,11.45-12,18.63-19.82,18.63-14.82,0-26.84-25.57-26.84-57.12,0-18.73,4.25-35.36,10.8-45.77a43.12,43.12,0,0,0,2.3-4.16c9.58-20,37.12-34.43,69.6-34.43,34.74,0,63.82,16.5,71.33,38.64a39.45,39.45,0,0,0,1.91,4.65c5,10.38,8.2,25,8.2,41.07C-1131.08-144.73-1143.09-119.16-1157.91-119.16Zm66.81-391.23c7.8,0,14.83,6.91,19.73,17.94A37.54,37.54,0,0,0-1036.91-470h.34c.62,0,1.23,0,1.84,0a36.89,36.89,0,0,0,34.16-22.28c4.9-11.13,12-18.1,19.79-18.1,14.79,0,26.79,24.84,26.79,55.49,0,18.2-4.23,34.36-10.77,44.47a39.57,39.57,0,0,0-2.3,4.06c-9.56,19.42-37.07,33.44-69.51,33.44-34.69,0-63.72-16-71.24-37.55a38.76,38.76,0,0,0-1.9-4.51c-5-10.08-8.18-24.25-8.18-39.91C-1117.89-485.55-1105.9-510.39-1091.1-510.39Zm111.27,933.92c-7.82,0-14.84-7.11-19.75-18.46a37.55,37.55,0,0,0-34.5-23.07h-2.19c-14.85-.25-28.21,8.95-34.21,22.92-4.9,11.44-12,18.62-19.81,18.62-14.82,0-26.82-25.57-26.82-57.11,0-18.73,4.23-35.37,10.77-45.77a39.42,39.42,0,0,0,2.31-4.17c9.57-20,37.11-34.42,69.6-34.42,34.73,0,63.82,16.49,71.33,38.64a40.84,40.84,0,0,0,1.9,4.65c5.06,10.37,8.2,24.94,8.2,41.07C-953,398-965,423.53-979.83,423.53ZM-1117.4,83.3c0-30.64,12-55.49,26.79-55.49,7.8,0,14.83,6.91,19.73,17.94a37.56,37.56,0,0,0,34.46,22.42h2.18a36.84,36.84,0,0,0,34.15-22.28c4.91-11.11,12-18.09,19.8-18.09,14.79,0,26.79,24.85,26.79,55.49,0,18.21-4.23,34.37-10.77,44.48a39.28,39.28,0,0,0-2.3,4c-9.56,19.43-37.07,33.46-69.51,33.46-34.69,0-63.73-16-71.24-37.55a38.19,38.19,0,0,0-1.9-4.52C-1114.27,113.13-1117.4,99-1117.4,83.3Zm138.34-202.46c-7.82,0-14.84-7.11-19.75-18.47a37.58,37.58,0,0,0-34.5-23.07h-2.2c-14.85-.25-28.2,9-34.2,22.92-4.9,11.45-12,18.63-19.81,18.63-14.82,0-26.83-25.57-26.83-57.12,0-18.73,4.23-35.36,10.78-45.77a41.15,41.15,0,0,0,2.31-4.16c9.56-20,37.11-34.43,69.6-34.43,34.73,0,63.81,16.5,71.33,38.64a37.76,37.76,0,0,0,1.9,4.65c5.06,10.38,8.19,25,8.19,41.07C-952.24-144.73-964.24-119.16-979.06-119.16Zm65.53-391.23c7.8,0,14.83,6.91,19.73,17.94A37.54,37.54,0,0,0-859.34-470h.34c.62,0,1.23,0,1.84,0A36.89,36.89,0,0,0-823-492.29c4.9-11.13,12-18.1,19.79-18.1,14.79,0,26.79,24.84,26.79,55.5,0,18.19-4.23,34.35-10.77,44.46a39.57,39.57,0,0,0-2.3,4.06c-9.56,19.42-37.07,33.44-69.51,33.44-34.69,0-63.72-16-71.23-37.55a38.76,38.76,0,0,0-1.9-4.51c-5.06-10.08-8.19-24.25-8.19-39.9C-940.32-485.55-928.32-510.39-913.53-510.39Zm112.65,934.92c-7.82,0-14.85-7.1-19.75-18.46A37.57,37.57,0,0,0-855.14,383h-2.19c-14.85-.25-28.21,8.95-34.19,22.92-4.92,11.45-12,18.62-19.82,18.62-14.82,0-26.83-25.56-26.83-57.11,0-18.73,4.23-35.37,10.78-45.77a41.22,41.22,0,0,0,2.3-4.17c9.58-20,37.12-34.42,69.61-34.42,34.73,0,63.81,16.49,71.34,38.64a39,39,0,0,0,1.89,4.65c5,10.37,8.19,24.94,8.19,41.07C-774.06,399-786.07,424.53-800.88,424.53Zm-139-332.84c0-30.65,12-55.5,26.79-55.5,7.81,0,14.83,6.92,19.73,17.94a37.54,37.54,0,0,0,34.46,22.42h.34c.62,0,1.23,0,1.84,0a36.89,36.89,0,0,0,34.16-22.28c4.9-11.12,12-18.1,19.79-18.1,14.79,0,26.79,24.85,26.79,55.5,0,18.2-4.23,34.35-10.77,44.47a39.42,39.42,0,0,0-2.3,4.05c-9.55,19.42-37.07,33.45-69.51,33.45-34.69,0-63.73-16-71.23-37.55a38.19,38.19,0,0,0-1.9-4.52C-936.7,121.51-939.83,107.34-939.83,91.69Zm139.71-209.85c-7.81,0-14.84-7.11-19.74-18.47a37.59,37.59,0,0,0-34.51-23.07h-2.19c-14.85-.25-28.21,9-34.2,22.92-4.91,11.45-12,18.63-19.82,18.63-14.82,0-26.83-25.57-26.83-57.12,0-18.73,4.23-35.35,10.79-45.77a41.06,41.06,0,0,0,2.3-4.16c9.58-20,37.12-34.43,69.6-34.43,34.74,0,63.82,16.5,71.34,38.64a39.4,39.4,0,0,0,1.9,4.65c5.05,10.38,8.19,25,8.19,41.07C-773.29-143.73-785.29-118.16-800.12-118.16ZM-567,424.22c-7.82,0-14.85-7.12-19.76-18.46a37.57,37.57,0,0,0-34.5-23.08h-2.19c-14.86-.26-28.2,8.94-34.2,22.92-4.9,11.43-12,18.62-19.82,18.62-14.82,0-26.83-25.56-26.83-57.11,0-18.74,4.24-35.37,10.79-45.78a42,42,0,0,0,2.3-4.16c9.57-20,37.11-34.43,69.6-34.43,34.74,0,63.82,16.5,71.33,38.64a41.05,41.05,0,0,0,1.91,4.66c5.06,10.37,8.19,24.94,8.19,41.07C-540.19,398.66-552.2,424.22-567,424.22Zm20.47-296.07a39.34,39.34,0,0,0-2.29,4c-9.55,19.42-37.07,33.45-69.51,33.45-34.69,0-63.72-16-71.23-37.55a38.91,38.91,0,0,0-1.9-4.52c-5-10.08-8.19-24.24-8.19-39.9,0-30.65,12-55.5,26.79-55.5,7.81,0,14.83,6.92,19.72,17.94a37.57,37.57,0,0,0,34.46,22.42h.35c.62,0,1.23,0,1.84,0a36.89,36.89,0,0,0,34.16-22.28c4.89-11.12,12-18.1,19.79-18.1,14.79,0,26.79,24.85,26.79,55.5C-535.76,101.88-540,118-546.54,128.15Zm158.16,296.07c-7.81,0-14.85-7.12-19.74-18.46a37.6,37.6,0,0,0-34.51-23.08h-2.19c-14.86-.26-28.21,8.94-34.21,22.92-4.9,11.43-12,18.62-19.81,18.62-14.81,0-26.83-25.56-26.83-57.11,0-18.74,4.24-35.37,10.79-45.78a40,40,0,0,0,2.3-4.16c9.57-20,37.12-34.43,69.61-34.43,34.73,0,63.8,16.5,71.33,38.64a41,41,0,0,0,1.9,4.66c5.05,10.37,8.19,24.94,8.19,41.07C-361.55,398.66-373.57,424.22-388.38,424.22Zm20.46-296.44a39.19,39.19,0,0,0-2.29,4c-9.57,19.43-37.08,33.46-69.52,33.46-34.69,0-63.72-16-71.23-37.55a38.19,38.19,0,0,0-1.9-4.52C-517.91,113.13-521,99-521,83.3c0-30.64,12-55.49,26.79-55.49,7.81,0,14.83,6.91,19.73,17.94a37.56,37.56,0,0,0,34.46,22.42h2.19A36.84,36.84,0,0,0-403.73,45.9c4.89-11.11,12-18.09,19.8-18.09,14.79,0,26.79,24.85,26.79,55.49C-357.14,101.51-361.39,117.67-367.92,127.78Zm158.19,296.44c-7.82,0-14.84-7.12-19.76-18.46A37.57,37.57,0,0,0-264,382.68h-2.2c-14.86-.26-28.2,8.94-34.19,22.92-4.9,11.43-12,18.62-19.82,18.62-14.82,0-26.84-25.56-26.84-57.11,0-18.74,4.25-35.37,10.8-45.78a42,42,0,0,0,2.3-4.16c9.57-20,37.11-34.43,69.61-34.43,34.73,0,63.8,16.5,71.32,38.64A41.05,41.05,0,0,0-191.1,326c5,10.37,8.19,24.94,8.19,41.07C-182.91,398.66-194.91,424.22-209.73,424.22Zm20.21-296.44a37.5,37.5,0,0,0-2.3,4c-9.56,19.43-37.07,33.46-69.51,33.46-34.69,0-63.72-16-71.24-37.55a38.19,38.19,0,0,0-1.9-4.52c-5-10.08-8.18-24.24-8.18-39.91,0-30.64,12-55.49,26.79-55.49,7.8,0,14.83,6.91,19.72,17.94a37.58,37.58,0,0,0,34.47,22.42h2.18A36.89,36.89,0,0,0-225.32,45.9c4.89-11.11,11.94-18.09,19.78-18.09,14.79,0,26.79,24.85,26.79,55.49C-178.75,101.51-183,117.67-189.52,127.78ZM-30.88,424.22c-7.81,0-14.85-7.12-19.75-18.46a37.58,37.58,0,0,0-34.51-23.08h-2.19c-14.85-.26-28.21,8.94-34.2,22.92-4.91,11.43-12,18.62-19.81,18.62-14.82,0-26.83-25.56-26.83-57.11,0-18.74,4.23-35.37,10.78-45.78a40,40,0,0,0,2.3-4.16c9.57-20,37.12-34.43,69.61-34.43,34.74,0,63.81,16.5,71.33,38.64A39.17,39.17,0,0,0-12.26,326c5.07,10.37,8.2,24.94,8.2,41.07C-4.06,398.66-16.07,424.22-30.88,424.22Zm19.76-296.44a39.28,39.28,0,0,0-2.3,4c-9.56,19.43-37.06,33.46-69.51,33.46-34.68,0-63.73-16-71.24-37.55a38.19,38.19,0,0,0-1.9-4.52c-5.05-10.08-8.19-24.24-8.19-39.91,0-30.64,12-55.49,26.79-55.49,7.81,0,14.83,6.91,19.74,17.94A37.54,37.54,0,0,0-83.28,68.17h2.18A36.89,36.89,0,0,0-46.93,45.9C-42,34.79-35,27.81-27.15,27.81-12.36,27.81-.36,52.66-.36,83.3-.36,101.51-4.59,117.67-11.12,127.78ZM148.07,425.22c-7.82,0-14.85-7.11-19.76-18.46a37.55,37.55,0,0,0-34.5-23.08h-2.2c-14.85-.26-28.2,8.94-34.19,22.92-4.91,11.44-12,18.62-19.82,18.62-14.82,0-26.83-25.56-26.83-57.11,0-18.74,4.24-35.37,10.79-45.78a42,42,0,0,0,2.3-4.16c9.58-20,37.12-34.43,69.6-34.43,34.74,0,63.82,16.5,71.34,38.64a38.56,38.56,0,0,0,1.9,4.66c5.05,10.37,8.2,24.95,8.2,41.07C174.9,399.66,162.89,425.22,148.07,425.22Zm18.38-297.44a42.42,42.42,0,0,0-2.3,4c-9.56,19.43-37.06,33.46-69.5,33.46-34.7,0-63.73-16-71.25-37.55a38.19,38.19,0,0,0-1.9-4.52c-5-10.08-8.19-24.24-8.19-39.91,0-30.64,12-55.49,26.79-55.49,7.81,0,14.84,6.91,19.74,17.94A37.54,37.54,0,0,0,94.29,68.17h2.19A36.86,36.86,0,0,0,130.64,45.9c4.9-11.11,12-18.09,19.79-18.09,14.79,0,26.79,24.85,26.79,55.49C177.22,101.51,173,117.67,166.45,127.78Z"/></g><g id="Слой_2" data-name="Слой 2"><text class="cls-3" transform="translate(55.51 124.45)">25</text></g></svg>