<svg xmlns="http://www.w3.org/2000/svg" xmlns:xlink="http://www.w3.org/1999/xlink" viewBox="0 0 193 254"><defs><style>.cls-1{stroke-miterlimit:10;fill:url(#Безымянный_градиент_48);stroke:url(#Безымянный_градиент_31);}.cls-2{fill:#252525;}.cls-3{fill:#fff;}</style><linearGradient id="Безымянный_градиент_48" x1="-387.39" y1="540.19" x2="1532.61" y2="540.19" gradientUnits="userSpaceOnUse"><stop offset="0" stop-color="#5b2e83"/><stop offset="1" stop-color="#e07f32"/></linearGradient><linearGradient id="Безымянный_градиент_31" x1="-387.89" y1="540.19" x2="1533.11" y2="540.19" gradientUnits="userSpaceOnUse"><stop offset="0" stop-color="#5a2e84"/><stop offset="1" stop-color="#e07f32"/></linearGradient></defs><g id="Слой_4" data-name="Слой 4"><rect class="cls-1" x="-387.39" y="0.19" width="1920" height="1080"/></g><g id="Слой_5" data-name="Слой 5"><path class="cls-2" d="M-388-.15V1081H1533.44V-.15ZM1350.61,73.61c7.81,0,14.83,6.91,19.74,17.94A37.53,37.53,0,0,0,1404.8,114h.35c.62,0,1.24,0,1.84,0a36.89,36.89,0,0,0,34.16-22.28c4.9-11.13,11.95-18.1,19.79-18.1,14.79,0,26.79,24.84,26.79,55.5,0,18.19-4.24,34.35-10.77,44.46a39.49,39.49,0,0,0-2.29,4.06c-9.57,19.42-37.07,33.44-69.52,33.44-34.68,0-63.72-16-71.24-37.55A38.76,38.76,0,0,0,1332,169c-5-10.08-8.19-24.25-8.19-39.9C1323.82,98.45,1335.82,73.61,1350.61,73.61Zm-17.29,290a42.48,42.48,0,0,0,2.3-4.18c9.58-20,37.12-34.42,69.61-34.42,34.73,0,63.81,16.49,71.34,38.65a38.89,38.89,0,0,0,1.89,4.64c5,10.37,8.2,25,8.2,41.07,0,31.55-12,57.12-26.82,57.12-7.83,0-14.86-7.11-19.76-18.46A37.54,37.54,0,0,0,1405.57,425h-2.19c-14.85-.25-28.21,8.95-34.19,22.93-4.92,11.44-12,18.62-19.82,18.62-14.82,0-26.83-25.57-26.83-57.12C1322.54,390.68,1326.78,374.05,1333.32,363.65ZM1173,73.61c7.81,0,14.83,6.91,19.74,17.94A37.53,37.53,0,0,0,1227.23,114h.35c.61,0,1.23,0,1.83,0a36.92,36.92,0,0,0,34.17-22.28c4.89-11.13,12-18.1,19.78-18.1,14.79,0,26.79,24.84,26.79,55.49,0,18.2-4.23,34.36-10.76,44.47a37.78,37.78,0,0,0-2.3,4.06c-9.56,19.42-37.06,33.44-69.51,33.44-34.68,0-63.73-16-71.24-37.55a38.76,38.76,0,0,0-1.9-4.51c-5-10.08-8.19-24.25-8.19-39.91C1146.25,98.45,1158.25,73.61,1173,73.61Zm-18.66,289a41.22,41.22,0,0,0,2.3-4.17c9.58-20,37.12-34.42,69.6-34.42,34.74,0,63.82,16.49,71.33,38.64a38.47,38.47,0,0,0,1.91,4.65c5,10.37,8.19,25,8.19,41.07,0,31.55-12,57.11-26.83,57.11-7.81,0-14.84-7.1-19.74-18.46A37.58,37.58,0,0,0,1226.63,424h-2.19c-14.85-.25-28.21,8.95-34.21,22.92-4.9,11.45-12,18.62-19.81,18.62-14.82,0-26.82-25.56-26.82-57.11C1143.6,389.68,1147.83,373.05,1154.38,362.64Zm-159.73-289c7.8,0,14.83,6.91,19.72,17.94A37.58,37.58,0,0,0,1048.84,114h.34c.62,0,1.23,0,1.84,0a36.89,36.89,0,0,0,34.16-22.28c4.9-11.13,12-18.1,19.79-18.1,14.79,0,26.79,24.84,26.79,55.49,0,18.2-4.23,34.36-10.77,44.47a37.78,37.78,0,0,0-2.3,4.06c-9.56,19.42-37.07,33.44-69.51,33.44-34.69,0-63.72-16-71.24-37.55A38.76,38.76,0,0,0,976,169c-5-10.08-8.18-24.25-8.18-39.91C967.86,98.45,979.86,73.61,994.65,73.61Zm-19.13,289a41.22,41.22,0,0,0,2.3-4.17c9.58-20,37.12-34.42,69.62-34.42,34.72,0,63.8,16.49,71.32,38.64a40.1,40.1,0,0,0,1.9,4.65c5.06,10.37,8.2,25,8.2,41.07,0,31.55-12,57.11-26.83,57.11-7.82,0-14.84-7.1-19.75-18.46a37.56,37.56,0,0,0-34.5-23.07h-2.19c-14.87-.25-28.22,8.95-34.21,22.92-4.9,11.45-12,18.62-19.82,18.62-14.81,0-26.83-25.56-26.83-57.11C964.73,389.68,969,373.05,975.52,362.64Zm-159.27-289c7.81,0,14.83,6.91,19.73,17.94A37.54,37.54,0,0,0,870.44,114h.34c.62,0,1.23,0,1.85,0a36.87,36.87,0,0,0,34.15-22.28c4.89-11.13,12-18.1,19.8-18.1,14.79,0,26.79,24.84,26.79,55.49,0,18.2-4.24,34.36-10.78,44.47a39.49,39.49,0,0,0-2.29,4.06c-9.56,19.42-37.08,33.44-69.52,33.44-34.69,0-63.72-16-71.23-37.55a38.76,38.76,0,0,0-1.9-4.51c-5-10.08-8.19-24.25-8.19-39.91C789.46,98.45,801.46,73.61,816.25,73.61Zm-19.36,289a43.28,43.28,0,0,0,2.3-4.17c9.57-20,37.12-34.42,69.6-34.42,34.74,0,63.81,16.49,71.33,38.64a40.16,40.16,0,0,0,1.91,4.65c5.05,10.37,8.19,25,8.19,41.07,0,31.55-12,57.11-26.83,57.11-7.81,0-14.85-7.1-19.75-18.46A37.58,37.58,0,0,0,869.14,424h-2.2c-14.86-.25-28.2,8.95-34.19,22.92-4.91,11.45-12,18.62-19.82,18.62-14.82,0-26.84-25.56-26.84-57.11C786.09,389.68,790.33,373.05,796.89,362.64Zm-159.25-289c7.8,0,14.83,6.91,19.72,17.94A37.57,37.57,0,0,0,691.82,114h.35c.62,0,1.23,0,1.84,0a36.89,36.89,0,0,0,34.16-22.28c4.9-11.13,12-18.1,19.79-18.1,14.79,0,26.79,24.84,26.79,55.49,0,18.2-4.23,34.36-10.78,44.47a41.45,41.45,0,0,0-2.29,4.06c-9.56,19.42-37.07,33.44-69.51,33.44-34.69,0-63.72-16-71.23-37.55A38.76,38.76,0,0,0,619,169c-5-10.08-8.19-24.25-8.19-39.91C610.85,98.45,622.85,73.61,637.64,73.61Zm-19.4,289a39.34,39.34,0,0,0,2.3-4.17c9.57-20,37.12-34.42,69.61-34.42,34.73,0,63.81,16.49,71.33,38.64a40.1,40.1,0,0,0,1.9,4.65c5.06,10.37,8.2,25,8.2,41.07,0,31.55-12,57.11-26.83,57.11-7.82,0-14.85-7.1-19.75-18.46A37.56,37.56,0,0,0,690.5,424h-2.19c-14.86-.25-28.21,8.95-34.21,22.92-4.9,11.45-12,18.62-19.81,18.62-14.81,0-26.83-25.56-26.83-57.11C607.46,389.68,611.7,373.05,618.24,362.64Zm-933.75-289c7.81,0,14.84,6.91,19.73,17.94A37.54,37.54,0,0,0-261.32,114h.35c.62,0,1.22,0,1.84,0A36.87,36.87,0,0,0-225,91.71c4.9-11.13,12-18.1,19.8-18.1,14.79,0,26.79,24.84,26.79,55.49,0,18.2-4.24,34.36-10.78,44.47a37.7,37.7,0,0,0-2.29,4.06c-9.56,19.42-37.08,33.44-69.51,33.44-34.7,0-63.73-16-71.24-37.55a38.76,38.76,0,0,0-1.9-4.51c-5.05-10.08-8.19-24.25-8.19-39.91C-342.3,98.45-330.3,73.61-315.51,73.61ZM-205,1007.53c-7.82,0-14.85-7.11-19.75-18.46A37.56,37.56,0,0,0-259.21,966h-2.2c-14.86-.25-28.21,9-34.2,22.92-4.9,11.44-12,18.62-19.82,18.62-14.81,0-26.83-25.57-26.83-57.11,0-18.73,4.25-35.37,10.79-45.77a41.13,41.13,0,0,0,2.29-4.17c9.58-20,37.13-34.42,69.62-34.42,34.73,0,63.8,16.49,71.33,38.64a40.84,40.84,0,0,0,1.9,4.65c5.06,10.37,8.2,24.94,8.2,41.07C-178.13,982-190.15,1007.53-205,1007.53Zm16.28-295.75a37.42,37.42,0,0,0-2.29,4c-9.56,19.43-37.08,33.46-69.51,33.46-34.7,0-63.73-16-71.24-37.55a38.19,38.19,0,0,0-1.9-4.52c-5.05-10.08-8.19-24.24-8.19-39.91,0-30.64,12-55.49,26.79-55.49,7.81,0,14.84,6.91,19.73,17.94a37.56,37.56,0,0,0,34.46,22.42h2.19a36.84,36.84,0,0,0,34.15-22.28c4.9-11.11,12-18.09,19.8-18.09,14.79,0,26.79,24.85,26.79,55.49C-177.9,685.51-182.14,701.67-188.68,711.78Zm-15.51-246.94c-7.82,0-14.85-7.11-19.76-18.47a37.57,37.57,0,0,0-34.49-23.07h-2.2c-14.86-.25-28.21,8.95-34.2,22.92-4.9,11.45-12,18.63-19.82,18.63-14.82,0-26.84-25.57-26.84-57.12,0-18.73,4.25-35.36,10.8-45.77a41,41,0,0,0,2.29-4.16c9.58-20,37.13-34.43,69.61-34.43,34.74,0,63.81,16.5,71.33,38.64a39.45,39.45,0,0,0,1.91,4.65c5.06,10.38,8.2,25,8.2,41.07C-177.36,439.27-189.38,464.84-204.19,464.84Zm67.3-391.23c7.8,0,14.83,6.91,19.71,17.94A37.58,37.58,0,0,0-82.71,114h.35c.61,0,1.23,0,1.83,0A36.92,36.92,0,0,0-46.36,91.71c4.89-11.13,12-18.1,19.78-18.1C-11.79,73.61.21,98.45.21,129.1c0,18.2-4.23,34.36-10.77,44.47a39.49,39.49,0,0,0-2.29,4.06c-9.57,19.42-37.08,33.44-69.51,33.44-34.7,0-63.73-16-71.23-37.55a40.7,40.7,0,0,0-1.92-4.51c-5-10.08-8.17-24.25-8.17-39.91C-163.68,98.45-151.68,73.61-136.89,73.61Zm110.57,933.92c-7.81,0-14.85-7.11-19.75-18.46A37.58,37.58,0,0,0-80.57,966h-2.2c-14.86-.25-28.2,9-34.2,22.92-4.9,11.44-12,18.62-19.81,18.62-14.82,0-26.84-25.57-26.84-57.11,0-18.73,4.24-35.37,10.8-45.77a43.28,43.28,0,0,0,2.3-4.17c9.57-20,37.12-34.42,69.6-34.42,34.74,0,63.81,16.49,71.32,38.64a39.21,39.21,0,0,0,1.92,4.65C-2.63,919.72.51,934.29.51,950.42.51,982-11.51,1007.53-26.32,1007.53Zm16.24-295.75a41.05,41.05,0,0,0-2.28,4c-9.57,19.43-37.08,33.46-69.51,33.46-34.7,0-63.73-16-71.23-37.55a38.31,38.31,0,0,0-1.92-4.52c-5-10.08-8.17-24.24-8.17-39.91,0-30.64,12-55.49,26.79-55.49,7.8,0,14.83,6.91,19.71,17.94a37.59,37.59,0,0,0,34.47,22.42H-80A36.89,36.89,0,0,0-45.87,629.9c4.89-11.11,11.95-18.09,19.78-18.09C-11.3,611.81.7,636.66.7,667.3.7,685.51-3.53,701.67-10.08,711.78ZM-25.56,464.84c-7.81,0-14.85-7.11-19.74-18.47A37.6,37.6,0,0,0-79.81,423.3H-82c-14.86-.25-28.21,8.95-34.2,22.92-4.91,11.45-12,18.63-19.82,18.63-14.81,0-26.83-25.57-26.83-57.12,0-18.73,4.24-35.36,10.79-45.77a41.06,41.06,0,0,0,2.3-4.16c9.57-20,37.12-34.43,69.61-34.43,34.73,0,63.8,16.5,71.32,38.64a39.45,39.45,0,0,0,1.91,4.65c5.05,10.38,8.19,25,8.19,41.07C1.27,439.27-10.75,464.84-25.56,464.84ZM41.5,73.61c7.81,0,14.83,6.91,19.73,17.94A37.54,37.54,0,0,0,95.69,114H96c.62,0,1.23,0,1.84,0A36.87,36.87,0,0,0,132,91.71c4.9-11.13,11.95-18.1,19.79-18.1,14.8,0,26.79,24.84,26.79,55.49,0,18.2-4.24,34.36-10.76,44.47a37.78,37.78,0,0,0-2.3,4.06C156,197.05,128.47,211.07,96,211.07c-34.68,0-63.72-16-71.23-37.55A38.76,38.76,0,0,0,22.9,169c-5.06-10.08-8.19-24.25-8.19-39.91C14.71,98.45,26.71,73.61,41.5,73.61Zm110.82,933.92c-7.82,0-14.85-7.11-19.75-18.46A37.57,37.57,0,0,0,98.06,966H95.87c-14.86-.25-28.21,9-34.2,22.92-4.91,11.44-12,18.62-19.82,18.62C27,1007.53,15,982,15,950.42c0-18.73,4.25-35.37,10.79-45.77a41.22,41.22,0,0,0,2.3-4.17c9.58-20,37.12-34.42,69.61-34.42,34.73,0,63.81,16.49,71.33,38.64a40.84,40.84,0,0,0,1.9,4.65c5.05,10.37,8.2,24.94,8.2,41.07C179.15,982,167.14,1007.53,152.32,1007.53ZM15.2,667.3c0-30.64,12-55.49,26.79-55.49,7.81,0,14.83,6.91,19.73,17.94a37.56,37.56,0,0,0,34.46,22.42h2.18a36.85,36.85,0,0,0,34.16-22.28c4.9-11.11,11.95-18.09,19.8-18.09,14.79,0,26.79,24.85,26.79,55.49,0,18.21-4.25,34.37-10.77,44.48a37.5,37.5,0,0,0-2.3,4c-9.57,19.43-37.08,33.46-69.52,33.46-34.68,0-63.72-16-71.23-37.55a38.25,38.25,0,0,0-1.91-4.52C18.33,697.13,15.2,683,15.2,667.3ZM153.09,464.84c-7.82,0-14.85-7.11-19.76-18.47A37.57,37.57,0,0,0,98.84,423.3H96.63c-14.85-.25-28.2,8.95-34.19,22.92-4.91,11.45-12,18.63-19.82,18.63-14.82,0-26.84-25.57-26.84-57.12C15.78,389,20,372.36,26.58,362a43.12,43.12,0,0,0,2.3-4.16c9.58-20,37.12-34.43,69.6-34.43,34.74,0,63.82,16.5,71.33,38.64a39.45,39.45,0,0,0,1.91,4.65c5.05,10.38,8.2,25,8.2,41.07C179.92,439.27,167.91,464.84,153.09,464.84ZM219.9,73.61c7.8,0,14.83,6.91,19.73,17.94A37.54,37.54,0,0,0,274.09,114h.34c.62,0,1.23,0,1.84,0a36.89,36.89,0,0,0,34.16-22.28c4.9-11.13,11.95-18.1,19.79-18.1C345,73.61,357,98.45,357,129.1c0,18.2-4.23,34.36-10.77,44.47a39.57,39.57,0,0,0-2.3,4.06c-9.56,19.42-37.07,33.44-69.51,33.44-34.69,0-63.72-16-71.24-37.55a38.76,38.76,0,0,0-1.9-4.51c-5-10.08-8.18-24.25-8.18-39.91C193.11,98.45,205.1,73.61,219.9,73.61Zm111.27,933.92c-7.82,0-14.84-7.11-19.75-18.46A37.55,37.55,0,0,0,276.92,966h-2.19c-14.85-.25-28.21,9-34.21,22.92-4.9,11.44-12,18.62-19.81,18.62-14.82,0-26.82-25.57-26.82-57.11,0-18.73,4.23-35.37,10.77-45.77a39.42,39.42,0,0,0,2.31-4.17c9.57-20,37.11-34.42,69.6-34.42,34.73,0,63.82,16.49,71.33,38.64a40.84,40.84,0,0,0,1.9,4.65c5.06,10.37,8.2,24.94,8.2,41.07C358,982,346,1007.53,331.17,1007.53ZM193.6,667.3c0-30.64,12-55.49,26.79-55.49,7.8,0,14.83,6.91,19.73,17.94a37.56,37.56,0,0,0,34.46,22.42h2.18a36.84,36.84,0,0,0,34.15-22.28c4.91-11.11,12-18.09,19.8-18.09,14.79,0,26.79,24.85,26.79,55.49,0,18.21-4.23,34.37-10.77,44.48a39.28,39.28,0,0,0-2.3,4c-9.56,19.43-37.07,33.46-69.51,33.46-34.69,0-63.73-16-71.24-37.55a38.19,38.19,0,0,0-1.9-4.52C196.73,697.13,193.6,683,193.6,667.3ZM331.94,464.84c-7.82,0-14.84-7.11-19.75-18.47a37.58,37.58,0,0,0-34.5-23.07h-2.2c-14.85-.25-28.2,8.95-34.2,22.92-4.9,11.45-12,18.63-19.81,18.63-14.82,0-26.83-25.57-26.83-57.12,0-18.73,4.23-35.36,10.78-45.77a41.15,41.15,0,0,0,2.31-4.16c9.56-20,37.11-34.43,69.6-34.43,34.73,0,63.81,16.5,71.33,38.64a37.76,37.76,0,0,0,1.9,4.65c5.06,10.38,8.19,25,8.19,41.07C358.76,439.27,346.76,464.84,331.94,464.84ZM397.47,73.61c7.8,0,14.83,6.91,19.73,17.94A37.54,37.54,0,0,0,451.66,114H452c.62,0,1.23,0,1.84,0A36.89,36.89,0,0,0,488,91.71c4.9-11.13,12-18.1,19.79-18.1,14.79,0,26.79,24.84,26.79,55.5,0,18.19-4.23,34.35-10.77,44.46a39.57,39.57,0,0,0-2.3,4.06C512,197.05,484.44,211.07,452,211.07c-34.69,0-63.72-16-71.23-37.55a38.76,38.76,0,0,0-1.9-4.51c-5.06-10.08-8.19-24.25-8.19-39.9C370.68,98.45,382.68,73.61,397.47,73.61Zm112.65,934.92c-7.82,0-14.85-7.1-19.75-18.46A37.57,37.57,0,0,0,455.86,967h-2.19c-14.85-.25-28.21,9-34.19,22.92-4.92,11.45-12,18.62-19.82,18.62-14.82,0-26.83-25.56-26.83-57.11,0-18.73,4.23-35.37,10.78-45.77a41.22,41.22,0,0,0,2.3-4.17c9.58-20,37.12-34.42,69.61-34.42,34.73,0,63.81,16.49,71.34,38.64a39,39,0,0,0,1.89,4.65c5,10.37,8.19,24.94,8.19,41.07C536.94,983,524.93,1008.53,510.12,1008.53ZM371.17,675.69c0-30.65,12-55.5,26.79-55.5,7.81,0,14.83,6.92,19.73,17.94a37.54,37.54,0,0,0,34.46,22.42h.34c.62,0,1.23,0,1.84,0a36.89,36.89,0,0,0,34.16-22.28c4.9-11.12,12-18.1,19.79-18.1,14.79,0,26.79,24.85,26.79,55.5,0,18.2-4.23,34.35-10.77,44.47a39.42,39.42,0,0,0-2.3,4.05c-9.55,19.42-37.07,33.45-69.51,33.45-34.69,0-63.73-16-71.23-37.55a38.19,38.19,0,0,0-1.9-4.52C374.3,705.51,371.17,691.34,371.17,675.69ZM510.88,465.84c-7.81,0-14.84-7.11-19.74-18.47a37.59,37.59,0,0,0-34.51-23.07h-2.19c-14.85-.25-28.21,8.95-34.2,22.92-4.91,11.45-12,18.63-19.82,18.63-14.82,0-26.83-25.57-26.83-57.12,0-18.73,4.23-35.35,10.79-45.77a41.06,41.06,0,0,0,2.3-4.16c9.58-20,37.12-34.43,69.6-34.43,34.74,0,63.82,16.5,71.34,38.64a39.4,39.4,0,0,0,1.9,4.65c5.05,10.38,8.19,25,8.19,41.07C537.71,440.27,525.71,465.84,510.88,465.84ZM744,1008.22c-7.82,0-14.85-7.12-19.76-18.46a37.57,37.57,0,0,0-34.5-23.08h-2.19c-14.86-.26-28.2,8.94-34.2,22.92-4.9,11.43-12,18.62-19.82,18.62-14.82,0-26.83-25.56-26.83-57.11,0-18.74,4.24-35.37,10.79-45.78a42,42,0,0,0,2.3-4.16c9.57-20,37.11-34.43,69.6-34.43,34.74,0,63.82,16.5,71.33,38.64a41.05,41.05,0,0,0,1.91,4.66c5.06,10.37,8.19,24.94,8.19,41.07C770.81,982.66,758.8,1008.22,744,1008.22Zm20.47-296.07a39.34,39.34,0,0,0-2.29,4.05c-9.55,19.42-37.07,33.45-69.51,33.45-34.69,0-63.72-16-71.23-37.55a38.91,38.91,0,0,0-1.9-4.52c-5-10.08-8.19-24.24-8.19-39.9,0-30.65,12-55.5,26.79-55.5,7.81,0,14.83,6.92,19.72,17.94a37.57,37.57,0,0,0,34.46,22.42h.35c.62,0,1.23,0,1.84,0a36.89,36.89,0,0,0,34.16-22.28c4.89-11.12,12-18.1,19.79-18.1,14.79,0,26.79,24.85,26.79,55.5C775.24,685.88,771,702,764.46,712.15Zm158.16,296.07c-7.81,0-14.85-7.12-19.74-18.46a37.6,37.6,0,0,0-34.51-23.08h-2.19c-14.86-.26-28.21,8.94-34.21,22.92-4.9,11.43-12,18.62-19.81,18.62-14.81,0-26.83-25.56-26.83-57.11,0-18.74,4.24-35.37,10.79-45.78a40,40,0,0,0,2.3-4.16c9.57-20,37.12-34.43,69.61-34.43,34.73,0,63.8,16.5,71.33,38.64a41,41,0,0,0,1.9,4.66c5,10.37,8.19,24.94,8.19,41.07C949.45,982.66,937.43,1008.22,922.62,1008.22Zm20.46-296.44a39.19,39.19,0,0,0-2.29,4c-9.57,19.43-37.08,33.46-69.52,33.46-34.69,0-63.72-16-71.23-37.55a38.19,38.19,0,0,0-1.9-4.52c-5-10.08-8.19-24.24-8.19-39.91,0-30.64,12-55.49,26.79-55.49,7.81,0,14.83,6.91,19.73,17.94a37.56,37.56,0,0,0,34.46,22.42h2.19a36.84,36.84,0,0,0,34.15-22.28c4.89-11.11,12-18.09,19.8-18.09,14.79,0,26.79,24.85,26.79,55.49C953.86,685.51,949.61,701.67,943.08,711.78Zm158.19,296.44c-7.82,0-14.84-7.12-19.76-18.46a37.57,37.57,0,0,0-34.5-23.08h-2.2c-14.86-.26-28.2,8.94-34.19,22.92-4.9,11.43-12,18.62-19.82,18.62-14.82,0-26.84-25.56-26.84-57.11,0-18.74,4.25-35.37,10.8-45.78a42,42,0,0,0,2.3-4.16c9.57-20,37.11-34.43,69.61-34.43,34.73,0,63.8,16.5,71.32,38.64a41.05,41.05,0,0,0,1.91,4.66c5,10.37,8.19,24.94,8.19,41.07C1128.09,982.66,1116.09,1008.22,1101.27,1008.22Zm20.21-296.44a37.5,37.5,0,0,0-2.3,4c-9.56,19.43-37.07,33.46-69.51,33.46-34.69,0-63.72-16-71.24-37.55a38.19,38.19,0,0,0-1.9-4.52c-5-10.08-8.18-24.24-8.18-39.91,0-30.64,12-55.49,26.79-55.49,7.8,0,14.83,6.91,19.72,17.94a37.58,37.58,0,0,0,34.47,22.42h2.18a36.89,36.89,0,0,0,34.17-22.28c4.89-11.11,11.94-18.09,19.78-18.09,14.79,0,26.79,24.85,26.79,55.49C1132.25,685.51,1128,701.67,1121.48,711.78Zm158.64,296.44c-7.81,0-14.85-7.12-19.75-18.46a37.58,37.58,0,0,0-34.51-23.08h-2.19c-14.85-.26-28.21,8.94-34.2,22.92-4.91,11.43-12,18.62-19.81,18.62-14.82,0-26.83-25.56-26.83-57.11,0-18.74,4.23-35.37,10.78-45.78a40,40,0,0,0,2.3-4.16c9.57-20,37.12-34.43,69.61-34.43,34.74,0,63.81,16.5,71.33,38.64a39.17,39.17,0,0,0,1.89,4.66c5.07,10.37,8.2,24.94,8.2,41.07C1306.94,982.66,1294.93,1008.22,1280.12,1008.22Zm19.76-296.44a39.28,39.28,0,0,0-2.3,4c-9.56,19.43-37.06,33.46-69.51,33.46-34.68,0-63.73-16-71.24-37.55a38.19,38.19,0,0,0-1.9-4.52c-5-10.08-8.19-24.24-8.19-39.91,0-30.64,12-55.49,26.79-55.49,7.81,0,14.83,6.91,19.74,17.94a37.54,37.54,0,0,0,34.45,22.42h2.18a36.89,36.89,0,0,0,34.17-22.28c4.89-11.11,12-18.09,19.78-18.09,14.79,0,26.79,24.85,26.79,55.49C1310.64,685.51,1306.41,701.67,1299.88,711.78Zm159.19,297.44c-7.82,0-14.85-7.11-19.76-18.46a37.55,37.55,0,0,0-34.5-23.08h-2.2c-14.85-.26-28.2,8.94-34.19,22.92-4.91,11.44-12,18.62-19.82,18.62-14.82,0-26.83-25.56-26.83-57.11,0-18.74,4.24-35.37,10.79-45.78a42,42,0,0,0,2.3-4.16c9.58-20,37.12-34.43,69.6-34.43,34.74,0,63.82,16.5,71.34,38.64a38.56,38.56,0,0,0,1.9,4.66c5,10.37,8.2,25,8.2,41.07C1485.9,983.66,1473.89,1009.22,1459.07,1009.22Zm18.38-297.44a42.42,42.42,0,0,0-2.3,4c-9.56,19.43-37.06,33.46-69.5,33.46-34.7,0-63.73-16-71.25-37.55a38.19,38.19,0,0,0-1.9-4.52c-5-10.08-8.19-24.24-8.19-39.91,0-30.64,12-55.49,26.79-55.49,7.81,0,14.84,6.91,19.74,17.94a37.54,37.54,0,0,0,34.45,22.42h2.19a36.86,36.86,0,0,0,34.16-22.28c4.9-11.11,11.95-18.09,19.79-18.09,14.79,0,26.79,24.85,26.79,55.49C1488.22,685.51,1484,701.67,1477.45,711.78Z"/></g><g id="Слой_2" data-name="Слой 2"><path class="cls-3" d="M63,138.12h33.2v33.21H63v-7.67H88.57v-5.12H66.85v-7.66H88.57v-5.1H63Z"/><path class="cls-3" d="M99.6,138.12h33.2v33.21H99.6v-7.67h25.54v-5.12H103.42v-7.66h21.72v-5.1H99.6Z"/></g></svg>