<svg xmlns="http://www.w3.org/2000/svg" xmlns:xlink="http://www.w3.org/1999/xlink" viewBox="0 0 193 238"><defs><style>.cls-1{stroke-miterlimit:10;fill:url(#Безымянный_градиент_48);stroke:url(#Безымянный_градиент_31);}.cls-2{fill:#252525;}.cls-3{font-size:50.65px;fill:#fff;font-family:PhageRegularKG, Phage Regular KG;}</style><linearGradient id="Безымянный_градиент_48" x1="-209.83" y1="286.34" x2="1710.17" y2="286.34" gradientUnits="userSpaceOnUse"><stop offset="0" stop-color="#5b2e83"/><stop offset="1" stop-color="#e07f32"/></linearGradient><linearGradient id="Безымянный_градиент_31" x1="-210.33" y1="286.34" x2="1710.67" y2="286.34" gradientUnits="userSpaceOnUse"><stop offset="0" stop-color="#5a2e84"/><stop offset="1" stop-color="#e07f32"/></linearGradient></defs><g id="Слой_4" data-name="Слой 4"><rect class="cls-1" x="-209.83" y="-253.66" width="1920" height="1080"/></g><g id="Слой_5" data-name="Слой 5"><path class="cls-2" d="M-210.44-254V827.15H1711V-254Zm1738.61,73.76c7.81,0,14.83,6.92,19.74,17.94a37.53,37.53,0,0,0,34.45,22.42h.35c.61,0,1.23,0,1.84,0a36.89,36.89,0,0,0,34.16-22.28c4.89-11.12,12-18.1,19.79-18.1,14.79,0,26.79,24.85,26.79,55.5,0,18.2-4.24,34.35-10.77,44.47a39.34,39.34,0,0,0-2.29,4c-9.57,19.42-37.07,33.45-69.52,33.45-34.68,0-63.72-16-71.24-37.55a38.19,38.19,0,0,0-1.9-4.52c-5-10.08-8.19-24.25-8.19-39.9C1501.38-155.39,1513.38-180.24,1528.17-180.24Zm-17.29,290a41.37,41.37,0,0,0,2.3-4.18c9.58-20,37.12-34.41,69.61-34.41,34.73,0,63.81,16.48,71.34,38.64a38.89,38.89,0,0,0,1.89,4.64c5,10.37,8.19,25,8.19,41.08,0,31.54-12,57.11-26.82,57.11-7.82,0-14.85-7.11-19.75-18.46a37.54,37.54,0,0,0-34.51-23.08h-2.19c-14.85-.25-28.21,9-34.19,22.93-4.92,11.44-12,18.62-19.82,18.62-14.82,0-26.83-25.57-26.83-57.11C1500.1,136.84,1504.34,120.2,1510.88,109.8Zm-160.28-290c7.81,0,14.83,6.92,19.73,17.94a37.55,37.55,0,0,0,34.46,22.42h.35c.61,0,1.23,0,1.83,0a36.92,36.92,0,0,0,34.17-22.28c4.89-11.12,11.95-18.1,19.78-18.1,14.79,0,26.79,24.85,26.79,55.49,0,18.21-4.23,34.36-10.77,44.48a39.34,39.34,0,0,0-2.29,4c-9.56,19.42-37.06,33.45-69.51,33.45-34.69,0-63.73-16-71.24-37.55a38.19,38.19,0,0,0-1.9-4.52c-5-10.08-8.19-24.25-8.19-39.91C1323.81-155.39,1335.81-180.24,1350.6-180.24Zm-18.66,289a41.37,41.37,0,0,0,2.3-4.18c9.57-20,37.12-34.41,69.6-34.41,34.74,0,63.82,16.48,71.33,38.64a40.69,40.69,0,0,0,1.9,4.64c5.06,10.37,8.2,25,8.2,41.08,0,31.54-12,57.11-26.83,57.11-7.82,0-14.84-7.11-19.74-18.46a37.57,37.57,0,0,0-34.51-23.08H1402c-14.85-.25-28.21,9-34.21,22.93-4.9,11.44-12,18.62-19.81,18.62-14.82,0-26.82-25.57-26.82-57.11C1321.16,135.84,1325.39,119.2,1331.94,108.8Zm-159.73-289c7.8,0,14.83,6.92,19.72,17.94a37.58,37.58,0,0,0,34.47,22.42h.34c.62,0,1.23,0,1.84,0a36.89,36.89,0,0,0,34.16-22.28c4.9-11.12,12-18.1,19.79-18.1,14.79,0,26.79,24.85,26.79,55.49,0,18.21-4.23,34.36-10.77,44.48a37.64,37.64,0,0,0-2.3,4c-9.56,19.42-37.07,33.45-69.51,33.45-34.69,0-63.72-16-71.24-37.55a38.19,38.19,0,0,0-1.9-4.52c-5-10.08-8.18-24.25-8.18-39.91C1145.42-155.39,1157.41-180.24,1172.21-180.24Zm-19.13,289a41.37,41.37,0,0,0,2.3-4.18c9.58-20,37.12-34.41,69.62-34.41,34.72,0,63.8,16.48,71.32,38.64a40.69,40.69,0,0,0,1.9,4.64c5,10.37,8.2,25,8.2,41.08,0,31.54-12,57.11-26.83,57.11-7.82,0-14.84-7.11-19.75-18.46a37.56,37.56,0,0,0-34.5-23.08h-2.2c-14.86-.25-28.21,9-34.2,22.93-4.91,11.44-12,18.62-19.82,18.62-14.81,0-26.83-25.57-26.83-57.11C1142.29,135.84,1146.54,119.2,1153.08,108.8Zm-159.27-289c7.81,0,14.83,6.92,19.73,17.94A37.54,37.54,0,0,0,1048-139.88h.34c.62,0,1.23,0,1.84,0a36.87,36.87,0,0,0,34.16-22.28c4.89-11.12,12-18.1,19.8-18.1,14.79,0,26.78,24.85,26.78,55.49,0,18.21-4.23,34.36-10.77,44.48a39.34,39.34,0,0,0-2.29,4c-9.56,19.42-37.08,33.45-69.52,33.45-34.69,0-63.72-16-71.23-37.55a38.19,38.19,0,0,0-1.9-4.52c-5.06-10.08-8.19-24.25-8.19-39.91C967-155.39,979-180.24,993.81-180.24Zm-19.36,289a43.44,43.44,0,0,0,2.3-4.18c9.57-20,37.12-34.41,69.6-34.41,34.74,0,63.81,16.48,71.33,38.64a40.75,40.75,0,0,0,1.91,4.64c5.05,10.37,8.19,25,8.19,41.08,0,31.54-12,57.11-26.83,57.11-7.81,0-14.85-7.11-19.75-18.46a37.57,37.57,0,0,0-34.5-23.08h-2.2c-14.86-.25-28.2,9-34.2,22.93-4.9,11.44-12,18.62-19.81,18.62-14.82,0-26.84-25.57-26.84-57.11C963.65,135.84,967.89,119.2,974.45,108.8Zm-159.25-289c7.8,0,14.83,6.92,19.72,17.94a37.57,37.57,0,0,0,34.46,22.42h.35c.62,0,1.23,0,1.84,0a36.89,36.89,0,0,0,34.16-22.28c4.9-11.12,12-18.1,19.79-18.1,14.79,0,26.79,24.85,26.79,55.49,0,18.21-4.23,34.36-10.78,44.48a41.29,41.29,0,0,0-2.29,4c-9.56,19.42-37.07,33.45-69.51,33.45-34.69,0-63.72-16-71.23-37.55a38.25,38.25,0,0,0-1.91-4.52c-5-10.08-8.18-24.25-8.18-39.91C788.41-155.39,800.41-180.24,815.2-180.24Zm-19.4,289a43.44,43.44,0,0,0,2.3-4.18c9.57-20,37.12-34.41,69.61-34.41,34.73,0,63.81,16.48,71.33,38.64a40.69,40.69,0,0,0,1.9,4.64c5.06,10.37,8.2,25,8.2,41.08,0,31.54-12,57.11-26.83,57.11-7.82,0-14.85-7.11-19.75-18.46a37.56,37.56,0,0,0-34.5-23.08h-2.19c-14.86-.25-28.21,9-34.21,22.93-4.9,11.44-12,18.62-19.81,18.62C797,211.68,785,186.11,785,154.57,785,135.84,789.26,119.2,795.8,108.8Zm-933.75-289c7.81,0,14.83,6.92,19.73,17.94a37.54,37.54,0,0,0,34.45,22.42h.35c.62,0,1.23,0,1.85,0a36.87,36.87,0,0,0,34.15-22.28c4.9-11.12,12-18.1,19.8-18.1,14.79,0,26.79,24.85,26.79,55.49,0,18.21-4.24,34.36-10.78,44.48a37.56,37.56,0,0,0-2.29,4C-23.46-56.8-51-42.77-83.42-42.77c-34.69,0-63.72-16-71.23-37.55a38.19,38.19,0,0,0-1.9-4.52c-5-10.08-8.19-24.25-8.19-39.91C-164.74-155.39-152.74-180.24-137.95-180.24ZM-27.4,753.68c-7.82,0-14.85-7.1-19.75-18.46a37.56,37.56,0,0,0-34.5-23.07h-2.2c-14.86-.25-28.21,9-34.2,22.92-4.91,11.45-12,18.62-19.82,18.62-14.81,0-26.83-25.56-26.83-57.11,0-18.73,4.25-35.36,10.79-45.77a41.13,41.13,0,0,0,2.29-4.17c9.58-20,37.13-34.42,69.62-34.42,34.73,0,63.8,16.49,71.33,38.64a40.1,40.1,0,0,0,1.9,4.65c5,10.37,8.2,25,8.2,41.07C-.57,728.12-12.59,753.68-27.4,753.68Zm16.28-295.75a37.42,37.42,0,0,0-2.29,4C-23,481.4-50.49,495.43-82.93,495.43c-34.69,0-63.72-16-71.23-37.55a39.65,39.65,0,0,0-1.9-4.52c-5.05-10.08-8.19-24.24-8.19-39.91,0-30.64,12-55.49,26.79-55.49,7.81,0,14.84,6.91,19.73,17.94a37.55,37.55,0,0,0,34.45,22.43h2.2a36.83,36.83,0,0,0,34.15-22.29C-42,364.94-35,358-27.13,358c14.79,0,26.79,24.85,26.79,55.49C-.34,431.66-4.58,447.82-11.12,457.93ZM-26.63,211c-7.82,0-14.85-7.12-19.76-18.47a37.56,37.56,0,0,0-34.49-23.08h-2.21c-14.85-.25-28.2,8.95-34.19,22.93-4.9,11.44-12,18.63-19.83,18.63-14.81,0-26.83-25.58-26.83-57.13,0-18.73,4.25-35.35,10.8-45.76a42.24,42.24,0,0,0,2.29-4.17c9.58-20,37.13-34.43,69.61-34.43,34.74,0,63.81,16.5,71.33,38.65A40,40,0,0,0-8,112.8c5.05,10.38,8.2,25,8.2,41.07C.2,185.42-11.82,211-26.63,211Zm67.3-391.24c7.8,0,14.83,6.92,19.71,17.94a37.58,37.58,0,0,0,34.47,22.42h.35c.61,0,1.23,0,1.83,0a36.92,36.92,0,0,0,34.17-22.28c4.89-11.12,11.94-18.1,19.78-18.1,14.79,0,26.79,24.85,26.79,55.49,0,18.21-4.23,34.36-10.77,44.48a39.34,39.34,0,0,0-2.29,4C155.14-56.8,127.63-42.77,95.2-42.77c-34.7,0-63.73-16-71.24-37.55a40,40,0,0,0-1.91-4.52c-5-10.08-8.17-24.25-8.17-39.91C13.88-155.39,25.88-180.24,40.67-180.24ZM151.24,753.68c-7.82,0-14.85-7.1-19.75-18.46A37.58,37.58,0,0,0,97,712.15h-2.2c-14.86-.25-28.2,9-34.2,22.92-4.9,11.45-12,18.62-19.81,18.62-14.82,0-26.84-25.56-26.84-57.11,0-18.73,4.24-35.36,10.8-45.77a43.28,43.28,0,0,0,2.3-4.17c9.56-20,37.12-34.42,69.6-34.42,34.74,0,63.81,16.49,71.32,38.64a40.16,40.16,0,0,0,1.91,4.65c5.06,10.37,8.2,25,8.2,41.07C178.07,728.12,166.05,753.68,151.24,753.68Zm16.24-295.75a41.05,41.05,0,0,0-2.28,4c-9.57,19.43-37.08,33.46-69.51,33.46-34.7,0-63.73-16-71.23-37.55a43.76,43.76,0,0,0-1.92-4.52c-5-10.08-8.17-24.24-8.17-39.91,0-30.64,12-55.49,26.79-55.49C49,358,56,364.87,60.87,375.9a37.59,37.59,0,0,0,34.47,22.43h2.18a36.88,36.88,0,0,0,34.17-22.29c4.89-11.11,11.94-18.09,19.78-18.09,14.79,0,26.79,24.85,26.79,55.49C178.26,431.66,174,447.82,167.48,457.93ZM152,211c-7.81,0-14.85-7.12-19.74-18.47a37.6,37.6,0,0,0-34.51-23.08H95.56c-14.86-.25-28.21,8.95-34.2,22.93C56.45,203.81,49.38,211,41.54,211c-14.81,0-26.83-25.58-26.83-57.13,0-18.73,4.24-35.35,10.79-45.76a42.33,42.33,0,0,0,2.3-4.17c9.56-20,37.12-34.43,69.61-34.43,34.73,0,63.8,16.5,71.32,38.65a40,40,0,0,0,1.9,4.64c5.06,10.38,8.2,25,8.2,41.07C178.83,185.42,166.81,211,152,211Zm67.06-391.24c7.81,0,14.83,6.92,19.73,17.94a37.54,37.54,0,0,0,34.46,22.42h.34c.62,0,1.23,0,1.84,0a36.89,36.89,0,0,0,34.16-22.28c4.9-11.12,12-18.1,19.79-18.1,14.8,0,26.79,24.85,26.79,55.49,0,18.21-4.24,34.36-10.76,44.48a37.73,37.73,0,0,0-2.31,4C333.54-56.8,306-42.77,273.59-42.77c-34.68,0-63.73-16-71.23-37.55a38.19,38.19,0,0,0-1.9-4.52c-5.06-10.08-8.19-24.25-8.19-39.91C192.27-155.39,204.27-180.24,219.06-180.24ZM329.87,753.68c-7.81,0-14.84-7.1-19.74-18.46a37.59,37.59,0,0,0-34.51-23.07h-2.19c-14.86-.25-28.21,9-34.2,22.92-4.91,11.45-12,18.62-19.82,18.62-14.81,0-26.83-25.56-26.83-57.11,0-18.73,4.24-35.36,10.79-45.77a41.22,41.22,0,0,0,2.3-4.17c9.58-20,37.12-34.42,69.61-34.42,34.73,0,63.81,16.49,71.33,38.64a40.1,40.1,0,0,0,1.9,4.65c5.05,10.37,8.19,25,8.19,41.07C356.7,728.12,344.7,753.68,329.87,753.68ZM192.76,413.45c0-30.64,12-55.49,26.79-55.49,7.81,0,14.83,6.91,19.73,17.94a37.55,37.55,0,0,0,34.46,22.43h2.18a36.86,36.86,0,0,0,34.16-22.29C315,364.94,322,358,329.87,358c14.8,0,26.79,24.85,26.79,55.49,0,18.21-4.24,34.37-10.76,44.48a39.36,39.36,0,0,0-2.31,4c-9.56,19.43-37.07,33.46-69.51,33.46-34.68,0-63.73-16-71.23-37.55a39.72,39.72,0,0,0-1.91-4.52C195.89,443.28,192.76,429.12,192.76,413.45ZM330.64,211c-7.81,0-14.84-7.12-19.75-18.47a37.56,37.56,0,0,0-34.5-23.08h-2.2c-14.85-.25-28.2,8.95-34.19,22.93C235.09,203.81,228,211,220.18,211c-14.82,0-26.84-25.58-26.84-57.13,0-18.73,4.25-35.35,10.8-45.76a44.5,44.5,0,0,0,2.3-4.17C216,84,243.56,69.51,276,69.51c34.74,0,63.82,16.5,71.33,38.65a40,40,0,0,0,1.91,4.64c5.05,10.38,8.2,25,8.2,41.07C357.48,185.42,345.47,211,330.64,211Zm66.82-391.24c7.8,0,14.83,6.92,19.73,17.94a37.52,37.52,0,0,0,34.46,22.42H452c.62,0,1.23,0,1.84,0A36.89,36.89,0,0,0,488-162.14c4.9-11.12,11.95-18.1,19.79-18.1,14.79,0,26.79,24.85,26.79,55.49,0,18.21-4.24,34.36-10.77,44.48a39.42,39.42,0,0,0-2.3,4C511.94-56.8,484.43-42.77,452-42.77c-34.69,0-63.72-16-71.24-37.55a38.19,38.19,0,0,0-1.9-4.52c-5.05-10.08-8.19-24.25-8.19-39.91C370.66-155.39,382.66-180.24,397.46-180.24ZM508.73,753.68c-7.82,0-14.84-7.1-19.75-18.46a37.55,37.55,0,0,0-34.5-23.07h-2.19c-14.86-.25-28.22,9-34.21,22.92-4.9,11.45-12,18.62-19.81,18.62-14.83,0-26.82-25.56-26.82-57.11,0-18.73,4.23-35.36,10.77-45.77a43.36,43.36,0,0,0,2.31-4.17c9.57-20,37.11-34.42,69.6-34.42,34.73,0,63.82,16.49,71.33,38.64a40.1,40.1,0,0,0,1.9,4.65c5.06,10.37,8.2,25,8.2,41.07C535.56,728.12,523.55,753.68,508.73,753.68ZM371.16,413.45c0-30.64,12-55.49,26.79-55.49,7.8,0,14.83,6.91,19.73,17.94a37.53,37.53,0,0,0,34.46,22.43h2.18a36.83,36.83,0,0,0,34.15-22.29c4.91-11.11,12-18.09,19.8-18.09,14.79,0,26.79,24.85,26.79,55.49,0,18.21-4.23,34.37-10.77,44.48a39.28,39.28,0,0,0-2.3,4c-9.56,19.43-37.07,33.46-69.51,33.46-34.69,0-63.73-16-71.24-37.55a39.65,39.65,0,0,0-1.9-4.52C374.29,443.28,371.16,429.12,371.16,413.45ZM509.5,211c-7.82,0-14.84-7.12-19.76-18.47a37.55,37.55,0,0,0-34.49-23.08h-2.2c-14.85-.25-28.2,8.95-34.2,22.93C414,203.81,406.88,211,399,211c-14.82,0-26.83-25.58-26.83-57.13,0-18.73,4.23-35.35,10.78-45.76a44.6,44.6,0,0,0,2.31-4.17c9.56-20,37.11-34.43,69.6-34.43,34.73,0,63.81,16.5,71.33,38.65a38.27,38.27,0,0,0,1.9,4.64c5.06,10.38,8.19,25,8.19,41.07C536.32,185.42,524.32,211,509.5,211ZM575-180.24c7.8,0,14.83,6.92,19.73,17.94a37.54,37.54,0,0,0,34.46,22.42h.34c.62,0,1.23,0,1.84,0a36.89,36.89,0,0,0,34.16-22.28c4.9-11.12,12-18.1,19.79-18.1,14.79,0,26.79,24.85,26.79,55.5,0,18.2-4.23,34.35-10.77,44.47a39.42,39.42,0,0,0-2.3,4C689.51-56.8,662-42.77,629.56-42.77c-34.69,0-63.72-16-71.23-37.55a38.25,38.25,0,0,0-1.91-4.52c-5-10.08-8.18-24.25-8.18-39.9C548.24-155.39,560.24-180.24,575-180.24ZM687.68,754.69c-7.82,0-14.85-7.11-19.75-18.46a37.56,37.56,0,0,0-34.51-23.08h-2.19c-14.85-.25-28.21,9-34.2,22.93-4.91,11.44-12,18.62-19.81,18.62-14.82,0-26.83-25.57-26.83-57.12,0-18.73,4.23-35.36,10.78-45.76a42.48,42.48,0,0,0,2.3-4.18c9.58-20,37.12-34.42,69.61-34.42,34.73,0,63.81,16.49,71.34,38.65a38.89,38.89,0,0,0,1.89,4.64c5.05,10.37,8.19,25,8.19,41.07C714.5,729.12,702.49,754.69,687.68,754.69ZM548.73,421.84c0-30.65,12-55.5,26.79-55.5,7.8,0,14.83,6.92,19.73,17.94a37.54,37.54,0,0,0,34.46,22.42h.34c.62,0,1.23,0,1.84,0a36.89,36.89,0,0,0,34.16-22.28c4.9-11.12,12-18.1,19.79-18.1,14.79,0,26.79,24.85,26.79,55.5,0,18.2-4.23,34.36-10.77,44.47a39.42,39.42,0,0,0-2.3,4.05c-9.56,19.42-37.07,33.45-69.51,33.45-34.69,0-63.73-16-71.23-37.55a37.31,37.31,0,0,0-1.91-4.52C551.86,451.66,548.73,437.5,548.73,421.84ZM688.44,212c-7.81,0-14.84-7.12-19.74-18.47a37.59,37.59,0,0,0-34.51-23.08H632c-14.85-.25-28.21,8.95-34.2,22.93C592.89,204.81,585.83,212,578,212c-14.82,0-26.83-25.58-26.83-57.12,0-18.73,4.23-35.36,10.79-45.77a41.22,41.22,0,0,0,2.3-4.17c9.58-20,37.12-34.42,69.6-34.42,34.74,0,63.82,16.49,71.34,38.64a40,40,0,0,0,1.9,4.64c5,10.38,8.19,25,8.19,41.08C715.27,186.42,703.26,212,688.44,212ZM921.55,754.37c-7.82,0-14.85-7.11-19.76-18.45a37.57,37.57,0,0,0-34.5-23.09H865.1c-14.87-.26-28.21,8.94-34.2,22.92-4.9,11.44-12,18.62-19.82,18.62-14.82,0-26.83-25.56-26.83-57.11,0-18.74,4.24-35.36,10.79-45.77a43.19,43.19,0,0,0,2.29-4.17c9.58-20,37.12-34.43,69.61-34.43,34.74,0,63.81,16.5,71.33,38.65a40.9,40.9,0,0,0,1.91,4.65c5.06,10.37,8.19,24.95,8.19,41.07C948.37,728.81,936.36,754.37,921.55,754.37ZM942,458.3a39.34,39.34,0,0,0-2.29,4.05c-9.56,19.42-37.07,33.45-69.51,33.45-34.69,0-63.72-16-71.23-37.55a38,38,0,0,0-1.91-4.52c-5-10.08-8.18-24.24-8.18-39.9,0-30.65,12-55.5,26.79-55.5,7.8,0,14.83,6.92,19.72,17.94a37.57,37.57,0,0,0,34.46,22.43h.35c.62,0,1.23,0,1.84,0a36.89,36.89,0,0,0,34.16-22.29c4.89-11.12,12-18.1,19.79-18.1,14.79,0,26.79,24.85,26.79,55.5C952.8,432,948.57,448.19,942,458.3Zm158.16,296.07c-7.81,0-14.85-7.11-19.74-18.45a37.59,37.59,0,0,0-34.51-23.09h-2.19c-14.86-.26-28.21,8.94-34.21,22.92-4.9,11.44-12,18.62-19.81,18.62-14.81,0-26.83-25.56-26.83-57.11,0-18.74,4.24-35.36,10.79-45.77a41.22,41.22,0,0,0,2.3-4.17c9.57-20,37.12-34.43,69.61-34.43,34.73,0,63.8,16.5,71.32,38.65a40.9,40.9,0,0,0,1.91,4.65c5,10.37,8.19,24.95,8.19,41.07C1127,728.81,1115,754.37,1100.18,754.37Zm20.46-296.44a39.19,39.19,0,0,0-2.29,4c-9.57,19.43-37.08,33.46-69.52,33.46-34.69,0-63.72-16-71.23-37.55a39.65,39.65,0,0,0-1.9-4.52c-5.06-10.08-8.19-24.24-8.19-39.91,0-30.64,12-55.49,26.79-55.49,7.81,0,14.83,6.91,19.73,17.94a37.55,37.55,0,0,0,34.46,22.43h2.18a36.84,36.84,0,0,0,34.16-22.29c4.89-11.11,12-18.09,19.8-18.09,14.79,0,26.79,24.85,26.79,55.49C1131.42,431.66,1127.17,447.82,1120.64,457.93Zm158.19,296.44c-7.82,0-14.85-7.11-19.76-18.45a37.57,37.57,0,0,0-34.5-23.09h-2.2c-14.86-.26-28.2,8.94-34.19,22.92-4.91,11.44-12,18.62-19.82,18.62-14.82,0-26.84-25.56-26.84-57.11,0-18.74,4.25-35.36,10.8-45.77a43.28,43.28,0,0,0,2.3-4.17c9.57-20,37.11-34.43,69.61-34.43,34.73,0,63.8,16.5,71.32,38.65a40.9,40.9,0,0,0,1.91,4.65c5,10.37,8.19,24.95,8.19,41.07C1305.65,728.81,1293.65,754.37,1278.83,754.37ZM1299,457.93a37.5,37.5,0,0,0-2.3,4c-9.56,19.43-37.07,33.46-69.51,33.46-34.69,0-63.72-16-71.24-37.55a39.65,39.65,0,0,0-1.9-4.52c-5-10.08-8.18-24.24-8.18-39.91,0-30.64,12-55.49,26.79-55.49,7.8,0,14.83,6.91,19.72,17.94a37.58,37.58,0,0,0,34.47,22.43h2.18a36.86,36.86,0,0,0,34.16-22.29c4.9-11.11,12-18.09,19.79-18.09,14.79,0,26.79,24.85,26.79,55.49C1309.81,431.66,1305.58,447.82,1299,457.93Zm158.64,296.44c-7.82,0-14.85-7.11-19.75-18.45a37.57,37.57,0,0,0-34.51-23.09h-2.19c-14.85-.26-28.21,8.94-34.2,22.92-4.91,11.44-12,18.62-19.81,18.62-14.82,0-26.83-25.56-26.83-57.11,0-18.74,4.23-35.36,10.78-45.77a41.22,41.22,0,0,0,2.3-4.17c9.57-20,37.11-34.43,69.61-34.43,34.74,0,63.81,16.5,71.33,38.65a39,39,0,0,0,1.89,4.65c5.07,10.37,8.2,24.95,8.2,41.07C1484.5,728.81,1472.49,754.37,1457.68,754.37Zm19.75-296.44a39.19,39.19,0,0,0-2.29,4c-9.56,19.43-37.06,33.46-69.51,33.46-34.69,0-63.73-16-71.24-37.55a39.65,39.65,0,0,0-1.9-4.52c-5-10.08-8.19-24.24-8.19-39.91,0-30.64,12-55.49,26.79-55.49,7.81,0,14.83,6.91,19.73,17.94a37.56,37.56,0,0,0,34.46,22.43h2.18a36.88,36.88,0,0,0,34.17-22.29c4.89-11.11,11.95-18.09,19.78-18.09,14.79,0,26.79,24.85,26.79,55.49C1488.2,431.66,1484,447.82,1477.43,457.93Zm159.19,297.45c-7.81,0-14.84-7.12-19.75-18.46a37.57,37.57,0,0,0-34.5-23.09h-2.2c-14.85-.26-28.2,8.94-34.19,22.93-4.91,11.43-12,18.62-19.82,18.62-14.82,0-26.83-25.57-26.83-57.12,0-18.74,4.23-35.36,10.79-45.77a43.28,43.28,0,0,0,2.3-4.17c9.58-20,37.12-34.42,69.6-34.42,34.74,0,63.82,16.49,71.34,38.64a39.09,39.09,0,0,0,1.9,4.65c5,10.37,8.19,24.95,8.19,41.07C1663.45,729.81,1651.45,755.38,1636.62,755.38ZM1655,457.93a42.42,42.42,0,0,0-2.3,4c-9.56,19.43-37.06,33.46-69.51,33.46-34.69,0-63.72-16-71.24-37.55a39.65,39.65,0,0,0-1.9-4.52c-5-10.08-8.19-24.24-8.19-39.91,0-30.64,12-55.49,26.79-55.49,7.81,0,14.83,6.91,19.74,17.94a37.54,37.54,0,0,0,34.45,22.43H1585a36.86,36.86,0,0,0,34.16-22.29c4.89-11.11,12-18.09,19.79-18.09,14.79,0,26.79,24.85,26.79,55.49C1665.78,431.66,1661.54,447.82,1655,457.93Z"/></g><g id="Слой_2" data-name="Слой 2"><text class="cls-3" transform="translate(61.53 140.35) scale(0.97 1)">39</text></g></svg>