<svg xmlns="http://www.w3.org/2000/svg" xmlns:xlink="http://www.w3.org/1999/xlink" viewBox="0 0 215 258"><defs><style>.cls-1{stroke-miterlimit:10;fill:url(#Безымянный_градиент_48);stroke:url(#Безымянный_градиент_31);}.cls-2{fill:#252525;}.cls-3{fill:#fff;}</style><linearGradient id="Безымянный_градиент_48" x1="-745.83" y1="-281.66" x2="1174.17" y2="-281.66" gradientUnits="userSpaceOnUse"><stop offset="0" stop-color="#5b2e83"/><stop offset="1" stop-color="#e07f32"/></linearGradient><linearGradient id="Безымянный_градиент_31" x1="-746.33" y1="-281.66" x2="1174.67" y2="-281.66" gradientUnits="userSpaceOnUse"><stop offset="0" stop-color="#5a2e84"/><stop offset="1" stop-color="#e07f32"/></linearGradient></defs><g id="Слой_4" data-name="Слой 4"><rect class="cls-1" x="-745.83" y="-821.66" width="1920" height="1080"/></g><g id="Слой_5" data-name="Слой 5"><path class="cls-2" d="M-746.44-822V259.15H1175V-822ZM992.17-748.24c7.81,0,14.83,6.92,19.74,17.94a37.53,37.53,0,0,0,34.45,22.42h.35c.61,0,1.23,0,1.84,0a36.89,36.89,0,0,0,34.16-22.28c4.89-11.12,12-18.1,19.79-18.1,14.79,0,26.79,24.85,26.79,55.5,0,18.2-4.24,34.35-10.77,44.47a39.34,39.34,0,0,0-2.29,4c-9.57,19.42-37.07,33.45-69.52,33.45-34.68,0-63.72-16-71.24-37.55a38.19,38.19,0,0,0-1.9-4.52c-5-10.08-8.19-24.25-8.19-39.9C965.38-723.39,977.38-748.24,992.17-748.24Zm-17.29,290a41.37,41.37,0,0,0,2.3-4.18c9.58-20,37.12-34.41,69.61-34.41,34.73,0,63.81,16.48,71.34,38.64a38.89,38.89,0,0,0,1.89,4.64c5,10.37,8.19,24.95,8.19,41.08,0,31.54-12,57.11-26.82,57.11-7.82,0-14.85-7.11-19.75-18.46a37.54,37.54,0,0,0-34.51-23.08h-2.19c-14.85-.25-28.21,8.95-34.19,22.93-4.92,11.44-12,18.62-19.82,18.62-14.82,0-26.83-25.57-26.83-57.11C964.1-431.16,968.34-447.8,974.88-458.2Zm-160.28-290c7.81,0,14.83,6.92,19.73,17.94a37.55,37.55,0,0,0,34.46,22.42h.35c.61,0,1.23,0,1.83,0a36.92,36.92,0,0,0,34.17-22.28c4.89-11.12,12-18.1,19.78-18.1,14.79,0,26.79,24.85,26.79,55.49,0,18.21-4.23,34.36-10.77,44.48a39.34,39.34,0,0,0-2.29,4c-9.56,19.42-37.06,33.45-69.51,33.45-34.69,0-63.73-16-71.24-37.55a38.19,38.19,0,0,0-1.9-4.52c-5-10.08-8.19-24.25-8.19-39.91C787.81-723.39,799.81-748.24,814.6-748.24Zm-18.66,289a41.37,41.37,0,0,0,2.3-4.18c9.57-20,37.12-34.41,69.6-34.41,34.74,0,63.82,16.48,71.33,38.64a40.69,40.69,0,0,0,1.9,4.64c5.06,10.37,8.2,24.95,8.2,41.08,0,31.54-12,57.11-26.83,57.11-7.82,0-14.84-7.11-19.74-18.46a37.57,37.57,0,0,0-34.51-23.08H866c-14.85-.25-28.21,8.95-34.21,22.93-4.9,11.44-12,18.62-19.81,18.62-14.82,0-26.82-25.57-26.82-57.11C785.16-432.16,789.39-448.8,795.94-459.2Zm-159.73-289c7.8,0,14.83,6.92,19.72,17.94a37.58,37.58,0,0,0,34.47,22.42h.34c.62,0,1.23,0,1.84,0a36.89,36.89,0,0,0,34.16-22.28c4.9-11.12,12-18.1,19.79-18.1,14.79,0,26.79,24.85,26.79,55.49,0,18.21-4.23,34.36-10.77,44.48a37.64,37.64,0,0,0-2.3,4c-9.56,19.42-37.07,33.45-69.51,33.45-34.69,0-63.72-16-71.24-37.55a38.19,38.19,0,0,0-1.9-4.52c-5.05-10.08-8.18-24.25-8.18-39.91C609.42-723.39,621.41-748.24,636.21-748.24Zm-19.13,289a41.37,41.37,0,0,0,2.3-4.18c9.58-20,37.12-34.41,69.62-34.41,34.72,0,63.8,16.48,71.32,38.64a40.69,40.69,0,0,0,1.9,4.64c5,10.37,8.2,24.95,8.2,41.08,0,31.54-12,57.11-26.83,57.11-7.82,0-14.84-7.11-19.75-18.46a37.56,37.56,0,0,0-34.5-23.08h-2.2c-14.86-.25-28.21,8.95-34.2,22.93-4.91,11.44-12,18.62-19.82,18.62-14.81,0-26.83-25.57-26.83-57.11C606.29-432.16,610.54-448.8,617.08-459.2Zm-159.27-289c7.81,0,14.83,6.92,19.73,17.94A37.54,37.54,0,0,0,512-707.88h.34c.62,0,1.23,0,1.84,0a36.87,36.87,0,0,0,34.16-22.28c4.89-11.12,11.95-18.1,19.8-18.1,14.79,0,26.78,24.85,26.78,55.49,0,18.21-4.23,34.36-10.77,44.48a39.34,39.34,0,0,0-2.29,4c-9.56,19.42-37.08,33.45-69.52,33.45-34.69,0-63.72-16-71.23-37.55a38.19,38.19,0,0,0-1.9-4.52c-5.06-10.08-8.19-24.25-8.19-39.91C431-723.39,443-748.24,457.81-748.24Zm-19.36,289a43.44,43.44,0,0,0,2.3-4.18c9.57-20,37.12-34.41,69.6-34.41,34.74,0,63.81,16.48,71.33,38.64a40.75,40.75,0,0,0,1.91,4.64c5,10.37,8.19,24.95,8.19,41.08,0,31.54-12,57.11-26.83,57.11-7.81,0-14.85-7.11-19.75-18.46a37.57,37.57,0,0,0-34.5-23.08h-2.2c-14.86-.25-28.2,8.95-34.2,22.93-4.9,11.44-12,18.62-19.81,18.62-14.82,0-26.84-25.57-26.84-57.11C427.65-432.16,431.89-448.8,438.45-459.2Zm-159.25-289c7.8,0,14.83,6.92,19.72,17.94a37.57,37.57,0,0,0,34.46,22.42h.35c.62,0,1.23,0,1.84,0a36.89,36.89,0,0,0,34.16-22.28c4.9-11.12,12-18.1,19.79-18.1,14.79,0,26.79,24.85,26.79,55.49,0,18.21-4.23,34.36-10.78,44.48a41.29,41.29,0,0,0-2.29,4c-9.56,19.42-37.07,33.45-69.51,33.45-34.69,0-63.72-16-71.23-37.55a38.25,38.25,0,0,0-1.91-4.52c-5-10.08-8.18-24.25-8.18-39.91C252.41-723.39,264.41-748.24,279.2-748.24Zm-19.4,289a43.44,43.44,0,0,0,2.3-4.18c9.57-20,37.12-34.41,69.61-34.41,34.73,0,63.81,16.48,71.33,38.64a40.69,40.69,0,0,0,1.9,4.64c5.06,10.37,8.2,24.95,8.2,41.08,0,31.54-12,57.11-26.83,57.11-7.82,0-14.85-7.11-19.75-18.46a37.56,37.56,0,0,0-34.5-23.08h-2.19c-14.86-.25-28.21,8.95-34.21,22.93-4.9,11.44-12,18.62-19.81,18.62C261-356.32,249-381.89,249-413.43,249-432.16,253.26-448.8,259.8-459.2Zm-933.75-289c7.81,0,14.83,6.92,19.73,17.94a37.54,37.54,0,0,0,34.45,22.42h.35c.62,0,1.23,0,1.85,0a36.87,36.87,0,0,0,34.15-22.28c4.9-11.12,12-18.1,19.8-18.1,14.79,0,26.79,24.85,26.79,55.49,0,18.21-4.24,34.36-10.78,44.48a37.56,37.56,0,0,0-2.29,4c-9.56,19.42-37.08,33.45-69.52,33.45-34.69,0-63.72-16-71.23-37.55a38.19,38.19,0,0,0-1.9-4.52c-5.05-10.08-8.19-24.25-8.19-39.91C-700.74-723.39-688.74-748.24-673.95-748.24ZM-563.4,185.68c-7.82,0-14.85-7.1-19.75-18.46a37.56,37.56,0,0,0-34.5-23.07h-2.2c-14.86-.25-28.21,9-34.2,22.92-4.91,11.45-12,18.62-19.82,18.62-14.81,0-26.83-25.56-26.83-57.11,0-18.73,4.25-35.36,10.79-45.77a41.13,41.13,0,0,0,2.29-4.17c9.58-20,37.13-34.42,69.62-34.42,34.73,0,63.8,16.49,71.33,38.64a40.1,40.1,0,0,0,1.9,4.65c5,10.37,8.2,25,8.2,41.07C-536.57,160.12-548.59,185.68-563.4,185.68Zm16.28-295.75a37.42,37.42,0,0,0-2.29,4C-559-86.6-586.49-72.57-618.93-72.57c-34.69,0-63.72-16-71.23-37.55a39.65,39.65,0,0,0-1.9-4.52c-5.05-10.08-8.19-24.24-8.19-39.91,0-30.64,12-55.49,26.79-55.49,7.81,0,14.84,6.91,19.73,17.94a37.55,37.55,0,0,0,34.45,22.43h2.2a36.83,36.83,0,0,0,34.15-22.29c4.9-11.11,12-18.09,19.8-18.09,14.79,0,26.79,24.85,26.79,55.49C-536.34-136.34-540.58-120.18-547.12-110.07ZM-562.63-357c-7.82,0-14.85-7.12-19.76-18.47a37.56,37.56,0,0,0-34.49-23.08h-2.21c-14.85-.25-28.2,8.95-34.19,22.93-4.9,11.44-12,18.63-19.83,18.63-14.81,0-26.83-25.58-26.83-57.13,0-18.73,4.25-35.35,10.8-45.76a42.24,42.24,0,0,0,2.29-4.17c9.58-20,37.13-34.43,69.61-34.43,34.74,0,63.81,16.5,71.33,38.65A40,40,0,0,0-544-455.2c5,10.38,8.2,25,8.2,41.07C-535.8-382.58-547.82-357-562.63-357Zm67.3-391.24c7.8,0,14.83,6.92,19.71,17.94a37.58,37.58,0,0,0,34.47,22.42h.35c.61,0,1.23,0,1.83,0a36.92,36.92,0,0,0,34.17-22.28c4.89-11.12,11.94-18.1,19.78-18.1,14.79,0,26.79,24.85,26.79,55.49,0,18.21-4.23,34.36-10.77,44.48a39.34,39.34,0,0,0-2.29,4c-9.57,19.42-37.08,33.45-69.51,33.45-34.7,0-63.73-16-71.24-37.55a40,40,0,0,0-1.91-4.52c-5-10.08-8.17-24.25-8.17-39.91C-522.12-723.39-510.12-748.24-495.33-748.24Zm110.57,933.92c-7.82,0-14.85-7.1-19.75-18.46A37.58,37.58,0,0,0-439,144.15h-2.2c-14.86-.25-28.2,9-34.2,22.92-4.9,11.45-12,18.62-19.81,18.62-14.82,0-26.84-25.56-26.84-57.11,0-18.73,4.24-35.36,10.8-45.77a43.28,43.28,0,0,0,2.3-4.17c9.56-20,37.12-34.42,69.6-34.42,34.74,0,63.81,16.49,71.32,38.64a40.16,40.16,0,0,0,1.91,4.65c5.06,10.37,8.2,25,8.2,41.07C-357.93,160.12-369.95,185.68-384.76,185.68Zm16.24-295.75a41.05,41.05,0,0,0-2.28,4c-9.57,19.43-37.08,33.46-69.51,33.46-34.7,0-63.73-16-71.23-37.55a43.76,43.76,0,0,0-1.92-4.52c-5-10.08-8.17-24.24-8.17-39.91,0-30.64,12-55.49,26.79-55.49,7.8,0,14.83,6.91,19.71,17.94a37.59,37.59,0,0,0,34.47,22.43h2.18a36.88,36.88,0,0,0,34.17-22.29c4.89-11.11,11.94-18.09,19.78-18.09,14.79,0,26.79,24.85,26.79,55.49C-357.74-136.34-362-120.18-368.52-110.07ZM-384-357c-7.81,0-14.85-7.12-19.74-18.47a37.6,37.6,0,0,0-34.51-23.08h-2.19c-14.86-.25-28.21,8.95-34.2,22.93-4.91,11.44-12,18.63-19.82,18.63-14.81,0-26.83-25.58-26.83-57.13,0-18.73,4.24-35.35,10.79-45.76a42.33,42.33,0,0,0,2.3-4.17c9.56-20,37.12-34.43,69.61-34.43,34.73,0,63.8,16.5,71.32,38.65a40,40,0,0,0,1.9,4.64c5.06,10.38,8.2,25,8.2,41.07C-357.17-382.58-369.19-357-384-357Zm67.06-391.24c7.81,0,14.83,6.92,19.73,17.94a37.54,37.54,0,0,0,34.46,22.42h.34c.62,0,1.23,0,1.84,0a36.89,36.89,0,0,0,34.16-22.28c4.9-11.12,11.95-18.1,19.79-18.1,14.8,0,26.79,24.85,26.79,55.49,0,18.21-4.24,34.36-10.76,44.48a37.73,37.73,0,0,0-2.31,4c-9.56,19.42-37.07,33.45-69.51,33.45-34.68,0-63.73-16-71.23-37.55a38.19,38.19,0,0,0-1.9-4.52c-5.06-10.08-8.19-24.25-8.19-39.91C-343.73-723.39-331.73-748.24-316.94-748.24Zm110.81,933.92c-7.81,0-14.84-7.1-19.74-18.46a37.59,37.59,0,0,0-34.51-23.07h-2.19c-14.86-.25-28.21,9-34.2,22.92-4.91,11.45-12,18.62-19.82,18.62-14.81,0-26.83-25.56-26.83-57.11,0-18.73,4.24-35.36,10.79-45.77a41.22,41.22,0,0,0,2.3-4.17c9.58-20,37.12-34.42,69.61-34.42,34.73,0,63.81,16.49,71.33,38.64a40.1,40.1,0,0,0,1.9,4.65c5.05,10.37,8.19,25,8.19,41.07C-179.3,160.12-191.3,185.68-206.13,185.68ZM-343.24-154.55c0-30.64,12-55.49,26.79-55.49,7.81,0,14.83,6.91,19.73,17.94a37.55,37.55,0,0,0,34.46,22.43h2.18a36.86,36.86,0,0,0,34.16-22.29C-221-203.06-214-210-206.13-210c14.8,0,26.79,24.85,26.79,55.49,0,18.21-4.24,34.37-10.76,44.48a39.36,39.36,0,0,0-2.31,4C-202-86.6-229.48-72.57-261.92-72.57c-34.68,0-63.73-16-71.23-37.55a39.72,39.72,0,0,0-1.91-4.52C-340.11-124.72-343.24-138.88-343.24-154.55ZM-205.36-357c-7.81,0-14.84-7.12-19.75-18.47a37.56,37.56,0,0,0-34.5-23.08h-2.2c-14.85-.25-28.2,8.95-34.19,22.93-4.91,11.44-12,18.63-19.82,18.63-14.82,0-26.84-25.58-26.84-57.13,0-18.73,4.25-35.35,10.8-45.76a44.5,44.5,0,0,0,2.3-4.17c9.58-20,37.12-34.43,69.6-34.43,34.74,0,63.82,16.5,71.33,38.65a40,40,0,0,0,1.91,4.64c5.05,10.38,8.2,25,8.2,41.07C-178.52-382.58-190.53-357-205.36-357Zm66.82-391.24c7.8,0,14.83,6.92,19.73,17.94a37.52,37.52,0,0,0,34.46,22.42H-84c.62,0,1.23,0,1.84,0A36.89,36.89,0,0,0-48-730.14c4.9-11.12,11.95-18.1,19.79-18.1,14.79,0,26.79,24.85,26.79,55.49,0,18.21-4.24,34.36-10.77,44.48a39.42,39.42,0,0,0-2.3,4C-24.06-624.8-51.57-610.77-84-610.77c-34.69,0-63.72-16-71.24-37.55a38.19,38.19,0,0,0-1.9-4.52c-5-10.08-8.19-24.25-8.19-39.91C-165.34-723.39-153.34-748.24-138.54-748.24ZM-27.27,185.68c-7.82,0-14.84-7.1-19.75-18.46a37.55,37.55,0,0,0-34.5-23.07h-2.19c-14.86-.25-28.22,9-34.21,22.92-4.9,11.45-12,18.62-19.81,18.62-14.83,0-26.82-25.56-26.82-57.11,0-18.73,4.23-35.36,10.77-45.77a43.36,43.36,0,0,0,2.31-4.17c9.57-20,37.11-34.42,69.6-34.42,34.73,0,63.82,16.49,71.33,38.64a40.1,40.1,0,0,0,1.9,4.65c5.06,10.37,8.2,25,8.2,41.07C-.44,160.12-12.45,185.68-27.27,185.68ZM-164.84-154.55c0-30.64,12-55.49,26.79-55.49,7.8,0,14.83,6.91,19.73,17.94a37.53,37.53,0,0,0,34.46,22.43h2.18a36.83,36.83,0,0,0,34.15-22.29c4.91-11.11,12-18.09,19.8-18.09,14.79,0,26.79,24.85,26.79,55.49,0,18.21-4.23,34.37-10.77,44.48a39.28,39.28,0,0,0-2.3,4C-23.57-86.6-51.08-72.57-83.52-72.57c-34.69,0-63.73-16-71.24-37.55a39.65,39.65,0,0,0-1.9-4.52C-161.71-124.72-164.84-138.88-164.84-154.55ZM-26.5-357c-7.82,0-14.84-7.12-19.76-18.47a37.55,37.55,0,0,0-34.49-23.08h-2.2c-14.85-.25-28.2,8.95-34.2,22.93C-122-364.19-129.12-357-137-357c-14.82,0-26.83-25.58-26.83-57.13,0-18.73,4.23-35.35,10.78-45.76a44.6,44.6,0,0,0,2.31-4.17c9.56-20,37.11-34.43,69.6-34.43,34.73,0,63.81,16.5,71.33,38.65a38.27,38.27,0,0,0,1.9,4.64c5.06,10.38,8.19,25,8.19,41.07C.32-382.58-11.68-357-26.5-357ZM39-748.24c7.8,0,14.83,6.92,19.73,17.94a37.54,37.54,0,0,0,34.46,22.42h.34c.62,0,1.23,0,1.84,0a36.89,36.89,0,0,0,34.16-22.28c4.9-11.12,11.95-18.1,19.79-18.1,14.79,0,26.79,24.85,26.79,55.5,0,18.2-4.23,34.35-10.77,44.47a39.42,39.42,0,0,0-2.3,4c-9.56,19.42-37.07,33.45-69.51,33.45-34.69,0-63.72-16-71.23-37.55a38.25,38.25,0,0,0-1.91-4.52c-5.05-10.08-8.18-24.25-8.18-39.9C12.24-723.39,24.24-748.24,39-748.24ZM151.68,186.69c-7.82,0-14.85-7.11-19.75-18.46a37.56,37.56,0,0,0-34.51-23.08H95.23c-14.85-.25-28.21,9-34.2,22.93-4.91,11.44-12,18.62-19.81,18.62-14.82,0-26.83-25.57-26.83-57.12,0-18.73,4.23-35.36,10.78-45.76a42.48,42.48,0,0,0,2.3-4.18c9.58-20,37.12-34.42,69.61-34.42,34.73,0,63.81,16.49,71.34,38.65a38.89,38.89,0,0,0,1.89,4.64c5.05,10.37,8.19,25,8.19,41.07C178.5,161.12,166.49,186.69,151.68,186.69Zm-139-332.85c0-30.65,12-55.5,26.79-55.5,7.8,0,14.83,6.92,19.73,17.94A37.54,37.54,0,0,0,93.71-161.3h.34c.62,0,1.23,0,1.84,0a36.89,36.89,0,0,0,34.16-22.28c4.9-11.12,12-18.1,19.79-18.1,14.79,0,26.79,24.85,26.79,55.5,0,18.2-4.23,34.36-10.77,44.47a39.42,39.42,0,0,0-2.3,4C154-78.22,126.49-64.19,94.05-64.19c-34.69,0-63.73-16-71.23-37.55a37.31,37.31,0,0,0-1.91-4.52C15.86-116.34,12.73-130.5,12.73-146.16ZM152.44-356c-7.81,0-14.84-7.12-19.74-18.47a37.59,37.59,0,0,0-34.51-23.08H96c-14.85-.25-28.21,8.95-34.2,22.93C56.89-363.19,49.83-356,42-356c-14.82,0-26.83-25.58-26.83-57.12,0-18.73,4.23-35.36,10.79-45.77a41.22,41.22,0,0,0,2.3-4.17c9.58-20,37.12-34.42,69.6-34.42,34.74,0,63.82,16.49,71.34,38.64a40,40,0,0,0,1.9,4.64c5,10.38,8.19,25,8.19,41.08C179.27-381.58,167.26-356,152.44-356ZM385.55,186.37c-7.82,0-14.85-7.11-19.76-18.45a37.57,37.57,0,0,0-34.5-23.09H329.1c-14.87-.26-28.21,8.94-34.2,22.92-4.9,11.44-12,18.62-19.82,18.62-14.82,0-26.83-25.56-26.83-57.11,0-18.74,4.24-35.36,10.79-45.77a43.19,43.19,0,0,0,2.29-4.17c9.58-20,37.12-34.43,69.61-34.43,34.74,0,63.81,16.5,71.33,38.65a40.9,40.9,0,0,0,1.91,4.65c5.06,10.37,8.19,25,8.19,41.07C412.37,160.81,400.36,186.37,385.55,186.37ZM406-109.7a39.34,39.34,0,0,0-2.29,4c-9.56,19.42-37.07,33.45-69.51,33.45-34.69,0-63.72-16-71.23-37.55a38,38,0,0,0-1.91-4.52c-5-10.08-8.18-24.24-8.18-39.9,0-30.65,12-55.5,26.79-55.5,7.8,0,14.83,6.92,19.72,17.94a37.57,37.57,0,0,0,34.46,22.43h.35c.62,0,1.23,0,1.84,0a36.89,36.89,0,0,0,34.16-22.29c4.89-11.12,12-18.1,19.79-18.1,14.79,0,26.79,24.85,26.79,55.5C416.8-136,412.57-119.81,406-109.7ZM564.18,186.37c-7.81,0-14.85-7.11-19.74-18.45a37.59,37.59,0,0,0-34.51-23.09h-2.19c-14.86-.26-28.21,8.94-34.21,22.92-4.9,11.44-12,18.62-19.81,18.62-14.81,0-26.83-25.56-26.83-57.11,0-18.74,4.24-35.36,10.79-45.77a41.22,41.22,0,0,0,2.3-4.17c9.57-20,37.12-34.43,69.61-34.43,34.73,0,63.8,16.5,71.32,38.65a40.9,40.9,0,0,0,1.91,4.65c5,10.37,8.19,25,8.19,41.07C591,160.81,579,186.37,564.18,186.37Zm20.46-296.44a39.19,39.19,0,0,0-2.29,4c-9.57,19.43-37.08,33.46-69.52,33.46-34.69,0-63.72-16-71.23-37.55a39.65,39.65,0,0,0-1.9-4.52c-5.06-10.08-8.19-24.24-8.19-39.91,0-30.64,12-55.49,26.79-55.49,7.81,0,14.83,6.91,19.73,17.94a37.55,37.55,0,0,0,34.46,22.43h2.18a36.84,36.84,0,0,0,34.16-22.29c4.89-11.11,11.95-18.09,19.8-18.09,14.79,0,26.79,24.85,26.79,55.49C595.42-136.34,591.17-120.18,584.64-110.07ZM742.83,186.37c-7.82,0-14.85-7.11-19.76-18.45a37.57,37.57,0,0,0-34.5-23.09h-2.2c-14.86-.26-28.2,8.94-34.19,22.92-4.91,11.44-12,18.62-19.82,18.62-14.82,0-26.84-25.56-26.84-57.11,0-18.74,4.25-35.36,10.8-45.77a43.28,43.28,0,0,0,2.3-4.17c9.57-20,37.11-34.43,69.61-34.43,34.73,0,63.8,16.5,71.32,38.65a40.9,40.9,0,0,0,1.91,4.65c5,10.37,8.19,25,8.19,41.07C769.65,160.81,757.65,186.37,742.83,186.37ZM763-110.07a37.5,37.5,0,0,0-2.3,4c-9.56,19.43-37.07,33.46-69.51,33.46-34.69,0-63.72-16-71.24-37.55a39.65,39.65,0,0,0-1.9-4.52c-5.05-10.08-8.18-24.24-8.18-39.91,0-30.64,12-55.49,26.79-55.49,7.8,0,14.83,6.91,19.72,17.94a37.58,37.58,0,0,0,34.47,22.43h2.18a36.86,36.86,0,0,0,34.16-22.29C732.13-203.06,739.18-210,747-210c14.79,0,26.79,24.85,26.79,55.49C773.81-136.34,769.58-120.18,763-110.07ZM921.68,186.37c-7.82,0-14.85-7.11-19.75-18.45a37.57,37.57,0,0,0-34.51-23.09h-2.19c-14.85-.26-28.21,8.94-34.2,22.92-4.91,11.44-12,18.62-19.81,18.62-14.82,0-26.83-25.56-26.83-57.11,0-18.74,4.23-35.36,10.78-45.77a41.22,41.22,0,0,0,2.3-4.17c9.57-20,37.11-34.43,69.61-34.43,34.74,0,63.81,16.5,71.33,38.65a39,39,0,0,0,1.89,4.65c5.07,10.37,8.2,25,8.2,41.07C948.5,160.81,936.49,186.37,921.68,186.37Zm19.75-296.44a39.19,39.19,0,0,0-2.29,4c-9.56,19.43-37.06,33.46-69.51,33.46-34.69,0-63.73-16-71.24-37.55a39.65,39.65,0,0,0-1.9-4.52c-5-10.08-8.19-24.24-8.19-39.91,0-30.64,12-55.49,26.79-55.49,7.81,0,14.83,6.91,19.73,17.94a37.56,37.56,0,0,0,34.46,22.43h2.18a36.88,36.88,0,0,0,34.17-22.29c4.89-11.11,12-18.09,19.78-18.09,14.79,0,26.79,24.85,26.79,55.49C952.2-136.34,948-120.18,941.43-110.07Zm159.19,297.45c-7.81,0-14.84-7.12-19.75-18.46a37.57,37.57,0,0,0-34.5-23.09h-2.2c-14.85-.26-28.2,8.94-34.19,22.93-4.91,11.43-12,18.62-19.82,18.62-14.82,0-26.83-25.57-26.83-57.12,0-18.74,4.23-35.36,10.79-45.77a43.28,43.28,0,0,0,2.3-4.17c9.58-20,37.12-34.42,69.6-34.42,34.74,0,63.82,16.49,71.34,38.64a39.09,39.09,0,0,0,1.9,4.65c5,10.37,8.19,25,8.19,41.07C1127.45,161.81,1115.45,187.38,1100.62,187.38ZM1119-110.07a42.42,42.42,0,0,0-2.3,4c-9.56,19.43-37.06,33.46-69.51,33.46-34.69,0-63.72-16-71.24-37.55a39.65,39.65,0,0,0-1.9-4.52c-5-10.08-8.19-24.24-8.19-39.91,0-30.64,12-55.49,26.79-55.49,7.81,0,14.83,6.91,19.74,17.94a37.54,37.54,0,0,0,34.45,22.43H1049a36.86,36.86,0,0,0,34.16-22.29c4.89-11.11,12-18.09,19.79-18.09,14.79,0,26.79,24.85,26.79,55.49C1129.78-136.34,1125.54-120.18,1119-110.07Z"/></g><g id="Слой_2" data-name="Слой 2"><path class="cls-3" d="M62.82,81.61h7.67V94.74h9V90.81h7.68v3.93h8.95v7.89H87.12v13.16H79.44V102.63H62.82Z"/><path class="cls-3" d="M99.44,81.61h33.25V89.5H107.11v5.24h25.58v21.05H99.44Zm7.67,21v5.27H125v-5.27Z"/></g></svg>