<svg xmlns="http://www.w3.org/2000/svg" xmlns:xlink="http://www.w3.org/1999/xlink" viewBox="0 0 1920 1080"><defs><style>.cls-1,.cls-3{stroke-miterlimit:10;}.cls-1{fill:url(#Безымянный_градиент_48);stroke:url(#Безымянный_градиент_31);}.cls-2{fill:#252525;}.cls-3{fill:none;stroke:#999;}.cls-4{font-size:50.65px;}.cls-4,.cls-5{fill:#fff;font-family:PhageRegularKG, Phage Regular KG;}.cls-5{font-size:49.21px;}</style><linearGradient id="Безымянный_градиент_48" x1="-0.83" y1="540.34" x2="1919.17" y2="540.34" gradientUnits="userSpaceOnUse"><stop offset="0" stop-color="#5b2e83"/><stop offset="1" stop-color="#e07f32"/></linearGradient><linearGradient id="Безымянный_градиент_31" x1="-1.33" y1="540.34" x2="1919.67" y2="540.34" gradientUnits="userSpaceOnUse"><stop offset="0" stop-color="#5a2e84"/><stop offset="1" stop-color="#e07f32"/></linearGradient></defs><g id="Слой_4" data-name="Слой 4"><rect class="cls-1" x="-0.83" y="0.34" width="1920" height="1080"/></g><g id="Слой_5" data-name="Слой 5"><path class="cls-2" d="M0,0V1080H1920V0ZM1737.31,73.68c7.8,0,14.82,6.91,19.72,17.92a37.51,37.51,0,0,0,34.43,22.4h.35c.61,0,1.23,0,1.83,0a36.87,36.87,0,0,0,34.14-22.26c4.89-11.11,11.94-18.08,19.77-18.08,14.78,0,26.77,24.82,26.77,55.44,0,18.18-4.23,34.32-10.76,44.42a39.34,39.34,0,0,0-2.29,4.05c-9.56,19.4-37,33.41-69.46,33.41-34.66,0-63.68-16-71.19-37.51a38.76,38.76,0,0,0-1.9-4.51c-5-10.07-8.18-24.22-8.18-39.86C1710.54,98.5,1722.53,73.68,1737.31,73.68ZM1720,363.41a41.22,41.22,0,0,0,2.3-4.17c9.57-20,37.09-34.38,69.56-34.38,34.7,0,63.76,16.47,71.28,38.6a38.89,38.89,0,0,0,1.89,4.64c5,10.36,8.19,24.92,8.19,41,0,31.51-12,57.05-26.8,57.05-7.82,0-14.84-7.1-19.74-18.44a37.52,37.52,0,0,0-34.48-23.05H1790c-14.84-.25-28.19,8.94-34.17,22.9-4.91,11.43-12,18.6-19.8,18.6-14.81,0-26.81-25.54-26.81-57.05C1709.26,390.42,1713.49,373.8,1720,363.41ZM1559.87,73.68c7.8,0,14.82,6.91,19.72,17.92A37.51,37.51,0,0,0,1614,114h.35c.61,0,1.23,0,1.83,0a36.87,36.87,0,0,0,34.14-22.26c4.89-11.11,11.94-18.08,19.77-18.08,14.78,0,26.77,24.82,26.77,55.43,0,18.19-4.23,34.33-10.76,44.43a39.34,39.34,0,0,0-2.29,4.05c-9.56,19.4-37,33.41-69.46,33.41-34.66,0-63.68-16-71.19-37.51a38.76,38.76,0,0,0-1.9-4.51c-5-10.07-8.18-24.22-8.18-39.87C1533.1,98.5,1545.09,73.68,1559.87,73.68Zm-18.65,288.73a41.22,41.22,0,0,0,2.3-4.17c9.57-20,37.09-34.38,69.55-34.38,34.71,0,63.77,16.47,71.28,38.6a40.69,40.69,0,0,0,1.9,4.64c5,10.36,8.19,24.92,8.19,41,0,31.51-12,57.05-26.81,57.05-7.81,0-14.83-7.1-19.73-18.44a37.53,37.53,0,0,0-34.48-23.05h-2.19c-14.84-.25-28.19,8.94-34.18,22.9-4.9,11.43-12,18.6-19.8,18.6-14.81,0-26.8-25.54-26.8-57.05C1530.45,389.42,1534.68,372.8,1541.22,362.41ZM1381.61,73.68c7.8,0,14.82,6.91,19.71,17.92a37.53,37.53,0,0,0,34.44,22.4h.34c.62,0,1.23,0,1.84,0a36.87,36.87,0,0,0,34.14-22.26c4.89-11.11,11.94-18.08,19.77-18.08,14.78,0,26.77,24.82,26.77,55.43,0,18.19-4.23,34.33-10.76,44.43a37.64,37.64,0,0,0-2.3,4.05C1496,197,1468.52,211,1436.1,211c-34.66,0-63.67-16-71.18-37.51A38.76,38.76,0,0,0,1363,169c-5-10.07-8.18-24.22-8.18-39.87C1354.84,98.5,1366.83,73.68,1381.61,73.68ZM1362.5,362.41a41.22,41.22,0,0,0,2.3-4.17c9.57-20,37.09-34.38,69.56-34.38,34.7,0,63.76,16.47,71.27,38.6a40.69,40.69,0,0,0,1.9,4.64c5,10.36,8.19,24.92,8.19,41,0,31.51-12,57.05-26.81,57.05-7.81,0-14.83-7.1-19.73-18.44a37.54,37.54,0,0,0-34.48-23.05h-2.19c-14.85-.25-28.19,8.94-34.18,22.9-4.9,11.43-11.95,18.6-19.8,18.6-14.8,0-26.81-25.54-26.81-57.05C1351.72,389.42,1356,372.8,1362.5,362.41ZM1203.35,73.68c7.8,0,14.82,6.91,19.71,17.92A37.52,37.52,0,0,0,1257.5,114h.34c.62,0,1.23,0,1.84,0a36.85,36.85,0,0,0,34.13-22.26c4.89-11.11,11.94-18.08,19.78-18.08,14.78,0,26.77,24.82,26.77,55.43,0,18.19-4.23,34.33-10.77,44.43a39.34,39.34,0,0,0-2.29,4.05c-9.55,19.4-37,33.41-69.46,33.41-34.67,0-63.68-16-71.18-37.51a38.76,38.76,0,0,0-1.9-4.51c-5-10.07-8.18-24.22-8.18-39.87C1176.58,98.5,1188.57,73.68,1203.35,73.68ZM1184,362.41a43.28,43.28,0,0,0,2.3-4.17c9.56-20,37.09-34.38,69.55-34.38,34.71,0,63.76,16.47,71.27,38.6a40.75,40.75,0,0,0,1.91,4.64c5,10.36,8.19,24.92,8.19,41,0,31.51-12,57.05-26.81,57.05-7.81,0-14.84-7.1-19.74-18.44a37.53,37.53,0,0,0-34.47-23.05H1254c-14.85-.25-28.18,8.94-34.17,22.9-4.9,11.43-12,18.6-19.8,18.6-14.81,0-26.82-25.54-26.82-57.05C1173.21,389.42,1177.45,372.8,1184,362.41ZM1024.87,73.68c7.8,0,14.82,6.91,19.71,17.92A37.53,37.53,0,0,0,1079,114h.35c.62,0,1.23,0,1.84,0a36.85,36.85,0,0,0,34.13-22.26c4.9-11.11,12-18.08,19.78-18.08,14.78,0,26.77,24.82,26.77,55.43,0,18.19-4.23,34.33-10.77,44.43a41.29,41.29,0,0,0-2.29,4.05c-9.55,19.4-37,33.41-69.46,33.41-34.66,0-63.67-16-71.18-37.51a38.76,38.76,0,0,0-1.9-4.51c-5-10.07-8.18-24.22-8.18-39.87C998.1,98.5,1010.09,73.68,1024.87,73.68Zm-19.38,288.73a41.13,41.13,0,0,0,2.29-4.17c9.57-20,37.1-34.38,69.56-34.38,34.71,0,63.76,16.47,71.28,38.6a40.69,40.69,0,0,0,1.9,4.64c5,10.36,8.19,24.92,8.19,41,0,31.51-12,57.05-26.81,57.05-7.81,0-14.84-7.1-19.73-18.44a37.54,37.54,0,0,0-34.48-23.05h-2.19c-14.85-.25-28.19,8.94-34.18,22.9-4.9,11.43-12,18.6-19.8,18.6-14.8,0-26.81-25.54-26.81-57.05C994.71,389.42,999,372.8,1005.49,362.41ZM72.44,73.68c7.8,0,14.82,6.91,19.71,17.92A37.52,37.52,0,0,0,126.58,114h.35c.62,0,1.22,0,1.84,0A36.85,36.85,0,0,0,162.9,91.76c4.89-11.11,11.95-18.08,19.78-18.08,14.78,0,26.77,24.82,26.77,55.43,0,18.19-4.23,34.33-10.77,44.43a37.56,37.56,0,0,0-2.29,4.05c-9.55,19.4-37,33.41-69.46,33.41-34.67,0-63.68-16-71.18-37.51a38.76,38.76,0,0,0-1.9-4.51c-5.05-10.07-8.18-24.22-8.18-39.87C45.67,98.5,57.66,73.68,72.44,73.68ZM182.9,1006.61c-7.81,0-14.84-7.1-19.73-18.44a37.54,37.54,0,0,0-34.48-23H126.5c-14.85-.25-28.19,8.94-34.18,22.9-4.9,11.43-12,18.6-19.8,18.6-14.8,0-26.81-25.54-26.81-57.05,0-18.71,4.24-35.33,10.78-45.72a41.13,41.13,0,0,0,2.29-4.17c9.57-20,37.1-34.38,69.56-34.38,34.71,0,63.76,16.47,71.28,38.6a40.69,40.69,0,0,0,1.9,4.64c5,10.36,8.19,24.92,8.19,41C209.71,981.07,197.7,1006.61,182.9,1006.61Zm16.27-295.44a37.42,37.42,0,0,0-2.29,4c-9.55,19.41-37,33.42-69.46,33.42-34.67,0-63.68-16-71.18-37.51a38.76,38.76,0,0,0-1.9-4.51c-5.05-10.07-8.18-24.22-8.18-39.87,0-30.61,12-55.43,26.77-55.43,7.8,0,14.82,6.9,19.71,17.92a37.54,37.54,0,0,0,34.43,22.4h2.19a36.82,36.82,0,0,0,34.13-22.26c4.89-11.1,12-18.07,19.78-18.07,14.78,0,26.77,24.82,26.77,55.43C209.94,684.93,205.71,701.07,199.17,711.17ZM183.67,464.5c-7.81,0-14.84-7.11-19.74-18.45A37.55,37.55,0,0,0,129.46,423h-2.2c-14.84-.25-28.18,8.94-34.17,22.9-4.9,11.43-12,18.61-19.81,18.61-14.8,0-26.81-25.55-26.81-57.06,0-18.71,4.24-35.32,10.79-45.72a41,41,0,0,0,2.29-4.16c9.57-20,37.1-34.39,69.55-34.39,34.72,0,63.77,16.48,71.28,38.6a40,40,0,0,0,1.91,4.64c5.05,10.37,8.19,24.93,8.19,41C210.48,439,198.47,464.5,183.67,464.5ZM250.92,73.68c7.8,0,14.82,6.91,19.7,17.92A37.53,37.53,0,0,0,305.06,114h.35c.61,0,1.23,0,1.83,0a36.87,36.87,0,0,0,34.14-22.26c4.89-11.11,11.94-18.08,19.77-18.08,14.78,0,26.77,24.82,26.77,55.43,0,18.19-4.23,34.33-10.76,44.43a39.34,39.34,0,0,0-2.29,4.05C365.31,197,337.82,211,305.41,211c-34.67,0-63.68-16-71.18-37.51a40.64,40.64,0,0,0-1.91-4.51c-5-10.07-8.17-24.22-8.17-39.87C224.15,98.5,236.14,73.68,250.92,73.68Zm110.49,932.93c-7.81,0-14.84-7.1-19.74-18.44a37.53,37.53,0,0,0-34.47-23H305c-14.85-.25-28.18,8.94-34.17,22.9-4.9,11.43-12,18.6-19.8,18.6-14.81,0-26.82-25.54-26.82-57.05,0-18.71,4.24-35.33,10.79-45.72a43.28,43.28,0,0,0,2.3-4.17c9.56-20,37.09-34.38,69.55-34.38,34.71,0,63.76,16.47,71.27,38.6a40.75,40.75,0,0,0,1.91,4.64c5.05,10.36,8.19,24.92,8.19,41C388.22,981.07,376.21,1006.61,361.41,1006.61Zm16.23-295.44a41.05,41.05,0,0,0-2.28,4c-9.56,19.41-37.05,33.42-69.46,33.42-34.67,0-63.68-16-71.18-37.51a40.64,40.64,0,0,0-1.91-4.51c-5-10.07-8.17-24.22-8.17-39.87,0-30.61,12-55.43,26.77-55.43,7.8,0,14.82,6.9,19.7,17.92a37.55,37.55,0,0,0,34.44,22.4h2.18a36.84,36.84,0,0,0,34.14-22.26c4.89-11.1,11.94-18.07,19.77-18.07,14.78,0,26.77,24.82,26.77,55.43C388.41,684.93,384.18,701.07,377.64,711.17ZM362.17,464.5c-7.81,0-14.84-7.11-19.73-18.45A37.56,37.56,0,0,0,308,423h-2.19c-14.85-.25-28.19,8.94-34.17,22.9-4.91,11.43-12,18.61-19.81,18.61C237,464.5,225,439,225,407.44c0-18.71,4.24-35.32,10.78-45.72a41.06,41.06,0,0,0,2.3-4.16c9.56-20,37.09-34.39,69.56-34.39,34.7,0,63.75,16.48,71.27,38.6a40,40,0,0,0,1.9,4.64c5,10.37,8.19,24.93,8.19,41C389,439,377,464.5,362.17,464.5Zm67-390.82c7.8,0,14.82,6.91,19.71,17.92A37.52,37.52,0,0,0,483.33,114h.34c.62,0,1.23,0,1.84,0a36.85,36.85,0,0,0,34.13-22.26c4.9-11.11,11.94-18.08,19.78-18.08,14.78,0,26.77,24.82,26.77,55.43,0,18.19-4.24,34.33-10.76,44.43a37.64,37.64,0,0,0-2.3,4.05c-9.56,19.4-37,33.41-69.46,33.41C449,211,420,195,412.49,173.49a38.76,38.76,0,0,0-1.9-4.51c-5-10.07-8.18-24.22-8.18-39.87C402.41,98.5,414.4,73.68,429.18,73.68Zm110.73,932.93c-7.81,0-14.83-7.1-19.73-18.44a37.54,37.54,0,0,0-34.48-23h-2.19c-14.85-.25-28.19,8.94-34.18,22.9-4.9,11.43-11.95,18.6-19.8,18.6-14.8,0-26.81-25.54-26.81-57.05,0-18.71,4.24-35.33,10.78-45.72a41.22,41.22,0,0,0,2.3-4.17c9.57-20,37.09-34.38,69.56-34.38,34.7,0,63.76,16.47,71.27,38.6a40.69,40.69,0,0,0,1.9,4.64c5.05,10.36,8.19,24.92,8.19,41C566.72,981.07,554.72,1006.61,539.91,1006.61Zm-137-339.87c0-30.61,12-55.43,26.77-55.43,7.8,0,14.82,6.9,19.71,17.92a37.54,37.54,0,0,0,34.44,22.4H486a36.83,36.83,0,0,0,34.13-22.26c4.9-11.1,11.94-18.07,19.78-18.07,14.78,0,26.77,24.82,26.77,55.43,0,18.19-4.24,34.33-10.76,44.43a37.5,37.5,0,0,0-2.3,4c-9.56,19.41-37,33.42-69.46,33.42-34.66,0-63.68-16-71.18-37.51a38.83,38.83,0,0,0-1.91-4.51C406,696.54,402.9,682.39,402.9,666.74ZM540.68,464.5c-7.81,0-14.83-7.11-19.74-18.45A37.55,37.55,0,0,0,486.47,423h-2.2c-14.84-.25-28.18,8.94-34.17,22.9-4.9,11.43-12,18.61-19.8,18.61-14.81,0-26.82-25.55-26.82-57.06,0-18.71,4.24-35.32,10.79-45.72a43.12,43.12,0,0,0,2.3-4.16c9.57-20,37.09-34.39,69.55-34.39,34.71,0,63.77,16.48,71.27,38.6a40,40,0,0,0,1.91,4.64c5.05,10.37,8.19,24.93,8.19,41C567.49,439,555.49,464.5,540.68,464.5ZM607.44,73.68c7.8,0,14.82,6.91,19.72,17.92A37.5,37.5,0,0,0,661.59,114h.34c.62,0,1.23,0,1.84,0a36.87,36.87,0,0,0,34.14-22.26c4.89-11.11,11.94-18.08,19.77-18.08,14.78,0,26.77,24.82,26.77,55.43,0,18.19-4.23,34.33-10.76,44.43a39.42,39.42,0,0,0-2.3,4.05c-9.55,19.4-37,33.41-69.46,33.41-34.66,0-63.67-16-71.18-37.51a38.76,38.76,0,0,0-1.9-4.51c-5.05-10.07-8.18-24.22-8.18-39.87C580.67,98.5,592.66,73.68,607.44,73.68Zm111.19,932.93c-7.81,0-14.83-7.1-19.73-18.44a37.53,37.53,0,0,0-34.48-23h-2.19c-14.84-.25-28.19,8.94-34.18,22.9-4.9,11.43-11.95,18.6-19.8,18.6-14.81,0-26.8-25.54-26.8-57.05,0-18.71,4.23-35.33,10.77-45.72a41.22,41.22,0,0,0,2.3-4.17c9.57-20,37.09-34.38,69.55-34.38,34.71,0,63.77,16.47,71.28,38.6a40.69,40.69,0,0,0,1.9,4.64c5,10.36,8.19,24.92,8.19,41C745.44,981.07,733.44,1006.61,718.63,1006.61ZM581.16,666.74c0-30.61,12-55.43,26.77-55.43,7.8,0,14.82,6.9,19.72,17.92a37.51,37.51,0,0,0,34.43,22.4h2.18a36.82,36.82,0,0,0,34.13-22.26c4.9-11.1,12-18.07,19.78-18.07,14.78,0,26.77,24.82,26.77,55.43,0,18.19-4.23,34.33-10.76,44.43a39.28,39.28,0,0,0-2.3,4c-9.55,19.41-37,33.42-69.46,33.42-34.66,0-63.68-16-71.18-37.51a38.76,38.76,0,0,0-1.9-4.51C584.29,696.54,581.16,682.39,581.16,666.74ZM719.4,464.5c-7.81,0-14.83-7.11-19.74-18.45A37.54,37.54,0,0,0,665.19,423H663c-14.84-.25-28.18,8.94-34.17,22.9-4.9,11.43-12,18.61-19.8,18.61-14.81,0-26.81-25.55-26.81-57.06,0-18.71,4.23-35.32,10.78-45.72a43.12,43.12,0,0,0,2.3-4.16c9.56-20,37.09-34.39,69.55-34.39,34.71,0,63.76,16.48,71.28,38.6a38.27,38.27,0,0,0,1.9,4.64c5.05,10.37,8.18,24.93,8.18,41C746.2,439,734.21,464.5,719.4,464.5ZM784.88,73.68c7.8,0,14.82,6.91,19.72,17.92A37.5,37.5,0,0,0,839,114h.34c.62,0,1.23,0,1.84,0a36.85,36.85,0,0,0,34.13-22.26c4.9-11.11,11.95-18.08,19.78-18.08,14.78,0,26.77,24.82,26.77,55.44,0,18.18-4.23,34.32-10.76,44.42a39.42,39.42,0,0,0-2.3,4.05c-9.55,19.4-37,33.41-69.46,33.41-34.66,0-63.67-16-71.18-37.51a38.76,38.76,0,0,0-1.9-4.51c-5-10.07-8.18-24.22-8.18-39.86C758.11,98.5,770.1,73.68,784.88,73.68Zm112.57,933.93c-7.82,0-14.84-7.1-19.74-18.44a37.52,37.52,0,0,0-34.48-23H841c-14.84-.25-28.19,8.94-34.17,22.9-4.91,11.43-12,18.6-19.8,18.6-14.81,0-26.81-25.54-26.81-57.05,0-18.71,4.23-35.33,10.77-45.72a41.22,41.22,0,0,0,2.3-4.17c9.57-20,37.09-34.38,69.56-34.38,34.7,0,63.76,16.47,71.28,38.6a38.89,38.89,0,0,0,1.89,4.64c5.05,10.36,8.19,24.92,8.19,41C924.25,982.07,912.25,1007.61,897.45,1007.61ZM758.6,675.12c0-30.62,12-55.44,26.77-55.44,7.8,0,14.82,6.91,19.72,17.92A37.5,37.5,0,0,0,839.52,660h.34c.62,0,1.23,0,1.84,0a36.85,36.85,0,0,0,34.13-22.26c4.9-11.11,11.95-18.08,19.78-18.08,14.78,0,26.77,24.82,26.77,55.44,0,18.18-4.23,34.32-10.76,44.42a39.42,39.42,0,0,0-2.3,4.05c-9.55,19.4-37,33.41-69.46,33.41-34.66,0-63.68-16-71.18-37.51a38.76,38.76,0,0,0-1.9-4.51C761.73,704.91,758.6,690.76,758.6,675.12ZM898.21,465.5c-7.81,0-14.83-7.11-19.73-18.45A37.55,37.55,0,0,0,844,424h-2.19c-14.84-.25-28.19,8.94-34.18,22.9-4.9,11.43-12,18.61-19.8,18.61C773,465.5,761,440,761,408.44c0-18.71,4.23-35.32,10.78-45.72a41.06,41.06,0,0,0,2.3-4.16c9.57-20,37.09-34.39,69.55-34.39,34.71,0,63.77,16.48,71.28,38.6a40,40,0,0,0,1.9,4.64c5,10.37,8.19,24.93,8.19,41C925,440,913,465.5,898.21,465.5Zm232.93,541.8c-7.81,0-14.84-7.11-19.74-18.44a37.55,37.55,0,0,0-34.48-23.06h-2.19c-14.85-.26-28.18,8.93-34.17,22.9-4.9,11.42-12,18.6-19.81,18.6-14.8,0-26.81-25.54-26.81-57,0-18.72,4.24-35.33,10.79-45.73a41.88,41.88,0,0,0,2.29-4.16c9.57-20,37.09-34.39,69.55-34.39,34.72,0,63.77,16.48,71.28,38.6a40.9,40.9,0,0,0,1.91,4.65c5,10.36,8.18,24.92,8.18,41C1157.94,981.76,1145.94,1007.3,1131.14,1007.3Zm20.46-295.76a39.34,39.34,0,0,0-2.29,4.05c-9.55,19.4-37,33.41-69.46,33.41-34.66,0-63.67-16-71.18-37.51a38.76,38.76,0,0,0-1.9-4.51c-5-10.07-8.18-24.22-8.18-39.86,0-30.62,12-55.44,26.77-55.44,7.8,0,14.82,6.91,19.71,17.92A37.53,37.53,0,0,0,1079.5,652h.35c.62,0,1.23,0,1.84,0a36.85,36.85,0,0,0,34.13-22.26c4.89-11.11,12-18.08,19.78-18.08,14.78,0,26.77,24.82,26.77,55.44C1162.37,685.3,1158.14,701.44,1151.6,711.54Zm158,295.76c-7.81,0-14.84-7.11-19.73-18.44a37.55,37.55,0,0,0-34.48-23.06h-2.19c-14.85-.26-28.19,8.93-34.18,22.9-4.9,11.42-12,18.6-19.8,18.6-14.8,0-26.81-25.54-26.81-57,0-18.72,4.24-35.33,10.78-45.73a40,40,0,0,0,2.3-4.16c9.56-20,37.09-34.39,69.56-34.39,34.7,0,63.75,16.48,71.27,38.6a40.84,40.84,0,0,0,1.9,4.65c5,10.36,8.19,24.92,8.19,41C1336.45,981.76,1324.44,1007.3,1309.64,1007.3Zm20.44-296.13a39.19,39.19,0,0,0-2.29,4c-9.56,19.41-37,33.42-69.46,33.42-34.67,0-63.68-16-71.18-37.51a38.76,38.76,0,0,0-1.9-4.51c-5-10.07-8.18-24.22-8.18-39.87,0-30.61,12-55.43,26.77-55.43,7.8,0,14.82,6.9,19.71,17.92a37.54,37.54,0,0,0,34.44,22.4h2.18a36.82,36.82,0,0,0,34.13-22.26c4.89-11.1,11.94-18.07,19.78-18.07,14.78,0,26.77,24.82,26.77,55.43C1340.85,684.93,1336.61,701.07,1330.08,711.17Zm158.07,296.13c-7.81,0-14.83-7.11-19.74-18.44a37.55,37.55,0,0,0-34.48-23.06h-2.19c-14.85-.26-28.18,8.93-34.17,22.9-4.9,11.42-12,18.6-19.8,18.6-14.81,0-26.82-25.54-26.82-57,0-18.72,4.24-35.33,10.79-45.73a42,42,0,0,0,2.3-4.16c9.56-20,37.08-34.39,69.55-34.39,34.71,0,63.76,16.48,71.27,38.6a40.9,40.9,0,0,0,1.91,4.65c5,10.36,8.18,24.92,8.18,41C1515,981.76,1503,1007.3,1488.15,1007.3Zm20.2-296.13a37.5,37.5,0,0,0-2.3,4c-9.55,19.41-37,33.42-69.46,33.42-34.66,0-63.67-16-71.18-37.51a38.76,38.76,0,0,0-1.9-4.51c-5-10.07-8.18-24.22-8.18-39.87,0-30.61,12-55.43,26.77-55.43,7.8,0,14.82,6.9,19.71,17.92a37.54,37.54,0,0,0,34.44,22.4h2.18a36.84,36.84,0,0,0,34.14-22.26c4.89-11.1,11.94-18.07,19.77-18.07,14.78,0,26.77,24.82,26.77,55.43C1519.11,684.93,1514.88,701.07,1508.35,711.17Zm158.52,296.13c-7.81,0-14.84-7.11-19.74-18.44a37.53,37.53,0,0,0-34.48-23.06h-2.19c-14.84-.26-28.19,8.93-34.17,22.9-4.91,11.42-12,18.6-19.8,18.6-14.81,0-26.81-25.54-26.81-57,0-18.72,4.23-35.33,10.77-45.73a40,40,0,0,0,2.3-4.16c9.57-20,37.09-34.39,69.56-34.39,34.71,0,63.76,16.48,71.28,38.6a39,39,0,0,0,1.89,4.65c5.06,10.36,8.19,24.92,8.19,41C1693.67,981.76,1681.67,1007.3,1666.87,1007.3Zm19.74-296.13a39.19,39.19,0,0,0-2.29,4c-9.56,19.41-37,33.42-69.46,33.42-34.66,0-63.68-16-71.19-37.51a38.76,38.76,0,0,0-1.9-4.51c-5-10.07-8.18-24.22-8.18-39.87,0-30.61,12-55.43,26.77-55.43,7.8,0,14.82,6.9,19.72,17.92a37.52,37.52,0,0,0,34.43,22.4h2.18a36.84,36.84,0,0,0,34.14-22.26c4.89-11.1,11.94-18.07,19.77-18.07,14.78,0,26.77,24.82,26.77,55.43C1697.37,684.93,1693.14,701.07,1686.61,711.17Zm159.07,297.13c-7.81,0-14.83-7.11-19.74-18.44a37.53,37.53,0,0,0-34.47-23.06h-2.2c-14.84-.26-28.18,8.93-34.17,22.9-4.9,11.42-12,18.6-19.8,18.6-14.81,0-26.81-25.54-26.81-57,0-18.72,4.23-35.33,10.78-45.73a42,42,0,0,0,2.3-4.16c9.57-20,37.09-34.39,69.55-34.39,34.71,0,63.77,16.48,71.28,38.6a39.09,39.09,0,0,0,1.9,4.65c5,10.36,8.19,24.92,8.19,41C1872.49,982.76,1860.49,1008.3,1845.68,1008.3Zm18.37-297.13a42.42,42.42,0,0,0-2.3,4c-9.55,19.41-37,33.42-69.45,33.42-34.67,0-63.68-16-71.19-37.51a38.76,38.76,0,0,0-1.9-4.51c-5-10.07-8.18-24.22-8.18-39.87,0-30.61,12-55.43,26.77-55.43,7.8,0,14.82,6.9,19.72,17.92a37.52,37.52,0,0,0,34.43,22.4h2.18a36.84,36.84,0,0,0,34.14-22.26c4.89-11.1,11.94-18.07,19.77-18.07,14.78,0,26.77,24.82,26.77,55.43C1874.81,684.93,1870.58,701.07,1864.05,711.17Z"/></g><g id="Слой_1" data-name="Слой 1"><line class="cls-3" x1="919.5" y1="537.5" x2="46.5" y2="537.5"/><line class="cls-3" x1="1872.5" y1="537.5" x2="998.5" y2="537.5"/></g><g id="Слой_2" data-name="Слой 2"><text class="cls-4" transform="translate(628.09 394.67) scale(0.97 1)">37</text><text class="cls-4" transform="translate(447.89 394.51) scale(0.97 1)">38</text><text class="cls-4" transform="translate(270.53 394.35) scale(0.97 1)">39</text><text class="cls-4" transform="translate(92.49 393.83) scale(0.97 1)">40</text><text class="cls-5" transform="translate(87.67 171.86)">35</text><text class="cls-5" transform="translate(266.35 171.01)">34</text><text class="cls-5" transform="translate(447.9 171.48)">33</text><text class="cls-5" transform="translate(627.7 170.97)">32</text><text class="cls-5" transform="translate(810.14 170.97)">31</text><text class="cls-5" transform="translate(1057.1 170.86)">11</text><text class="cls-5" transform="translate(1227.78 171.01)">12</text><text class="cls-5" transform="translate(1404.34 171.48)">13</text><text class="cls-5" transform="translate(1583.14 171.97)">14</text><text class="cls-5" transform="translate(1760.58 170.97)">15</text><text class="cls-5" transform="translate(88.16 709.49)">45</text><text class="cls-5" transform="translate(266.84 708.63)">44</text><text class="cls-5" transform="translate(448.39 709.11)">43</text><text class="cls-5" transform="translate(627.19 708.6)">42</text><text class="cls-5" transform="translate(810.63 708.97)">41</text><text class="cls-5" transform="translate(1047.59 708.86)">21</text><text class="cls-5" transform="translate(1219.27 708.63)">22</text><text class="cls-5" transform="translate(1400.83 709.11)">23</text><text class="cls-5" transform="translate(1575.63 708.6)">24</text><text class="cls-5" transform="translate(1753.07 708.6)">25</text><text class="cls-4" transform="translate(806.9 395.67) scale(0.97 1)">36</text><text class="cls-4" transform="translate(1583.32 395.36) scale(0.97 1)">19</text><text class="cls-4" transform="translate(1403.13 395.2) scale(0.97 1)">18</text><text class="cls-4" transform="translate(1226.77 394.04) scale(0.97 1)">17</text><text class="cls-4" transform="translate(1047.72 394.51) scale(0.97 1)">16</text><text class="cls-4" transform="translate(1753.13 395.36) scale(0.97 1)">20</text><text class="cls-4" transform="translate(627.32 936.79) scale(0.97 1)">47</text><text class="cls-4" transform="translate(448.13 936.63) scale(0.97 1)">48</text><text class="cls-4" transform="translate(269.77 936.47) scale(0.97 1)">49</text><text class="cls-4" transform="translate(91.72 935.95) scale(0.97 1)">50</text><text class="cls-4" transform="translate(806.13 937.79) scale(0.97 1)">46</text><text class="cls-4" transform="translate(1575.56 937.48) scale(0.97 1)">29</text><text class="cls-4" transform="translate(1400.36 937.31) scale(0.97 1)">28</text><text class="cls-4" transform="translate(1218 937.15) scale(0.97 1)">27</text><text class="cls-4" transform="translate(1039.96 936.63) scale(0.97 1)">26</text><text class="cls-4" transform="translate(1752.37 936.48) scale(0.97 1)">30</text></g></svg>